<svg width="41" height="41" viewBox="0 0 41 41" fill="none" xmlns="http://www.w3.org/2000/svg">
<rect width="41" height="41" rx="9" fill="black"/>
<path d="M9 10.2C9 9.35131 9.33714 8.53737 9.93726 7.93726C10.5374 7.33714 11.3513 7 12.2 7H28.2C28.6243 7 29.0313 7.16857 29.3314 7.46863C29.6314 7.76869 29.8 8.17565 29.8 8.6V16.7726C29.8 17.3017 30.0615 17.7965 30.4987 18.0946V18.0946C31.5608 18.8187 33 18.0581 33 16.7726V15C33 14.5757 32.8314 14.1687 32.5314 13.8686C32.2313 13.5686 31.8243 13.4 31.4 13.4H12.2C11.3513 13.4 10.5374 13.0629 9.93726 12.4627C9.33714 11.8626 9 11.0487 9 10.2ZM9 10.2V29.4C9 30.2487 9.33714 31.0626 9.93726 31.6627C10.5374 32.2629 11.3513 32.6 12.2 32.6H31.4C31.8243 32.6 32.2313 32.4314 32.5314 32.1314C32.8314 31.8313 33 31.4243 33 31V26.2" stroke="#F1F1F1" stroke-width="1.48516" stroke-linecap="round" stroke-linejoin="round"/>
<path fill-rule="evenodd" clip-rule="evenodd" d="M15.1091 13.2546H11.9072C11.7158 13.2546 11.5256 13.2238 11.344 13.1632C10.1909 12.7789 9 13.6372 9 14.8527V28.6995C9 29.4408 9.21944 30.1656 9.63068 30.7825C10.3271 31.8271 11.4996 32.4546 12.7551 32.4546H31.4373C32.1099 32.4546 32.7071 32.0242 32.9198 31.3861C32.9729 31.2268 33 31.0599 33 30.892V25.9092V21.3152C33 20.1192 32.3243 19.0259 31.2545 18.491L30.9999 18.3637C30.0862 17.9068 29.5091 16.973 29.5091 15.9515C29.5091 14.4621 28.3017 13.2546 26.8122 13.2546H15.1091ZM27.5127 24.7407C27.365 26.1772 27.2169 27.6182 27.6654 28.9637L27.4353 28.9148C26.0118 28.6119 24.545 28.7225 23.0778 28.8332C22.3014 28.8917 21.5248 28.9503 20.7546 28.9476C20.2642 28.9459 19.7722 28.8975 19.2869 28.8013C17.6612 28.4793 16.2225 27.6434 15.2381 26.4492C14.2537 25.2549 13.7907 23.7835 13.9352 22.3086C14.0796 20.8337 14.8218 19.4556 16.0235 18.4306C17.2253 17.4055 18.805 16.8033 20.4688 16.7358C22.1326 16.6683 23.7674 17.1403 25.0692 18.0638C26.371 18.9873 27.2512 20.2997 27.5461 21.7568C27.6327 22.1847 27.6671 22.6165 27.6508 23.0452C27.6294 23.6055 27.5711 24.1728 27.5127 24.7407Z" fill="#F1F1F1"/>
</svg>
