<svg width="325" height="663" viewBox="0 0 325 663" fill="none" xmlns="http://www.w3.org/2000/svg">
<g opacity="0.2">
<path d="M3.45832 6.47178C5.05534 6.47178 6.34999 5.179 6.34999 3.58428C6.34999 1.98956 5.05534 0.696777 3.45832 0.696777C1.86129 0.696777 0.56665 1.98956 0.56665 3.58428C0.56665 5.179 1.86129 6.47178 3.45832 6.47178Z" fill="#0E0E0E"/>
<path d="M32.3749 6.47178C33.972 6.47178 35.2666 5.179 35.2666 3.58428C35.2666 1.98956 33.972 0.696777 32.3749 0.696777C30.7779 0.696777 29.4833 1.98956 29.4833 3.58428C29.4833 5.179 30.7779 6.47178 32.3749 6.47178Z" fill="#6C6C6C"/>
<path d="M61.2917 6.47178C62.8887 6.47178 64.1834 5.179 64.1834 3.58428C64.1834 1.98956 62.8887 0.696777 61.2917 0.696777C59.6947 0.696777 58.4 1.98956 58.4 3.58428C58.4 5.179 59.6947 6.47178 61.2917 6.47178Z" fill="#F7F7F6"/>
<path d="M90.2083 6.47178C91.8054 6.47178 93.1 5.179 93.1 3.58428C93.1 1.98956 91.8054 0.696777 90.2083 0.696777C88.6113 0.696777 87.3167 1.98956 87.3167 3.58428C87.3167 5.179 88.6113 6.47178 90.2083 6.47178Z" fill="#050505"/>
<path d="M119.125 6.47178C120.722 6.47178 122.017 5.179 122.017 3.58428C122.017 1.98956 120.722 0.696777 119.125 0.696777C117.528 0.696777 116.233 1.98956 116.233 3.58428C116.233 5.179 117.528 6.47178 119.125 6.47178Z" fill="#E7E7E5"/>
<path d="M148.042 6.47178C149.639 6.47178 150.933 5.179 150.933 3.58428C150.933 1.98956 149.639 0.696777 148.042 0.696777C146.445 0.696777 145.15 1.98956 145.15 3.58428C145.15 5.179 146.445 6.47178 148.042 6.47178Z" fill="#DDDDDC"/>
<path d="M176.958 6.47178C178.555 6.47178 179.85 5.179 179.85 3.58428C179.85 1.98956 178.555 0.696777 176.958 0.696777C175.361 0.696777 174.067 1.98956 174.067 3.58428C174.067 5.179 175.361 6.47178 176.958 6.47178Z" fill="#E7E7E6"/>
<path d="M205.875 6.47178C207.472 6.47178 208.767 5.179 208.767 3.58428C208.767 1.98956 207.472 0.696777 205.875 0.696777C204.278 0.696777 202.983 1.98956 202.983 3.58428C202.983 5.179 204.278 6.47178 205.875 6.47178Z" fill="#EDEDED"/>
<path d="M234.792 6.47178C236.389 6.47178 237.683 5.179 237.683 3.58428C237.683 1.98956 236.389 0.696777 234.792 0.696777C233.195 0.696777 231.9 1.98956 231.9 3.58428C231.9 5.179 233.195 6.47178 234.792 6.47178Z" fill="#D5D5D5"/>
<path d="M263.708 6.47178C265.305 6.47178 266.6 5.179 266.6 3.58428C266.6 1.98956 265.305 0.696777 263.708 0.696777C262.111 0.696777 260.817 1.98956 260.817 3.58428C260.817 5.179 262.111 6.47178 263.708 6.47178Z" fill="#AEAEAE"/>
<path d="M292.625 6.47178C294.222 6.47178 295.517 5.179 295.517 3.58428C295.517 1.98956 294.222 0.696777 292.625 0.696777C291.028 0.696777 289.733 1.98956 289.733 3.58428C289.733 5.179 291.028 6.47178 292.625 6.47178Z" fill="#FCFCFC"/>
<path d="M321.542 6.47178C323.139 6.47178 324.433 5.179 324.433 3.58428C324.433 1.98956 323.139 0.696777 321.542 0.696777C319.945 0.696777 318.65 1.98956 318.65 3.58428C318.65 5.179 319.945 6.47178 321.542 6.47178Z" fill="#F7F7F7"/>
<path d="M3.45832 35.3468C5.05534 35.3468 6.34999 34.054 6.34999 32.4593C6.34999 30.8646 5.05534 29.5718 3.45832 29.5718C1.86129 29.5718 0.56665 30.8646 0.56665 32.4593C0.56665 34.054 1.86129 35.3468 3.45832 35.3468Z" fill="#787878"/>
<path d="M32.3749 35.3468C33.972 35.3468 35.2666 34.054 35.2666 32.4593C35.2666 30.8646 33.972 29.5718 32.3749 29.5718C30.7779 29.5718 29.4833 30.8646 29.4833 32.4593C29.4833 34.054 30.7779 35.3468 32.3749 35.3468Z" fill="#F2F2F2"/>
<path d="M61.2917 35.3468C62.8887 35.3468 64.1834 34.054 64.1834 32.4593C64.1834 30.8646 62.8887 29.5718 61.2917 29.5718C59.6947 29.5718 58.4 30.8646 58.4 32.4593C58.4 34.054 59.6947 35.3468 61.2917 35.3468Z" fill="#E2E2E0"/>
<path d="M90.2083 35.3468C91.8054 35.3468 93.1 34.054 93.1 32.4593C93.1 30.8646 91.8054 29.5718 90.2083 29.5718C88.6113 29.5718 87.3167 30.8646 87.3167 32.4593C87.3167 34.054 88.6113 35.3468 90.2083 35.3468Z" fill="#848484"/>
<path d="M119.125 35.3468C120.722 35.3468 122.017 34.054 122.017 32.4593C122.017 30.8646 120.722 29.5718 119.125 29.5718C117.528 29.5718 116.233 30.8646 116.233 32.4593C116.233 34.054 117.528 35.3468 119.125 35.3468Z" fill="#0D0D0D"/>
<path d="M148.042 35.3468C149.639 35.3468 150.933 34.054 150.933 32.4593C150.933 30.8646 149.639 29.5718 148.042 29.5718C146.445 29.5718 145.15 30.8646 145.15 32.4593C145.15 34.054 146.445 35.3468 148.042 35.3468Z" fill="#4E4E4E"/>
<path d="M176.958 35.3468C178.555 35.3468 179.85 34.054 179.85 32.4593C179.85 30.8646 178.555 29.5718 176.958 29.5718C175.361 29.5718 174.067 30.8646 174.067 32.4593C174.067 34.054 175.361 35.3468 176.958 35.3468Z" fill="#DEDEDC"/>
<path d="M205.875 35.3468C207.472 35.3468 208.767 34.054 208.767 32.4593C208.767 30.8646 207.472 29.5718 205.875 29.5718C204.278 29.5718 202.983 30.8646 202.983 32.4593C202.983 34.054 204.278 35.3468 205.875 35.3468Z" fill="#E7E7E6"/>
<path d="M234.792 35.3468C236.389 35.3468 237.683 34.054 237.683 32.4593C237.683 30.8646 236.389 29.5718 234.792 29.5718C233.195 29.5718 231.9 30.8646 231.9 32.4593C231.9 34.054 233.195 35.3468 234.792 35.3468Z" fill="#E3E3E2"/>
<path d="M263.708 35.3468C265.305 35.3468 266.6 34.054 266.6 32.4593C266.6 30.8646 265.305 29.5718 263.708 29.5718C262.111 29.5718 260.817 30.8646 260.817 32.4593C260.817 34.054 262.111 35.3468 263.708 35.3468Z" fill="#F2F2F1"/>
<path d="M292.625 35.3468C294.222 35.3468 295.517 34.054 295.517 32.4593C295.517 30.8646 294.222 29.5718 292.625 29.5718C291.028 29.5718 289.733 30.8646 289.733 32.4593C289.733 34.054 291.028 35.3468 292.625 35.3468Z" fill="#E4E4E2"/>
<path d="M321.542 35.3468C323.139 35.3468 324.433 34.054 324.433 32.4593C324.433 30.8646 323.139 29.5718 321.542 29.5718C319.945 29.5718 318.65 30.8646 318.65 32.4593C318.65 34.054 319.945 35.3468 321.542 35.3468Z" fill="#F5F5F4"/>
<path d="M3.45832 64.2218C5.05534 64.2218 6.34999 62.929 6.34999 61.3343C6.34999 59.7396 5.05534 58.4468 3.45832 58.4468C1.86129 58.4468 0.56665 59.7396 0.56665 61.3343C0.56665 62.929 1.86129 64.2218 3.45832 64.2218Z" fill="#8A8A8A"/>
<path d="M32.3749 64.2218C33.972 64.2218 35.2666 62.929 35.2666 61.3343C35.2666 59.7396 33.972 58.4468 32.3749 58.4468C30.7779 58.4468 29.4833 59.7396 29.4833 61.3343C29.4833 62.929 30.7779 64.2218 32.3749 64.2218Z" fill="#E4E4E4"/>
<path d="M61.2917 64.2218C62.8887 64.2218 64.1834 62.929 64.1834 61.3343C64.1834 59.7396 62.8887 58.4468 61.2917 58.4468C59.6947 58.4468 58.4 59.7396 58.4 61.3343C58.4 62.929 59.6947 64.2218 61.2917 64.2218Z" fill="#E1E1E0"/>
<path d="M90.2083 64.2218C91.8054 64.2218 93.1 62.929 93.1 61.3343C93.1 59.7396 91.8054 58.4468 90.2083 58.4468C88.6113 58.4468 87.3167 59.7396 87.3167 61.3343C87.3167 62.929 88.6113 64.2218 90.2083 64.2218Z" fill="#EFEFEE"/>
<path d="M119.125 64.2218C120.722 64.2218 122.017 62.929 122.017 61.3343C122.017 59.7396 120.722 58.4468 119.125 58.4468C117.528 58.4468 116.233 59.7396 116.233 61.3343C116.233 62.929 117.528 64.2218 119.125 64.2218Z" fill="#FAFAFA"/>
<path d="M148.042 64.2218C149.639 64.2218 150.933 62.929 150.933 61.3343C150.933 59.7396 149.639 58.4468 148.042 58.4468C146.445 58.4468 145.15 59.7396 145.15 61.3343C145.15 62.929 146.445 64.2218 148.042 64.2218Z" fill="white"/>
<path d="M176.958 64.2218C178.555 64.2218 179.85 62.929 179.85 61.3343C179.85 59.7396 178.555 58.4468 176.958 58.4468C175.361 58.4468 174.067 59.7396 174.067 61.3343C174.067 62.929 175.361 64.2218 176.958 64.2218Z" fill="#212121"/>
<path d="M205.875 64.2218C207.472 64.2218 208.767 62.929 208.767 61.3343C208.767 59.7396 207.472 58.4468 205.875 58.4468C204.278 58.4468 202.983 59.7396 202.983 61.3343C202.983 62.929 204.278 64.2218 205.875 64.2218Z" fill="#FEFEFE"/>
<path d="M234.792 64.2218C236.389 64.2218 237.683 62.929 237.683 61.3343C237.683 59.7396 236.389 58.4468 234.792 58.4468C233.195 58.4468 231.9 59.7396 231.9 61.3343C231.9 62.929 233.195 64.2218 234.792 64.2218Z" fill="#DEDEDC"/>
<path d="M263.708 64.2218C265.305 64.2218 266.6 62.929 266.6 61.3343C266.6 59.7396 265.305 58.4468 263.708 58.4468C262.111 58.4468 260.817 59.7396 260.817 61.3343C260.817 62.929 262.111 64.2218 263.708 64.2218Z" fill="#1D1D1D"/>
<path d="M292.625 64.2218C294.222 64.2218 295.517 62.929 295.517 61.3343C295.517 59.7396 294.222 58.4468 292.625 58.4468C291.028 58.4468 289.733 59.7396 289.733 61.3343C289.733 62.929 291.028 64.2218 292.625 64.2218Z" fill="#F4F4F4"/>
<path d="M321.542 64.2218C323.139 64.2218 324.433 62.929 324.433 61.3343C324.433 59.7396 323.139 58.4468 321.542 58.4468C319.945 58.4468 318.65 59.7396 318.65 61.3343C318.65 62.929 319.945 64.2218 321.542 64.2218Z" fill="#E5E5E4"/>
<path d="M3.45832 93.0968C5.05534 93.0968 6.34999 91.804 6.34999 90.2093C6.34999 88.6146 5.05534 87.3218 3.45832 87.3218C1.86129 87.3218 0.56665 88.6146 0.56665 90.2093C0.56665 91.804 1.86129 93.0968 3.45832 93.0968Z" fill="#DBDBD9"/>
<path d="M32.3749 93.0968C33.972 93.0968 35.2666 91.804 35.2666 90.2093C35.2666 88.6146 33.972 87.3218 32.3749 87.3218C30.7779 87.3218 29.4833 88.6146 29.4833 90.2093C29.4833 91.804 30.7779 93.0968 32.3749 93.0968Z" fill="#656565"/>
<path d="M61.2917 93.0968C62.8887 93.0968 64.1834 91.804 64.1834 90.2093C64.1834 88.6146 62.8887 87.3218 61.2917 87.3218C59.6947 87.3218 58.4 88.6146 58.4 90.2093C58.4 91.804 59.6947 93.0968 61.2917 93.0968Z" fill="#717171"/>
<path d="M90.2083 93.0968C91.8054 93.0968 93.1 91.804 93.1 90.2093C93.1 88.6146 91.8054 87.3218 90.2083 87.3218C88.6113 87.3218 87.3167 88.6146 87.3167 90.2093C87.3167 91.804 88.6113 93.0968 90.2083 93.0968Z" fill="#FCFCFC"/>
<path d="M119.125 93.0968C120.722 93.0968 122.017 91.804 122.017 90.2093C122.017 88.6146 120.722 87.3218 119.125 87.3218C117.528 87.3218 116.233 88.6146 116.233 90.2093C116.233 91.804 117.528 93.0968 119.125 93.0968Z" fill="#E1E1DF"/>
<path d="M148.042 93.0968C149.639 93.0968 150.933 91.804 150.933 90.2093C150.933 88.6146 149.639 87.3218 148.042 87.3218C146.445 87.3218 145.15 88.6146 145.15 90.2093C145.15 91.804 146.445 93.0968 148.042 93.0968Z" fill="#A9A9A9"/>
<path d="M176.958 93.0968C178.555 93.0968 179.85 91.804 179.85 90.2093C179.85 88.6146 178.555 87.3218 176.958 87.3218C175.361 87.3218 174.067 88.6146 174.067 90.2093C174.067 91.804 175.361 93.0968 176.958 93.0968Z" fill="#E3E3E1"/>
<path d="M205.875 93.0968C207.472 93.0968 208.767 91.804 208.767 90.2093C208.767 88.6146 207.472 87.3218 205.875 87.3218C204.278 87.3218 202.983 88.6146 202.983 90.2093C202.983 91.804 204.278 93.0968 205.875 93.0968Z" fill="#636363"/>
<path d="M234.792 93.0968C236.389 93.0968 237.683 91.804 237.683 90.2093C237.683 88.6146 236.389 87.3218 234.792 87.3218C233.195 87.3218 231.9 88.6146 231.9 90.2093C231.9 91.804 233.195 93.0968 234.792 93.0968Z" fill="#EAEAE9"/>
<path d="M263.708 93.0968C265.305 93.0968 266.6 91.804 266.6 90.2093C266.6 88.6146 265.305 87.3218 263.708 87.3218C262.111 87.3218 260.817 88.6146 260.817 90.2093C260.817 91.804 262.111 93.0968 263.708 93.0968Z" fill="#ECECEB"/>
<path d="M292.625 93.0968C294.222 93.0968 295.517 91.804 295.517 90.2093C295.517 88.6146 294.222 87.3218 292.625 87.3218C291.028 87.3218 289.733 88.6146 289.733 90.2093C289.733 91.804 291.028 93.0968 292.625 93.0968Z" fill="#F9F9F9"/>
<path d="M321.542 93.0968C323.139 93.0968 324.433 91.804 324.433 90.2093C324.433 88.6146 323.139 87.3218 321.542 87.3218C319.945 87.3218 318.65 88.6146 318.65 90.2093C318.65 91.804 319.945 93.0968 321.542 93.0968Z" fill="#1F1F1F"/>
<path d="M3.45832 121.972C5.05534 121.972 6.34999 120.679 6.34999 119.084C6.34999 117.49 5.05534 116.197 3.45832 116.197C1.86129 116.197 0.56665 117.49 0.56665 119.084C0.56665 120.679 1.86129 121.972 3.45832 121.972Z" fill="#F7F7F6"/>
<path d="M32.3749 121.972C33.972 121.972 35.2666 120.679 35.2666 119.084C35.2666 117.49 33.972 116.197 32.3749 116.197C30.7779 116.197 29.4833 117.49 29.4833 119.084C29.4833 120.679 30.7779 121.972 32.3749 121.972Z" fill="#BCBCBC"/>
<path d="M61.2917 121.972C62.8887 121.972 64.1834 120.679 64.1834 119.084C64.1834 117.49 62.8887 116.197 61.2917 116.197C59.6947 116.197 58.4 117.49 58.4 119.084C58.4 120.679 59.6947 121.972 61.2917 121.972Z" fill="#EAEAE9"/>
<path d="M90.2083 121.972C91.8054 121.972 93.1 120.679 93.1 119.084C93.1 117.49 91.8054 116.197 90.2083 116.197C88.6113 116.197 87.3167 117.49 87.3167 119.084C87.3167 120.679 88.6113 121.972 90.2083 121.972Z" fill="#0B0B0B"/>
<path d="M119.125 121.972C120.722 121.972 122.017 120.679 122.017 119.084C122.017 117.49 120.722 116.197 119.125 116.197C117.528 116.197 116.233 117.49 116.233 119.084C116.233 120.679 117.528 121.972 119.125 121.972Z" fill="#F6F6F5"/>
<path d="M148.042 121.972C149.639 121.972 150.933 120.679 150.933 119.084C150.933 117.49 149.639 116.197 148.042 116.197C146.445 116.197 145.15 117.49 145.15 119.084C145.15 120.679 146.445 121.972 148.042 121.972Z" fill="#C2C2C2"/>
<path d="M176.958 121.972C178.555 121.972 179.85 120.679 179.85 119.084C179.85 117.49 178.555 116.197 176.958 116.197C175.361 116.197 174.067 117.49 174.067 119.084C174.067 120.679 175.361 121.972 176.958 121.972Z" fill="#7D7D7D"/>
<path d="M205.875 121.972C207.472 121.972 208.767 120.679 208.767 119.084C208.767 117.49 207.472 116.197 205.875 116.197C204.278 116.197 202.983 117.49 202.983 119.084C202.983 120.679 204.278 121.972 205.875 121.972Z" fill="#F0F0F0"/>
<path d="M234.792 121.972C236.389 121.972 237.683 120.679 237.683 119.084C237.683 117.49 236.389 116.197 234.792 116.197C233.195 116.197 231.9 117.49 231.9 119.084C231.9 120.679 233.195 121.972 234.792 121.972Z" fill="#9F9F9F"/>
<path d="M263.708 121.972C265.305 121.972 266.6 120.679 266.6 119.084C266.6 117.49 265.305 116.197 263.708 116.197C262.111 116.197 260.817 117.49 260.817 119.084C260.817 120.679 262.111 121.972 263.708 121.972Z" fill="#969696"/>
<path d="M292.625 121.972C294.222 121.972 295.517 120.679 295.517 119.084C295.517 117.49 294.222 116.197 292.625 116.197C291.028 116.197 289.733 117.49 289.733 119.084C289.733 120.679 291.028 121.972 292.625 121.972Z" fill="#E4E4E2"/>
<path d="M321.542 121.972C323.139 121.972 324.433 120.679 324.433 119.084C324.433 117.49 323.139 116.197 321.542 116.197C319.945 116.197 318.65 117.49 318.65 119.084C318.65 120.679 319.945 121.972 321.542 121.972Z" fill="#E7E7E5"/>
<path d="M3.45832 150.847C5.05534 150.847 6.34999 149.554 6.34999 147.959C6.34999 146.365 5.05534 145.072 3.45832 145.072C1.86129 145.072 0.56665 146.365 0.56665 147.959C0.56665 149.554 1.86129 150.847 3.45832 150.847Z" fill="#EDEDEC"/>
<path d="M32.3749 150.847C33.972 150.847 35.2666 149.554 35.2666 147.959C35.2666 146.365 33.972 145.072 32.3749 145.072C30.7779 145.072 29.4833 146.365 29.4833 147.959C29.4833 149.554 30.7779 150.847 32.3749 150.847Z" fill="#8D8D8D"/>
<path d="M61.2917 150.847C62.8887 150.847 64.1834 149.554 64.1834 147.959C64.1834 146.365 62.8887 145.072 61.2917 145.072C59.6947 145.072 58.4 146.365 58.4 147.959C58.4 149.554 59.6947 150.847 61.2917 150.847Z" fill="#F1F1F0"/>
<path d="M90.2083 150.847C91.8054 150.847 93.1 149.554 93.1 147.959C93.1 146.365 91.8054 145.072 90.2083 145.072C88.6113 145.072 87.3167 146.365 87.3167 147.959C87.3167 149.554 88.6113 150.847 90.2083 150.847Z" fill="#ECECEB"/>
<path d="M119.125 150.847C120.722 150.847 122.017 149.554 122.017 147.959C122.017 146.365 120.722 145.072 119.125 145.072C117.528 145.072 116.233 146.365 116.233 147.959C116.233 149.554 117.528 150.847 119.125 150.847Z" fill="#919191"/>
<path d="M148.042 150.847C149.639 150.847 150.933 149.554 150.933 147.959C150.933 146.365 149.639 145.072 148.042 145.072C146.445 145.072 145.15 146.365 145.15 147.959C145.15 149.554 146.445 150.847 148.042 150.847Z" fill="#B2B2B2"/>
<path d="M176.958 150.847C178.555 150.847 179.85 149.554 179.85 147.959C179.85 146.365 178.555 145.072 176.958 145.072C175.361 145.072 174.067 146.365 174.067 147.959C174.067 149.554 175.361 150.847 176.958 150.847Z" fill="#171717"/>
<path d="M205.875 150.847C207.472 150.847 208.767 149.554 208.767 147.959C208.767 146.365 207.472 145.072 205.875 145.072C204.278 145.072 202.983 146.365 202.983 147.959C202.983 149.554 204.278 150.847 205.875 150.847Z" fill="#010101"/>
<path d="M234.792 150.847C236.389 150.847 237.683 149.554 237.683 147.959C237.683 146.365 236.389 145.072 234.792 145.072C233.195 145.072 231.9 146.365 231.9 147.959C231.9 149.554 233.195 150.847 234.792 150.847Z" fill="#080808"/>
<path d="M263.708 150.847C265.305 150.847 266.6 149.554 266.6 147.959C266.6 146.365 265.305 145.072 263.708 145.072C262.111 145.072 260.817 146.365 260.817 147.959C260.817 149.554 262.111 150.847 263.708 150.847Z" fill="#EFEFEE"/>
<path d="M292.625 150.847C294.222 150.847 295.517 149.554 295.517 147.959C295.517 146.365 294.222 145.072 292.625 145.072C291.028 145.072 289.733 146.365 289.733 147.959C289.733 149.554 291.028 150.847 292.625 150.847Z" fill="#FEFEFE"/>
<path d="M321.542 150.847C323.139 150.847 324.433 149.554 324.433 147.959C324.433 146.365 323.139 145.072 321.542 145.072C319.945 145.072 318.65 146.365 318.65 147.959C318.65 149.554 319.945 150.847 321.542 150.847Z" fill="#E2E2E1"/>
<path d="M3.45832 179.722C5.05534 179.722 6.34999 178.429 6.34999 176.834C6.34999 175.24 5.05534 173.947 3.45832 173.947C1.86129 173.947 0.56665 175.24 0.56665 176.834C0.56665 178.429 1.86129 179.722 3.45832 179.722Z" fill="#787878"/>
<path d="M32.3749 179.722C33.972 179.722 35.2666 178.429 35.2666 176.834C35.2666 175.24 33.972 173.947 32.3749 173.947C30.7779 173.947 29.4833 175.24 29.4833 176.834C29.4833 178.429 30.7779 179.722 32.3749 179.722Z" fill="#9F9F9F"/>
<path d="M61.2917 179.722C62.8887 179.722 64.1834 178.429 64.1834 176.834C64.1834 175.24 62.8887 173.947 61.2917 173.947C59.6947 173.947 58.4 175.24 58.4 176.834C58.4 178.429 59.6947 179.722 61.2917 179.722Z" fill="#F3F3F2"/>
<path d="M90.2083 179.722C91.8054 179.722 93.1 178.429 93.1 176.834C93.1 175.24 91.8054 173.947 90.2083 173.947C88.6113 173.947 87.3167 175.24 87.3167 176.834C87.3167 178.429 88.6113 179.722 90.2083 179.722Z" fill="#FAFAF9"/>
<path d="M119.125 179.722C120.722 179.722 122.017 178.429 122.017 176.834C122.017 175.24 120.722 173.947 119.125 173.947C117.528 173.947 116.233 175.24 116.233 176.834C116.233 178.429 117.528 179.722 119.125 179.722Z" fill="#F2F2F1"/>
<path d="M148.042 179.722C149.639 179.722 150.933 178.429 150.933 176.834C150.933 175.24 149.639 173.947 148.042 173.947C146.445 173.947 145.15 175.24 145.15 176.834C145.15 178.429 146.445 179.722 148.042 179.722Z" fill="#DBDBD9"/>
<path d="M176.958 179.722C178.555 179.722 179.85 178.429 179.85 176.834C179.85 175.24 178.555 173.947 176.958 173.947C175.361 173.947 174.067 175.24 174.067 176.834C174.067 178.429 175.361 179.722 176.958 179.722Z" fill="#9D9D9D"/>
<path d="M205.875 179.722C207.472 179.722 208.767 178.429 208.767 176.834C208.767 175.24 207.472 173.947 205.875 173.947C204.278 173.947 202.983 175.24 202.983 176.834C202.983 178.429 204.278 179.722 205.875 179.722Z" fill="#D0D0D0"/>
<path d="M234.792 179.722C236.389 179.722 237.683 178.429 237.683 176.834C237.683 175.24 236.389 173.947 234.792 173.947C233.195 173.947 231.9 175.24 231.9 176.834C231.9 178.429 233.195 179.722 234.792 179.722Z" fill="#454545"/>
<path d="M263.708 179.722C265.305 179.722 266.6 178.429 266.6 176.834C266.6 175.24 265.305 173.947 263.708 173.947C262.111 173.947 260.817 175.24 260.817 176.834C260.817 178.429 262.111 179.722 263.708 179.722Z" fill="#7A7A7A"/>
<path d="M292.625 179.722C294.222 179.722 295.517 178.429 295.517 176.834C295.517 175.24 294.222 173.947 292.625 173.947C291.028 173.947 289.733 175.24 289.733 176.834C289.733 178.429 291.028 179.722 292.625 179.722Z" fill="#E4E4E2"/>
<path d="M321.542 179.722C323.139 179.722 324.433 178.429 324.433 176.834C324.433 175.24 323.139 173.947 321.542 173.947C319.945 173.947 318.65 175.24 318.65 176.834C318.65 178.429 319.945 179.722 321.542 179.722Z" fill="#AAAAAA"/>
<path d="M3.45832 208.597C5.05534 208.597 6.34999 207.304 6.34999 205.709C6.34999 204.115 5.05534 202.822 3.45832 202.822C1.86129 202.822 0.56665 204.115 0.56665 205.709C0.56665 207.304 1.86129 208.597 3.45832 208.597Z" fill="#A5A5A5"/>
<path d="M32.3749 208.597C33.972 208.597 35.2666 207.304 35.2666 205.709C35.2666 204.115 33.972 202.822 32.3749 202.822C30.7779 202.822 29.4833 204.115 29.4833 205.709C29.4833 207.304 30.7779 208.597 32.3749 208.597Z" fill="#696969"/>
<path d="M61.2917 208.597C62.8887 208.597 64.1834 207.304 64.1834 205.709C64.1834 204.115 62.8887 202.822 61.2917 202.822C59.6947 202.822 58.4 204.115 58.4 205.709C58.4 207.304 59.6947 208.597 61.2917 208.597Z" fill="#FCFCFC"/>
<path d="M90.2083 208.597C91.8054 208.597 93.1 207.304 93.1 205.709C93.1 204.115 91.8054 202.822 90.2083 202.822C88.6113 202.822 87.3167 204.115 87.3167 205.709C87.3167 207.304 88.6113 208.597 90.2083 208.597Z" fill="#393939"/>
<path d="M119.125 208.597C120.722 208.597 122.017 207.304 122.017 205.709C122.017 204.115 120.722 202.822 119.125 202.822C117.528 202.822 116.233 204.115 116.233 205.709C116.233 207.304 117.528 208.597 119.125 208.597Z" fill="#1E1E1E"/>
<path d="M148.042 208.597C149.639 208.597 150.933 207.304 150.933 205.709C150.933 204.115 149.639 202.822 148.042 202.822C146.445 202.822 145.15 204.115 145.15 205.709C145.15 207.304 146.445 208.597 148.042 208.597Z" fill="#303030"/>
<path d="M176.958 208.597C178.555 208.597 179.85 207.304 179.85 205.709C179.85 204.115 178.555 202.822 176.958 202.822C175.361 202.822 174.067 204.115 174.067 205.709C174.067 207.304 175.361 208.597 176.958 208.597Z" fill="#6A6A6A"/>
<path d="M205.875 208.597C207.472 208.597 208.767 207.304 208.767 205.709C208.767 204.115 207.472 202.822 205.875 202.822C204.278 202.822 202.983 204.115 202.983 205.709C202.983 207.304 204.278 208.597 205.875 208.597Z" fill="#E6E6E5"/>
<path d="M234.792 208.597C236.389 208.597 237.683 207.304 237.683 205.709C237.683 204.115 236.389 202.822 234.792 202.822C233.195 202.822 231.9 204.115 231.9 205.709C231.9 207.304 233.195 208.597 234.792 208.597Z" fill="#DDDDDD"/>
<path d="M263.708 208.597C265.305 208.597 266.6 207.304 266.6 205.709C266.6 204.115 265.305 202.822 263.708 202.822C262.111 202.822 260.817 204.115 260.817 205.709C260.817 207.304 262.111 208.597 263.708 208.597Z" fill="#F4F4F3"/>
<path d="M292.625 208.597C294.222 208.597 295.517 207.304 295.517 205.709C295.517 204.115 294.222 202.822 292.625 202.822C291.028 202.822 289.733 204.115 289.733 205.709C289.733 207.304 291.028 208.597 292.625 208.597Z" fill="#F4F4F4"/>
<path d="M321.542 208.597C323.139 208.597 324.433 207.304 324.433 205.709C324.433 204.115 323.139 202.822 321.542 202.822C319.945 202.822 318.65 204.115 318.65 205.709C318.65 207.304 319.945 208.597 321.542 208.597Z" fill="#191919"/>
<path d="M3.45832 237.472C5.05534 237.472 6.34999 236.179 6.34999 234.584C6.34999 232.99 5.05534 231.697 3.45832 231.697C1.86129 231.697 0.56665 232.99 0.56665 234.584C0.56665 236.179 1.86129 237.472 3.45832 237.472Z" fill="#0E0E0E"/>
<path d="M32.3749 237.472C33.972 237.472 35.2666 236.179 35.2666 234.584C35.2666 232.99 33.972 231.697 32.3749 231.697C30.7779 231.697 29.4833 232.99 29.4833 234.584C29.4833 236.179 30.7779 237.472 32.3749 237.472Z" fill="#6C6C6C"/>
<path d="M61.2917 237.472C62.8887 237.472 64.1834 236.179 64.1834 234.584C64.1834 232.99 62.8887 231.697 61.2917 231.697C59.6947 231.697 58.4 232.99 58.4 234.584C58.4 236.179 59.6947 237.472 61.2917 237.472Z" fill="#F7F7F6"/>
<path d="M90.2083 237.472C91.8054 237.472 93.1 236.179 93.1 234.584C93.1 232.99 91.8054 231.697 90.2083 231.697C88.6113 231.697 87.3167 232.99 87.3167 234.584C87.3167 236.179 88.6113 237.472 90.2083 237.472Z" fill="#050505"/>
<path d="M119.125 237.472C120.722 237.472 122.017 236.179 122.017 234.584C122.017 232.99 120.722 231.697 119.125 231.697C117.528 231.697 116.233 232.99 116.233 234.584C116.233 236.179 117.528 237.472 119.125 237.472Z" fill="#E7E7E5"/>
<path d="M148.042 237.472C149.639 237.472 150.933 236.179 150.933 234.584C150.933 232.99 149.639 231.697 148.042 231.697C146.445 231.697 145.15 232.99 145.15 234.584C145.15 236.179 146.445 237.472 148.042 237.472Z" fill="#DDDDDC"/>
<path d="M176.958 237.472C178.555 237.472 179.85 236.179 179.85 234.584C179.85 232.99 178.555 231.697 176.958 231.697C175.361 231.697 174.067 232.99 174.067 234.584C174.067 236.179 175.361 237.472 176.958 237.472Z" fill="#E7E7E6"/>
<path d="M205.875 237.472C207.472 237.472 208.767 236.179 208.767 234.584C208.767 232.99 207.472 231.697 205.875 231.697C204.278 231.697 202.983 232.99 202.983 234.584C202.983 236.179 204.278 237.472 205.875 237.472Z" fill="#EDEDED"/>
<path d="M234.792 237.472C236.389 237.472 237.683 236.179 237.683 234.584C237.683 232.99 236.389 231.697 234.792 231.697C233.195 231.697 231.9 232.99 231.9 234.584C231.9 236.179 233.195 237.472 234.792 237.472Z" fill="#D5D5D5"/>
<path d="M263.708 237.472C265.305 237.472 266.6 236.179 266.6 234.584C266.6 232.99 265.305 231.697 263.708 231.697C262.111 231.697 260.817 232.99 260.817 234.584C260.817 236.179 262.111 237.472 263.708 237.472Z" fill="#AEAEAE"/>
<path d="M292.625 237.472C294.222 237.472 295.517 236.179 295.517 234.584C295.517 232.99 294.222 231.697 292.625 231.697C291.028 231.697 289.733 232.99 289.733 234.584C289.733 236.179 291.028 237.472 292.625 237.472Z" fill="#FCFCFC"/>
<path d="M321.542 237.472C323.139 237.472 324.433 236.179 324.433 234.584C324.433 232.99 323.139 231.697 321.542 231.697C319.945 231.697 318.65 232.99 318.65 234.584C318.65 236.179 319.945 237.472 321.542 237.472Z" fill="#F7F7F7"/>
<path d="M3.45832 266.347C5.05534 266.347 6.34999 265.054 6.34999 263.459C6.34999 261.865 5.05534 260.572 3.45832 260.572C1.86129 260.572 0.56665 261.865 0.56665 263.459C0.56665 265.054 1.86129 266.347 3.45832 266.347Z" fill="#787878"/>
<path d="M32.3749 266.347C33.972 266.347 35.2666 265.054 35.2666 263.459C35.2666 261.865 33.972 260.572 32.3749 260.572C30.7779 260.572 29.4833 261.865 29.4833 263.459C29.4833 265.054 30.7779 266.347 32.3749 266.347Z" fill="#F2F2F2"/>
<path d="M61.2917 266.347C62.8887 266.347 64.1834 265.054 64.1834 263.459C64.1834 261.865 62.8887 260.572 61.2917 260.572C59.6947 260.572 58.4 261.865 58.4 263.459C58.4 265.054 59.6947 266.347 61.2917 266.347Z" fill="#E2E2E0"/>
<path d="M90.2083 266.347C91.8054 266.347 93.1 265.054 93.1 263.459C93.1 261.865 91.8054 260.572 90.2083 260.572C88.6113 260.572 87.3167 261.865 87.3167 263.459C87.3167 265.054 88.6113 266.347 90.2083 266.347Z" fill="#848484"/>
<path d="M119.125 266.347C120.722 266.347 122.017 265.054 122.017 263.459C122.017 261.865 120.722 260.572 119.125 260.572C117.528 260.572 116.233 261.865 116.233 263.459C116.233 265.054 117.528 266.347 119.125 266.347Z" fill="#0D0D0D"/>
<path d="M148.042 266.347C149.639 266.347 150.933 265.054 150.933 263.459C150.933 261.865 149.639 260.572 148.042 260.572C146.445 260.572 145.15 261.865 145.15 263.459C145.15 265.054 146.445 266.347 148.042 266.347Z" fill="#4E4E4E"/>
<path d="M176.958 266.347C178.555 266.347 179.85 265.054 179.85 263.459C179.85 261.865 178.555 260.572 176.958 260.572C175.361 260.572 174.067 261.865 174.067 263.459C174.067 265.054 175.361 266.347 176.958 266.347Z" fill="#DEDEDC"/>
<path d="M205.875 266.347C207.472 266.347 208.767 265.054 208.767 263.459C208.767 261.865 207.472 260.572 205.875 260.572C204.278 260.572 202.983 261.865 202.983 263.459C202.983 265.054 204.278 266.347 205.875 266.347Z" fill="#E7E7E6"/>
<path d="M234.792 266.347C236.389 266.347 237.683 265.054 237.683 263.459C237.683 261.865 236.389 260.572 234.792 260.572C233.195 260.572 231.9 261.865 231.9 263.459C231.9 265.054 233.195 266.347 234.792 266.347Z" fill="#E3E3E2"/>
<path d="M263.708 266.347C265.305 266.347 266.6 265.054 266.6 263.459C266.6 261.865 265.305 260.572 263.708 260.572C262.111 260.572 260.817 261.865 260.817 263.459C260.817 265.054 262.111 266.347 263.708 266.347Z" fill="#F2F2F1"/>
<path d="M292.625 266.347C294.222 266.347 295.517 265.054 295.517 263.459C295.517 261.865 294.222 260.572 292.625 260.572C291.028 260.572 289.733 261.865 289.733 263.459C289.733 265.054 291.028 266.347 292.625 266.347Z" fill="#E4E4E2"/>
<path d="M321.542 266.347C323.139 266.347 324.433 265.054 324.433 263.459C324.433 261.865 323.139 260.572 321.542 260.572C319.945 260.572 318.65 261.865 318.65 263.459C318.65 265.054 319.945 266.347 321.542 266.347Z" fill="#F5F5F4"/>
<path d="M3.45832 295.222C5.05534 295.222 6.34999 293.929 6.34999 292.334C6.34999 290.74 5.05534 289.447 3.45832 289.447C1.86129 289.447 0.56665 290.74 0.56665 292.334C0.56665 293.929 1.86129 295.222 3.45832 295.222Z" fill="#8A8A8A"/>
<path d="M32.3749 295.222C33.972 295.222 35.2666 293.929 35.2666 292.334C35.2666 290.74 33.972 289.447 32.3749 289.447C30.7779 289.447 29.4833 290.74 29.4833 292.334C29.4833 293.929 30.7779 295.222 32.3749 295.222Z" fill="#E4E4E4"/>
<path d="M61.2917 295.222C62.8887 295.222 64.1834 293.929 64.1834 292.334C64.1834 290.74 62.8887 289.447 61.2917 289.447C59.6947 289.447 58.4 290.74 58.4 292.334C58.4 293.929 59.6947 295.222 61.2917 295.222Z" fill="#E1E1E0"/>
<path d="M90.2083 295.222C91.8054 295.222 93.1 293.929 93.1 292.334C93.1 290.74 91.8054 289.447 90.2083 289.447C88.6113 289.447 87.3167 290.74 87.3167 292.334C87.3167 293.929 88.6113 295.222 90.2083 295.222Z" fill="#EFEFEE"/>
<path d="M119.125 295.222C120.722 295.222 122.017 293.929 122.017 292.334C122.017 290.74 120.722 289.447 119.125 289.447C117.528 289.447 116.233 290.74 116.233 292.334C116.233 293.929 117.528 295.222 119.125 295.222Z" fill="#FAFAFA"/>
<path d="M148.042 295.222C149.639 295.222 150.933 293.929 150.933 292.334C150.933 290.74 149.639 289.447 148.042 289.447C146.445 289.447 145.15 290.74 145.15 292.334C145.15 293.929 146.445 295.222 148.042 295.222Z" fill="white"/>
<path d="M176.958 295.222C178.555 295.222 179.85 293.929 179.85 292.334C179.85 290.74 178.555 289.447 176.958 289.447C175.361 289.447 174.067 290.74 174.067 292.334C174.067 293.929 175.361 295.222 176.958 295.222Z" fill="#212121"/>
<path d="M205.875 295.222C207.472 295.222 208.767 293.929 208.767 292.334C208.767 290.74 207.472 289.447 205.875 289.447C204.278 289.447 202.983 290.74 202.983 292.334C202.983 293.929 204.278 295.222 205.875 295.222Z" fill="#FEFEFE"/>
<path d="M234.792 295.222C236.389 295.222 237.683 293.929 237.683 292.334C237.683 290.74 236.389 289.447 234.792 289.447C233.195 289.447 231.9 290.74 231.9 292.334C231.9 293.929 233.195 295.222 234.792 295.222Z" fill="#DEDEDC"/>
<path d="M263.708 295.222C265.305 295.222 266.6 293.929 266.6 292.334C266.6 290.74 265.305 289.447 263.708 289.447C262.111 289.447 260.817 290.74 260.817 292.334C260.817 293.929 262.111 295.222 263.708 295.222Z" fill="#1D1D1D"/>
<path d="M292.625 295.222C294.222 295.222 295.517 293.929 295.517 292.334C295.517 290.74 294.222 289.447 292.625 289.447C291.028 289.447 289.733 290.74 289.733 292.334C289.733 293.929 291.028 295.222 292.625 295.222Z" fill="#F4F4F4"/>
<path d="M321.542 295.222C323.139 295.222 324.433 293.929 324.433 292.334C324.433 290.74 323.139 289.447 321.542 289.447C319.945 289.447 318.65 290.74 318.65 292.334C318.65 293.929 319.945 295.222 321.542 295.222Z" fill="#E5E5E4"/>
<path d="M3.45832 324.097C5.05534 324.097 6.34999 322.804 6.34999 321.209C6.34999 319.615 5.05534 318.322 3.45832 318.322C1.86129 318.322 0.56665 319.615 0.56665 321.209C0.56665 322.804 1.86129 324.097 3.45832 324.097Z" fill="#DBDBD9"/>
<path d="M32.3749 324.097C33.972 324.097 35.2666 322.804 35.2666 321.209C35.2666 319.615 33.972 318.322 32.3749 318.322C30.7779 318.322 29.4833 319.615 29.4833 321.209C29.4833 322.804 30.7779 324.097 32.3749 324.097Z" fill="#656565"/>
<path d="M61.2917 324.097C62.8887 324.097 64.1834 322.804 64.1834 321.209C64.1834 319.615 62.8887 318.322 61.2917 318.322C59.6947 318.322 58.4 319.615 58.4 321.209C58.4 322.804 59.6947 324.097 61.2917 324.097Z" fill="#717171"/>
<path d="M90.2083 324.097C91.8054 324.097 93.1 322.804 93.1 321.209C93.1 319.615 91.8054 318.322 90.2083 318.322C88.6113 318.322 87.3167 319.615 87.3167 321.209C87.3167 322.804 88.6113 324.097 90.2083 324.097Z" fill="#FCFCFC"/>
<path d="M119.125 324.097C120.722 324.097 122.017 322.804 122.017 321.209C122.017 319.615 120.722 318.322 119.125 318.322C117.528 318.322 116.233 319.615 116.233 321.209C116.233 322.804 117.528 324.097 119.125 324.097Z" fill="#E1E1DF"/>
<path d="M148.042 324.097C149.639 324.097 150.933 322.804 150.933 321.209C150.933 319.615 149.639 318.322 148.042 318.322C146.445 318.322 145.15 319.615 145.15 321.209C145.15 322.804 146.445 324.097 148.042 324.097Z" fill="#A9A9A9"/>
<path d="M176.958 324.097C178.555 324.097 179.85 322.804 179.85 321.209C179.85 319.615 178.555 318.322 176.958 318.322C175.361 318.322 174.067 319.615 174.067 321.209C174.067 322.804 175.361 324.097 176.958 324.097Z" fill="#E3E3E1"/>
<path d="M205.875 324.097C207.472 324.097 208.767 322.804 208.767 321.209C208.767 319.615 207.472 318.322 205.875 318.322C204.278 318.322 202.983 319.615 202.983 321.209C202.983 322.804 204.278 324.097 205.875 324.097Z" fill="#636363"/>
<path d="M234.792 324.097C236.389 324.097 237.683 322.804 237.683 321.209C237.683 319.615 236.389 318.322 234.792 318.322C233.195 318.322 231.9 319.615 231.9 321.209C231.9 322.804 233.195 324.097 234.792 324.097Z" fill="#EAEAE9"/>
<path d="M263.708 324.097C265.305 324.097 266.6 322.804 266.6 321.209C266.6 319.615 265.305 318.322 263.708 318.322C262.111 318.322 260.817 319.615 260.817 321.209C260.817 322.804 262.111 324.097 263.708 324.097Z" fill="#ECECEB"/>
<path d="M292.625 324.097C294.222 324.097 295.517 322.804 295.517 321.209C295.517 319.615 294.222 318.322 292.625 318.322C291.028 318.322 289.733 319.615 289.733 321.209C289.733 322.804 291.028 324.097 292.625 324.097Z" fill="#F9F9F9"/>
<path d="M321.542 324.097C323.139 324.097 324.433 322.804 324.433 321.209C324.433 319.615 323.139 318.322 321.542 318.322C319.945 318.322 318.65 319.615 318.65 321.209C318.65 322.804 319.945 324.097 321.542 324.097Z" fill="#1F1F1F"/>
<path d="M3.45832 352.972C5.05534 352.972 6.34999 351.679 6.34999 350.084C6.34999 348.49 5.05534 347.197 3.45832 347.197C1.86129 347.197 0.56665 348.49 0.56665 350.084C0.56665 351.679 1.86129 352.972 3.45832 352.972Z" fill="#F7F7F6"/>
<path d="M32.3749 352.972C33.972 352.972 35.2666 351.679 35.2666 350.084C35.2666 348.49 33.972 347.197 32.3749 347.197C30.7779 347.197 29.4833 348.49 29.4833 350.084C29.4833 351.679 30.7779 352.972 32.3749 352.972Z" fill="#BCBCBC"/>
<path d="M61.2917 352.972C62.8887 352.972 64.1834 351.679 64.1834 350.084C64.1834 348.49 62.8887 347.197 61.2917 347.197C59.6947 347.197 58.4 348.49 58.4 350.084C58.4 351.679 59.6947 352.972 61.2917 352.972Z" fill="#EAEAE9"/>
<path d="M90.2083 352.972C91.8054 352.972 93.1 351.679 93.1 350.084C93.1 348.49 91.8054 347.197 90.2083 347.197C88.6113 347.197 87.3167 348.49 87.3167 350.084C87.3167 351.679 88.6113 352.972 90.2083 352.972Z" fill="#0B0B0B"/>
<path d="M119.125 352.972C120.722 352.972 122.017 351.679 122.017 350.084C122.017 348.49 120.722 347.197 119.125 347.197C117.528 347.197 116.233 348.49 116.233 350.084C116.233 351.679 117.528 352.972 119.125 352.972Z" fill="#F6F6F5"/>
<path d="M148.042 352.972C149.639 352.972 150.933 351.679 150.933 350.084C150.933 348.49 149.639 347.197 148.042 347.197C146.445 347.197 145.15 348.49 145.15 350.084C145.15 351.679 146.445 352.972 148.042 352.972Z" fill="#C2C2C2"/>
<path d="M176.958 352.972C178.555 352.972 179.85 351.679 179.85 350.084C179.85 348.49 178.555 347.197 176.958 347.197C175.361 347.197 174.067 348.49 174.067 350.084C174.067 351.679 175.361 352.972 176.958 352.972Z" fill="#7D7D7D"/>
<path d="M205.875 352.972C207.472 352.972 208.767 351.679 208.767 350.084C208.767 348.49 207.472 347.197 205.875 347.197C204.278 347.197 202.983 348.49 202.983 350.084C202.983 351.679 204.278 352.972 205.875 352.972Z" fill="#F0F0F0"/>
<path d="M234.792 352.972C236.389 352.972 237.683 351.679 237.683 350.084C237.683 348.49 236.389 347.197 234.792 347.197C233.195 347.197 231.9 348.49 231.9 350.084C231.9 351.679 233.195 352.972 234.792 352.972Z" fill="#9F9F9F"/>
<path d="M263.708 352.972C265.305 352.972 266.6 351.679 266.6 350.084C266.6 348.49 265.305 347.197 263.708 347.197C262.111 347.197 260.817 348.49 260.817 350.084C260.817 351.679 262.111 352.972 263.708 352.972Z" fill="#969696"/>
<path d="M292.625 352.972C294.222 352.972 295.517 351.679 295.517 350.084C295.517 348.49 294.222 347.197 292.625 347.197C291.028 347.197 289.733 348.49 289.733 350.084C289.733 351.679 291.028 352.972 292.625 352.972Z" fill="#E4E4E2"/>
<path d="M321.542 352.972C323.139 352.972 324.433 351.679 324.433 350.084C324.433 348.49 323.139 347.197 321.542 347.197C319.945 347.197 318.65 348.49 318.65 350.084C318.65 351.679 319.945 352.972 321.542 352.972Z" fill="#E7E7E5"/>
<path d="M3.45832 381.847C5.05534 381.847 6.34999 380.554 6.34999 378.959C6.34999 377.365 5.05534 376.072 3.45832 376.072C1.86129 376.072 0.56665 377.365 0.56665 378.959C0.56665 380.554 1.86129 381.847 3.45832 381.847Z" fill="#EDEDEC"/>
<path d="M32.3749 381.847C33.972 381.847 35.2666 380.554 35.2666 378.959C35.2666 377.365 33.972 376.072 32.3749 376.072C30.7779 376.072 29.4833 377.365 29.4833 378.959C29.4833 380.554 30.7779 381.847 32.3749 381.847Z" fill="#8D8D8D"/>
<path d="M61.2917 381.847C62.8887 381.847 64.1834 380.554 64.1834 378.959C64.1834 377.365 62.8887 376.072 61.2917 376.072C59.6947 376.072 58.4 377.365 58.4 378.959C58.4 380.554 59.6947 381.847 61.2917 381.847Z" fill="#F1F1F0"/>
<path d="M90.2083 381.847C91.8054 381.847 93.1 380.554 93.1 378.959C93.1 377.365 91.8054 376.072 90.2083 376.072C88.6113 376.072 87.3167 377.365 87.3167 378.959C87.3167 380.554 88.6113 381.847 90.2083 381.847Z" fill="#ECECEB"/>
<path d="M119.125 381.847C120.722 381.847 122.017 380.554 122.017 378.959C122.017 377.365 120.722 376.072 119.125 376.072C117.528 376.072 116.233 377.365 116.233 378.959C116.233 380.554 117.528 381.847 119.125 381.847Z" fill="#919191"/>
<path d="M148.042 381.847C149.639 381.847 150.933 380.554 150.933 378.959C150.933 377.365 149.639 376.072 148.042 376.072C146.445 376.072 145.15 377.365 145.15 378.959C145.15 380.554 146.445 381.847 148.042 381.847Z" fill="#B2B2B2"/>
<path d="M176.958 381.847C178.555 381.847 179.85 380.554 179.85 378.959C179.85 377.365 178.555 376.072 176.958 376.072C175.361 376.072 174.067 377.365 174.067 378.959C174.067 380.554 175.361 381.847 176.958 381.847Z" fill="#171717"/>
<path d="M205.875 381.847C207.472 381.847 208.767 380.554 208.767 378.959C208.767 377.365 207.472 376.072 205.875 376.072C204.278 376.072 202.983 377.365 202.983 378.959C202.983 380.554 204.278 381.847 205.875 381.847Z" fill="#010101"/>
<path d="M234.792 381.847C236.389 381.847 237.683 380.554 237.683 378.959C237.683 377.365 236.389 376.072 234.792 376.072C233.195 376.072 231.9 377.365 231.9 378.959C231.9 380.554 233.195 381.847 234.792 381.847Z" fill="#080808"/>
<path d="M263.708 381.847C265.305 381.847 266.6 380.554 266.6 378.959C266.6 377.365 265.305 376.072 263.708 376.072C262.111 376.072 260.817 377.365 260.817 378.959C260.817 380.554 262.111 381.847 263.708 381.847Z" fill="#EFEFEE"/>
<path d="M292.625 381.847C294.222 381.847 295.517 380.554 295.517 378.959C295.517 377.365 294.222 376.072 292.625 376.072C291.028 376.072 289.733 377.365 289.733 378.959C289.733 380.554 291.028 381.847 292.625 381.847Z" fill="#FEFEFE"/>
<path d="M321.542 381.847C323.139 381.847 324.433 380.554 324.433 378.959C324.433 377.365 323.139 376.072 321.542 376.072C319.945 376.072 318.65 377.365 318.65 378.959C318.65 380.554 319.945 381.847 321.542 381.847Z" fill="#E2E2E1"/>
<path d="M3.45832 410.722C5.05534 410.722 6.34999 409.429 6.34999 407.834C6.34999 406.24 5.05534 404.947 3.45832 404.947C1.86129 404.947 0.56665 406.24 0.56665 407.834C0.56665 409.429 1.86129 410.722 3.45832 410.722Z" fill="#787878"/>
<path d="M32.3749 410.722C33.972 410.722 35.2666 409.429 35.2666 407.834C35.2666 406.24 33.972 404.947 32.3749 404.947C30.7779 404.947 29.4833 406.24 29.4833 407.834C29.4833 409.429 30.7779 410.722 32.3749 410.722Z" fill="#9F9F9F"/>
<path d="M61.2917 410.722C62.8887 410.722 64.1834 409.429 64.1834 407.834C64.1834 406.24 62.8887 404.947 61.2917 404.947C59.6947 404.947 58.4 406.24 58.4 407.834C58.4 409.429 59.6947 410.722 61.2917 410.722Z" fill="#F3F3F2"/>
<path d="M90.2083 410.722C91.8054 410.722 93.1 409.429 93.1 407.834C93.1 406.24 91.8054 404.947 90.2083 404.947C88.6113 404.947 87.3167 406.24 87.3167 407.834C87.3167 409.429 88.6113 410.722 90.2083 410.722Z" fill="#FAFAF9"/>
<path d="M119.125 410.722C120.722 410.722 122.017 409.429 122.017 407.834C122.017 406.24 120.722 404.947 119.125 404.947C117.528 404.947 116.233 406.24 116.233 407.834C116.233 409.429 117.528 410.722 119.125 410.722Z" fill="#F2F2F1"/>
<path d="M148.042 410.722C149.639 410.722 150.933 409.429 150.933 407.834C150.933 406.24 149.639 404.947 148.042 404.947C146.445 404.947 145.15 406.24 145.15 407.834C145.15 409.429 146.445 410.722 148.042 410.722Z" fill="#DBDBD9"/>
<path d="M176.958 410.722C178.555 410.722 179.85 409.429 179.85 407.834C179.85 406.24 178.555 404.947 176.958 404.947C175.361 404.947 174.067 406.24 174.067 407.834C174.067 409.429 175.361 410.722 176.958 410.722Z" fill="#9D9D9D"/>
<path d="M205.875 410.722C207.472 410.722 208.767 409.429 208.767 407.834C208.767 406.24 207.472 404.947 205.875 404.947C204.278 404.947 202.983 406.24 202.983 407.834C202.983 409.429 204.278 410.722 205.875 410.722Z" fill="#D0D0D0"/>
<path d="M234.792 410.722C236.389 410.722 237.683 409.429 237.683 407.834C237.683 406.24 236.389 404.947 234.792 404.947C233.195 404.947 231.9 406.24 231.9 407.834C231.9 409.429 233.195 410.722 234.792 410.722Z" fill="#454545"/>
<path d="M263.708 410.722C265.305 410.722 266.6 409.429 266.6 407.834C266.6 406.24 265.305 404.947 263.708 404.947C262.111 404.947 260.817 406.24 260.817 407.834C260.817 409.429 262.111 410.722 263.708 410.722Z" fill="#7A7A7A"/>
<path d="M292.625 410.722C294.222 410.722 295.517 409.429 295.517 407.834C295.517 406.24 294.222 404.947 292.625 404.947C291.028 404.947 289.733 406.24 289.733 407.834C289.733 409.429 291.028 410.722 292.625 410.722Z" fill="#E4E4E2"/>
<path d="M321.542 410.722C323.139 410.722 324.433 409.429 324.433 407.834C324.433 406.24 323.139 404.947 321.542 404.947C319.945 404.947 318.65 406.24 318.65 407.834C318.65 409.429 319.945 410.722 321.542 410.722Z" fill="#AAAAAA"/>
<path d="M3.45832 439.597C5.05534 439.597 6.34999 438.304 6.34999 436.709C6.34999 435.115 5.05534 433.822 3.45832 433.822C1.86129 433.822 0.56665 435.115 0.56665 436.709C0.56665 438.304 1.86129 439.597 3.45832 439.597Z" fill="#A5A5A5"/>
<path d="M32.3749 439.597C33.972 439.597 35.2666 438.304 35.2666 436.709C35.2666 435.115 33.972 433.822 32.3749 433.822C30.7779 433.822 29.4833 435.115 29.4833 436.709C29.4833 438.304 30.7779 439.597 32.3749 439.597Z" fill="#696969"/>
<path d="M61.2917 439.597C62.8887 439.597 64.1834 438.304 64.1834 436.709C64.1834 435.115 62.8887 433.822 61.2917 433.822C59.6947 433.822 58.4 435.115 58.4 436.709C58.4 438.304 59.6947 439.597 61.2917 439.597Z" fill="#FCFCFC"/>
<path d="M90.2083 439.597C91.8054 439.597 93.1 438.304 93.1 436.709C93.1 435.115 91.8054 433.822 90.2083 433.822C88.6113 433.822 87.3167 435.115 87.3167 436.709C87.3167 438.304 88.6113 439.597 90.2083 439.597Z" fill="#393939"/>
<path d="M119.125 439.597C120.722 439.597 122.017 438.304 122.017 436.709C122.017 435.115 120.722 433.822 119.125 433.822C117.528 433.822 116.233 435.115 116.233 436.709C116.233 438.304 117.528 439.597 119.125 439.597Z" fill="#1E1E1E"/>
<path d="M148.042 439.597C149.639 439.597 150.933 438.304 150.933 436.709C150.933 435.115 149.639 433.822 148.042 433.822C146.445 433.822 145.15 435.115 145.15 436.709C145.15 438.304 146.445 439.597 148.042 439.597Z" fill="#303030"/>
<path d="M176.958 439.597C178.555 439.597 179.85 438.304 179.85 436.709C179.85 435.115 178.555 433.822 176.958 433.822C175.361 433.822 174.067 435.115 174.067 436.709C174.067 438.304 175.361 439.597 176.958 439.597Z" fill="#6A6A6A"/>
<path d="M205.875 439.597C207.472 439.597 208.767 438.304 208.767 436.709C208.767 435.115 207.472 433.822 205.875 433.822C204.278 433.822 202.983 435.115 202.983 436.709C202.983 438.304 204.278 439.597 205.875 439.597Z" fill="#E6E6E5"/>
<path d="M234.792 439.597C236.389 439.597 237.683 438.304 237.683 436.709C237.683 435.115 236.389 433.822 234.792 433.822C233.195 433.822 231.9 435.115 231.9 436.709C231.9 438.304 233.195 439.597 234.792 439.597Z" fill="#DDDDDD"/>
<path d="M263.708 439.597C265.305 439.597 266.6 438.304 266.6 436.709C266.6 435.115 265.305 433.822 263.708 433.822C262.111 433.822 260.817 435.115 260.817 436.709C260.817 438.304 262.111 439.597 263.708 439.597Z" fill="#F4F4F3"/>
<path d="M292.625 439.597C294.222 439.597 295.517 438.304 295.517 436.709C295.517 435.115 294.222 433.822 292.625 433.822C291.028 433.822 289.733 435.115 289.733 436.709C289.733 438.304 291.028 439.597 292.625 439.597Z" fill="#F4F4F4"/>
<path d="M321.542 439.597C323.139 439.597 324.433 438.304 324.433 436.709C324.433 435.115 323.139 433.822 321.542 433.822C319.945 433.822 318.65 435.115 318.65 436.709C318.65 438.304 319.945 439.597 321.542 439.597Z" fill="#191919"/>
<path d="M3.45832 468.472C5.05534 468.472 6.34999 467.179 6.34999 465.584C6.34999 463.99 5.05534 462.697 3.45832 462.697C1.86129 462.697 0.56665 463.99 0.56665 465.584C0.56665 467.179 1.86129 468.472 3.45832 468.472Z" fill="#0E0E0E"/>
<path d="M32.3749 468.472C33.972 468.472 35.2666 467.179 35.2666 465.584C35.2666 463.99 33.972 462.697 32.3749 462.697C30.7779 462.697 29.4833 463.99 29.4833 465.584C29.4833 467.179 30.7779 468.472 32.3749 468.472Z" fill="#6C6C6C"/>
<path d="M61.2917 468.472C62.8887 468.472 64.1834 467.179 64.1834 465.584C64.1834 463.99 62.8887 462.697 61.2917 462.697C59.6947 462.697 58.4 463.99 58.4 465.584C58.4 467.179 59.6947 468.472 61.2917 468.472Z" fill="#F7F7F6"/>
<path d="M90.2083 468.472C91.8054 468.472 93.1 467.179 93.1 465.584C93.1 463.99 91.8054 462.697 90.2083 462.697C88.6113 462.697 87.3167 463.99 87.3167 465.584C87.3167 467.179 88.6113 468.472 90.2083 468.472Z" fill="#050505"/>
<path d="M119.125 468.472C120.722 468.472 122.017 467.179 122.017 465.584C122.017 463.99 120.722 462.697 119.125 462.697C117.528 462.697 116.233 463.99 116.233 465.584C116.233 467.179 117.528 468.472 119.125 468.472Z" fill="#E7E7E5"/>
<path d="M148.042 468.472C149.639 468.472 150.933 467.179 150.933 465.584C150.933 463.99 149.639 462.697 148.042 462.697C146.445 462.697 145.15 463.99 145.15 465.584C145.15 467.179 146.445 468.472 148.042 468.472Z" fill="#DDDDDC"/>
<path d="M176.958 468.472C178.555 468.472 179.85 467.179 179.85 465.584C179.85 463.99 178.555 462.697 176.958 462.697C175.361 462.697 174.067 463.99 174.067 465.584C174.067 467.179 175.361 468.472 176.958 468.472Z" fill="#E7E7E6"/>
<path d="M205.875 468.472C207.472 468.472 208.767 467.179 208.767 465.584C208.767 463.99 207.472 462.697 205.875 462.697C204.278 462.697 202.983 463.99 202.983 465.584C202.983 467.179 204.278 468.472 205.875 468.472Z" fill="#EDEDED"/>
<path d="M234.792 468.472C236.389 468.472 237.683 467.179 237.683 465.584C237.683 463.99 236.389 462.697 234.792 462.697C233.195 462.697 231.9 463.99 231.9 465.584C231.9 467.179 233.195 468.472 234.792 468.472Z" fill="#D5D5D5"/>
<path d="M263.708 468.472C265.305 468.472 266.6 467.179 266.6 465.584C266.6 463.99 265.305 462.697 263.708 462.697C262.111 462.697 260.817 463.99 260.817 465.584C260.817 467.179 262.111 468.472 263.708 468.472Z" fill="#AEAEAE"/>
<path d="M292.625 468.472C294.222 468.472 295.517 467.179 295.517 465.584C295.517 463.99 294.222 462.697 292.625 462.697C291.028 462.697 289.733 463.99 289.733 465.584C289.733 467.179 291.028 468.472 292.625 468.472Z" fill="#FCFCFC"/>
<path d="M321.542 468.472C323.139 468.472 324.433 467.179 324.433 465.584C324.433 463.99 323.139 462.697 321.542 462.697C319.945 462.697 318.65 463.99 318.65 465.584C318.65 467.179 319.945 468.472 321.542 468.472Z" fill="#F7F7F7"/>
<path d="M3.45832 497.347C5.05534 497.347 6.34999 496.054 6.34999 494.459C6.34999 492.865 5.05534 491.572 3.45832 491.572C1.86129 491.572 0.56665 492.865 0.56665 494.459C0.56665 496.054 1.86129 497.347 3.45832 497.347Z" fill="#787878"/>
<path d="M32.3749 497.347C33.972 497.347 35.2666 496.054 35.2666 494.459C35.2666 492.865 33.972 491.572 32.3749 491.572C30.7779 491.572 29.4833 492.865 29.4833 494.459C29.4833 496.054 30.7779 497.347 32.3749 497.347Z" fill="#F2F2F2"/>
<path d="M61.2917 497.347C62.8887 497.347 64.1834 496.054 64.1834 494.459C64.1834 492.865 62.8887 491.572 61.2917 491.572C59.6947 491.572 58.4 492.865 58.4 494.459C58.4 496.054 59.6947 497.347 61.2917 497.347Z" fill="#E2E2E0"/>
<path d="M90.2083 497.347C91.8054 497.347 93.1 496.054 93.1 494.459C93.1 492.865 91.8054 491.572 90.2083 491.572C88.6113 491.572 87.3167 492.865 87.3167 494.459C87.3167 496.054 88.6113 497.347 90.2083 497.347Z" fill="#848484"/>
<path d="M119.125 497.347C120.722 497.347 122.017 496.054 122.017 494.459C122.017 492.865 120.722 491.572 119.125 491.572C117.528 491.572 116.233 492.865 116.233 494.459C116.233 496.054 117.528 497.347 119.125 497.347Z" fill="#0D0D0D"/>
<path d="M148.042 497.347C149.639 497.347 150.933 496.054 150.933 494.459C150.933 492.865 149.639 491.572 148.042 491.572C146.445 491.572 145.15 492.865 145.15 494.459C145.15 496.054 146.445 497.347 148.042 497.347Z" fill="#4E4E4E"/>
<path d="M176.958 497.347C178.555 497.347 179.85 496.054 179.85 494.459C179.85 492.865 178.555 491.572 176.958 491.572C175.361 491.572 174.067 492.865 174.067 494.459C174.067 496.054 175.361 497.347 176.958 497.347Z" fill="#DEDEDC"/>
<path d="M205.875 497.347C207.472 497.347 208.767 496.054 208.767 494.459C208.767 492.865 207.472 491.572 205.875 491.572C204.278 491.572 202.983 492.865 202.983 494.459C202.983 496.054 204.278 497.347 205.875 497.347Z" fill="#E7E7E6"/>
<path d="M234.792 497.347C236.389 497.347 237.683 496.054 237.683 494.459C237.683 492.865 236.389 491.572 234.792 491.572C233.195 491.572 231.9 492.865 231.9 494.459C231.9 496.054 233.195 497.347 234.792 497.347Z" fill="#E3E3E2"/>
<path d="M263.708 497.347C265.305 497.347 266.6 496.054 266.6 494.459C266.6 492.865 265.305 491.572 263.708 491.572C262.111 491.572 260.817 492.865 260.817 494.459C260.817 496.054 262.111 497.347 263.708 497.347Z" fill="#F2F2F1"/>
<path d="M292.625 497.347C294.222 497.347 295.517 496.054 295.517 494.459C295.517 492.865 294.222 491.572 292.625 491.572C291.028 491.572 289.733 492.865 289.733 494.459C289.733 496.054 291.028 497.347 292.625 497.347Z" fill="#E4E4E2"/>
<path d="M321.542 497.347C323.139 497.347 324.433 496.054 324.433 494.459C324.433 492.865 323.139 491.572 321.542 491.572C319.945 491.572 318.65 492.865 318.65 494.459C318.65 496.054 319.945 497.347 321.542 497.347Z" fill="#F5F5F4"/>
<path d="M3.45832 526.222C5.05534 526.222 6.34999 524.929 6.34999 523.334C6.34999 521.74 5.05534 520.447 3.45832 520.447C1.86129 520.447 0.56665 521.74 0.56665 523.334C0.56665 524.929 1.86129 526.222 3.45832 526.222Z" fill="#8A8A8A"/>
<path d="M32.3749 526.222C33.972 526.222 35.2666 524.929 35.2666 523.334C35.2666 521.74 33.972 520.447 32.3749 520.447C30.7779 520.447 29.4833 521.74 29.4833 523.334C29.4833 524.929 30.7779 526.222 32.3749 526.222Z" fill="#E4E4E4"/>
<path d="M61.2917 526.222C62.8887 526.222 64.1834 524.929 64.1834 523.334C64.1834 521.74 62.8887 520.447 61.2917 520.447C59.6947 520.447 58.4 521.74 58.4 523.334C58.4 524.929 59.6947 526.222 61.2917 526.222Z" fill="#E1E1E0"/>
<path d="M90.2083 526.222C91.8054 526.222 93.1 524.929 93.1 523.334C93.1 521.74 91.8054 520.447 90.2083 520.447C88.6113 520.447 87.3167 521.74 87.3167 523.334C87.3167 524.929 88.6113 526.222 90.2083 526.222Z" fill="#EFEFEE"/>
<path d="M119.125 526.222C120.722 526.222 122.017 524.929 122.017 523.334C122.017 521.74 120.722 520.447 119.125 520.447C117.528 520.447 116.233 521.74 116.233 523.334C116.233 524.929 117.528 526.222 119.125 526.222Z" fill="#FAFAFA"/>
<path d="M148.042 526.222C149.639 526.222 150.933 524.929 150.933 523.334C150.933 521.74 149.639 520.447 148.042 520.447C146.445 520.447 145.15 521.74 145.15 523.334C145.15 524.929 146.445 526.222 148.042 526.222Z" fill="white"/>
<path d="M176.958 526.222C178.555 526.222 179.85 524.929 179.85 523.334C179.85 521.74 178.555 520.447 176.958 520.447C175.361 520.447 174.067 521.74 174.067 523.334C174.067 524.929 175.361 526.222 176.958 526.222Z" fill="#212121"/>
<path d="M205.875 526.222C207.472 526.222 208.767 524.929 208.767 523.334C208.767 521.74 207.472 520.447 205.875 520.447C204.278 520.447 202.983 521.74 202.983 523.334C202.983 524.929 204.278 526.222 205.875 526.222Z" fill="#FEFEFE"/>
<path d="M234.792 526.222C236.389 526.222 237.683 524.929 237.683 523.334C237.683 521.74 236.389 520.447 234.792 520.447C233.195 520.447 231.9 521.74 231.9 523.334C231.9 524.929 233.195 526.222 234.792 526.222Z" fill="#DEDEDC"/>
<path d="M263.708 526.222C265.305 526.222 266.6 524.929 266.6 523.334C266.6 521.74 265.305 520.447 263.708 520.447C262.111 520.447 260.817 521.74 260.817 523.334C260.817 524.929 262.111 526.222 263.708 526.222Z" fill="#1D1D1D"/>
<path d="M292.625 526.222C294.222 526.222 295.517 524.929 295.517 523.334C295.517 521.74 294.222 520.447 292.625 520.447C291.028 520.447 289.733 521.74 289.733 523.334C289.733 524.929 291.028 526.222 292.625 526.222Z" fill="#F4F4F4"/>
<path d="M321.542 526.222C323.139 526.222 324.433 524.929 324.433 523.334C324.433 521.74 323.139 520.447 321.542 520.447C319.945 520.447 318.65 521.74 318.65 523.334C318.65 524.929 319.945 526.222 321.542 526.222Z" fill="#E5E5E4"/>
<path d="M3.45832 555.097C5.05534 555.097 6.34999 553.804 6.34999 552.209C6.34999 550.615 5.05534 549.322 3.45832 549.322C1.86129 549.322 0.56665 550.615 0.56665 552.209C0.56665 553.804 1.86129 555.097 3.45832 555.097Z" fill="#DBDBD9"/>
<path d="M32.3749 555.097C33.972 555.097 35.2666 553.804 35.2666 552.209C35.2666 550.615 33.972 549.322 32.3749 549.322C30.7779 549.322 29.4833 550.615 29.4833 552.209C29.4833 553.804 30.7779 555.097 32.3749 555.097Z" fill="#656565"/>
<path d="M61.2917 555.097C62.8887 555.097 64.1834 553.804 64.1834 552.209C64.1834 550.615 62.8887 549.322 61.2917 549.322C59.6947 549.322 58.4 550.615 58.4 552.209C58.4 553.804 59.6947 555.097 61.2917 555.097Z" fill="#717171"/>
<path d="M90.2083 555.097C91.8054 555.097 93.1 553.804 93.1 552.209C93.1 550.615 91.8054 549.322 90.2083 549.322C88.6113 549.322 87.3167 550.615 87.3167 552.209C87.3167 553.804 88.6113 555.097 90.2083 555.097Z" fill="#FCFCFC"/>
<path d="M119.125 555.097C120.722 555.097 122.017 553.804 122.017 552.209C122.017 550.615 120.722 549.322 119.125 549.322C117.528 549.322 116.233 550.615 116.233 552.209C116.233 553.804 117.528 555.097 119.125 555.097Z" fill="#E1E1DF"/>
<path d="M148.042 555.097C149.639 555.097 150.933 553.804 150.933 552.209C150.933 550.615 149.639 549.322 148.042 549.322C146.445 549.322 145.15 550.615 145.15 552.209C145.15 553.804 146.445 555.097 148.042 555.097Z" fill="#A9A9A9"/>
<path d="M176.958 555.097C178.555 555.097 179.85 553.804 179.85 552.209C179.85 550.615 178.555 549.322 176.958 549.322C175.361 549.322 174.067 550.615 174.067 552.209C174.067 553.804 175.361 555.097 176.958 555.097Z" fill="#E3E3E1"/>
<path d="M205.875 555.097C207.472 555.097 208.767 553.804 208.767 552.209C208.767 550.615 207.472 549.322 205.875 549.322C204.278 549.322 202.983 550.615 202.983 552.209C202.983 553.804 204.278 555.097 205.875 555.097Z" fill="#636363"/>
<path d="M234.792 555.097C236.389 555.097 237.683 553.804 237.683 552.209C237.683 550.615 236.389 549.322 234.792 549.322C233.195 549.322 231.9 550.615 231.9 552.209C231.9 553.804 233.195 555.097 234.792 555.097Z" fill="#EAEAE9"/>
<path d="M263.708 555.097C265.305 555.097 266.6 553.804 266.6 552.209C266.6 550.615 265.305 549.322 263.708 549.322C262.111 549.322 260.817 550.615 260.817 552.209C260.817 553.804 262.111 555.097 263.708 555.097Z" fill="#ECECEB"/>
<path d="M292.625 555.097C294.222 555.097 295.517 553.804 295.517 552.209C295.517 550.615 294.222 549.322 292.625 549.322C291.028 549.322 289.733 550.615 289.733 552.209C289.733 553.804 291.028 555.097 292.625 555.097Z" fill="#F9F9F9"/>
<path d="M321.542 555.097C323.139 555.097 324.433 553.804 324.433 552.209C324.433 550.615 323.139 549.322 321.542 549.322C319.945 549.322 318.65 550.615 318.65 552.209C318.65 553.804 319.945 555.097 321.542 555.097Z" fill="#1F1F1F"/>
<path d="M3.45832 583.972C5.05534 583.972 6.34999 582.679 6.34999 581.084C6.34999 579.49 5.05534 578.197 3.45832 578.197C1.86129 578.197 0.56665 579.49 0.56665 581.084C0.56665 582.679 1.86129 583.972 3.45832 583.972Z" fill="#F7F7F6"/>
<path d="M32.3749 583.972C33.972 583.972 35.2666 582.679 35.2666 581.084C35.2666 579.49 33.972 578.197 32.3749 578.197C30.7779 578.197 29.4833 579.49 29.4833 581.084C29.4833 582.679 30.7779 583.972 32.3749 583.972Z" fill="#BCBCBC"/>
<path d="M61.2917 583.972C62.8887 583.972 64.1834 582.679 64.1834 581.084C64.1834 579.49 62.8887 578.197 61.2917 578.197C59.6947 578.197 58.4 579.49 58.4 581.084C58.4 582.679 59.6947 583.972 61.2917 583.972Z" fill="#EAEAE9"/>
<path d="M90.2083 583.972C91.8054 583.972 93.1 582.679 93.1 581.084C93.1 579.49 91.8054 578.197 90.2083 578.197C88.6113 578.197 87.3167 579.49 87.3167 581.084C87.3167 582.679 88.6113 583.972 90.2083 583.972Z" fill="#0B0B0B"/>
<path d="M119.125 583.972C120.722 583.972 122.017 582.679 122.017 581.084C122.017 579.49 120.722 578.197 119.125 578.197C117.528 578.197 116.233 579.49 116.233 581.084C116.233 582.679 117.528 583.972 119.125 583.972Z" fill="#F6F6F5"/>
<path d="M148.042 583.972C149.639 583.972 150.933 582.679 150.933 581.084C150.933 579.49 149.639 578.197 148.042 578.197C146.445 578.197 145.15 579.49 145.15 581.084C145.15 582.679 146.445 583.972 148.042 583.972Z" fill="#C2C2C2"/>
<path d="M176.958 583.972C178.555 583.972 179.85 582.679 179.85 581.084C179.85 579.49 178.555 578.197 176.958 578.197C175.361 578.197 174.067 579.49 174.067 581.084C174.067 582.679 175.361 583.972 176.958 583.972Z" fill="#7D7D7D"/>
<path d="M205.875 583.972C207.472 583.972 208.767 582.679 208.767 581.084C208.767 579.49 207.472 578.197 205.875 578.197C204.278 578.197 202.983 579.49 202.983 581.084C202.983 582.679 204.278 583.972 205.875 583.972Z" fill="#F0F0F0"/>
<path d="M234.792 583.972C236.389 583.972 237.683 582.679 237.683 581.084C237.683 579.49 236.389 578.197 234.792 578.197C233.195 578.197 231.9 579.49 231.9 581.084C231.9 582.679 233.195 583.972 234.792 583.972Z" fill="#9F9F9F"/>
<path d="M263.708 583.972C265.305 583.972 266.6 582.679 266.6 581.084C266.6 579.49 265.305 578.197 263.708 578.197C262.111 578.197 260.817 579.49 260.817 581.084C260.817 582.679 262.111 583.972 263.708 583.972Z" fill="#969696"/>
<path d="M292.625 583.972C294.222 583.972 295.517 582.679 295.517 581.084C295.517 579.49 294.222 578.197 292.625 578.197C291.028 578.197 289.733 579.49 289.733 581.084C289.733 582.679 291.028 583.972 292.625 583.972Z" fill="#E4E4E2"/>
<path d="M321.542 583.972C323.139 583.972 324.433 582.679 324.433 581.084C324.433 579.49 323.139 578.197 321.542 578.197C319.945 578.197 318.65 579.49 318.65 581.084C318.65 582.679 319.945 583.972 321.542 583.972Z" fill="#E7E7E5"/>
<path d="M3.45832 612.847C5.05534 612.847 6.34999 611.554 6.34999 609.959C6.34999 608.365 5.05534 607.072 3.45832 607.072C1.86129 607.072 0.56665 608.365 0.56665 609.959C0.56665 611.554 1.86129 612.847 3.45832 612.847Z" fill="#EDEDEC"/>
<path d="M32.3749 612.847C33.972 612.847 35.2666 611.554 35.2666 609.959C35.2666 608.365 33.972 607.072 32.3749 607.072C30.7779 607.072 29.4833 608.365 29.4833 609.959C29.4833 611.554 30.7779 612.847 32.3749 612.847Z" fill="#8D8D8D"/>
<path d="M61.2917 612.847C62.8887 612.847 64.1834 611.554 64.1834 609.959C64.1834 608.365 62.8887 607.072 61.2917 607.072C59.6947 607.072 58.4 608.365 58.4 609.959C58.4 611.554 59.6947 612.847 61.2917 612.847Z" fill="#F1F1F0"/>
<path d="M90.2083 612.847C91.8054 612.847 93.1 611.554 93.1 609.959C93.1 608.365 91.8054 607.072 90.2083 607.072C88.6113 607.072 87.3167 608.365 87.3167 609.959C87.3167 611.554 88.6113 612.847 90.2083 612.847Z" fill="#ECECEB"/>
<path d="M119.125 612.847C120.722 612.847 122.017 611.554 122.017 609.959C122.017 608.365 120.722 607.072 119.125 607.072C117.528 607.072 116.233 608.365 116.233 609.959C116.233 611.554 117.528 612.847 119.125 612.847Z" fill="#919191"/>
<path d="M148.042 612.847C149.639 612.847 150.933 611.554 150.933 609.959C150.933 608.365 149.639 607.072 148.042 607.072C146.445 607.072 145.15 608.365 145.15 609.959C145.15 611.554 146.445 612.847 148.042 612.847Z" fill="#B2B2B2"/>
<path d="M176.958 612.847C178.555 612.847 179.85 611.554 179.85 609.959C179.85 608.365 178.555 607.072 176.958 607.072C175.361 607.072 174.067 608.365 174.067 609.959C174.067 611.554 175.361 612.847 176.958 612.847Z" fill="#171717"/>
<path d="M205.875 612.847C207.472 612.847 208.767 611.554 208.767 609.959C208.767 608.365 207.472 607.072 205.875 607.072C204.278 607.072 202.983 608.365 202.983 609.959C202.983 611.554 204.278 612.847 205.875 612.847Z" fill="#010101"/>
<path d="M234.792 612.847C236.389 612.847 237.683 611.554 237.683 609.959C237.683 608.365 236.389 607.072 234.792 607.072C233.195 607.072 231.9 608.365 231.9 609.959C231.9 611.554 233.195 612.847 234.792 612.847Z" fill="#080808"/>
<path d="M263.708 612.847C265.305 612.847 266.6 611.554 266.6 609.959C266.6 608.365 265.305 607.072 263.708 607.072C262.111 607.072 260.817 608.365 260.817 609.959C260.817 611.554 262.111 612.847 263.708 612.847Z" fill="#EFEFEE"/>
<path d="M292.625 612.847C294.222 612.847 295.517 611.554 295.517 609.959C295.517 608.365 294.222 607.072 292.625 607.072C291.028 607.072 289.733 608.365 289.733 609.959C289.733 611.554 291.028 612.847 292.625 612.847Z" fill="#FEFEFE"/>
<path d="M321.542 612.847C323.139 612.847 324.433 611.554 324.433 609.959C324.433 608.365 323.139 607.072 321.542 607.072C319.945 607.072 318.65 608.365 318.65 609.959C318.65 611.554 319.945 612.847 321.542 612.847Z" fill="#E2E2E1"/>
<path d="M3.45832 641.722C5.05534 641.722 6.34999 640.429 6.34999 638.834C6.34999 637.24 5.05534 635.947 3.45832 635.947C1.86129 635.947 0.56665 637.24 0.56665 638.834C0.56665 640.429 1.86129 641.722 3.45832 641.722Z" fill="#787878"/>
<path d="M32.3749 641.722C33.972 641.722 35.2666 640.429 35.2666 638.834C35.2666 637.24 33.972 635.947 32.3749 635.947C30.7779 635.947 29.4833 637.24 29.4833 638.834C29.4833 640.429 30.7779 641.722 32.3749 641.722Z" fill="#9F9F9F"/>
<path d="M61.2917 641.722C62.8887 641.722 64.1834 640.429 64.1834 638.834C64.1834 637.24 62.8887 635.947 61.2917 635.947C59.6947 635.947 58.4 637.24 58.4 638.834C58.4 640.429 59.6947 641.722 61.2917 641.722Z" fill="#F3F3F2"/>
<path d="M90.2083 641.722C91.8054 641.722 93.1 640.429 93.1 638.834C93.1 637.24 91.8054 635.947 90.2083 635.947C88.6113 635.947 87.3167 637.24 87.3167 638.834C87.3167 640.429 88.6113 641.722 90.2083 641.722Z" fill="#FAFAF9"/>
<path d="M119.125 641.722C120.722 641.722 122.017 640.429 122.017 638.834C122.017 637.24 120.722 635.947 119.125 635.947C117.528 635.947 116.233 637.24 116.233 638.834C116.233 640.429 117.528 641.722 119.125 641.722Z" fill="#F2F2F1"/>
<path d="M148.042 641.722C149.639 641.722 150.933 640.429 150.933 638.834C150.933 637.24 149.639 635.947 148.042 635.947C146.445 635.947 145.15 637.24 145.15 638.834C145.15 640.429 146.445 641.722 148.042 641.722Z" fill="#DBDBD9"/>
<path d="M176.958 641.722C178.555 641.722 179.85 640.429 179.85 638.834C179.85 637.24 178.555 635.947 176.958 635.947C175.361 635.947 174.067 637.24 174.067 638.834C174.067 640.429 175.361 641.722 176.958 641.722Z" fill="#9D9D9D"/>
<path d="M205.875 641.722C207.472 641.722 208.767 640.429 208.767 638.834C208.767 637.24 207.472 635.947 205.875 635.947C204.278 635.947 202.983 637.24 202.983 638.834C202.983 640.429 204.278 641.722 205.875 641.722Z" fill="#D0D0D0"/>
<path d="M234.792 641.722C236.389 641.722 237.683 640.429 237.683 638.834C237.683 637.24 236.389 635.947 234.792 635.947C233.195 635.947 231.9 637.24 231.9 638.834C231.9 640.429 233.195 641.722 234.792 641.722Z" fill="#454545"/>
<path d="M263.708 641.722C265.305 641.722 266.6 640.429 266.6 638.834C266.6 637.24 265.305 635.947 263.708 635.947C262.111 635.947 260.817 637.24 260.817 638.834C260.817 640.429 262.111 641.722 263.708 641.722Z" fill="#7A7A7A"/>
<path d="M292.625 641.722C294.222 641.722 295.517 640.429 295.517 638.834C295.517 637.24 294.222 635.947 292.625 635.947C291.028 635.947 289.733 637.24 289.733 638.834C289.733 640.429 291.028 641.722 292.625 641.722Z" fill="#E4E4E2"/>
<path d="M321.542 641.722C323.139 641.722 324.433 640.429 324.433 638.834C324.433 637.24 323.139 635.947 321.542 635.947C319.945 635.947 318.65 637.24 318.65 638.834C318.65 640.429 319.945 641.722 321.542 641.722Z" fill="#AAAAAA"/>
</g>
</svg>
