<svg version="1.1" xmlns="http://www.w3.org/2000/svg"
  xmlns:xlink="http://www.w3.org/1999/xlink" width="400" height="400" viewBox="0, 0, 400,400">
  <g>
    <rect x="10.75" y="10.75" width="380" height="380" rx="60.25" fill="white" stroke="#525252"
      stroke-width="10.5" />
    <path id="path0"
      d="M113.833 92.264 C 113.513 92.301,112.537 92.412,111.667 92.510 C 94.008 94.500,81.070 109.198,81.087 127.250 C 81.116 158.171,119.028 173.471,140.500 151.227 C 155.805 135.372,153.095 110.252,134.750 97.926 C 128.880 93.982,119.920 91.556,113.833 92.264 M279.167 92.334 C 260.605 94.249,247.314 108.747,247.323 127.069 C 247.341 161.825,293.122 174.823,311.446 145.275 C 313.679 141.675,315.126 137.982,316.159 133.250 C 320.850 111.750,301.238 90.057,279.167 92.334 M119.812 95.922 C 142.546 99.202,154.246 124.206,142.163 143.689 C 128.135 166.307,93.124 161.518,85.680 135.961 C 80.291 117.463,92.503 98.503,111.417 96.003 C 112.242 95.893,113.029 95.782,113.167 95.755 C 113.976 95.595,118.297 95.704,119.812 95.922 M287.083 96.061 C 287.725 96.191,288.625 96.376,289.083 96.471 C 308.631 100.547,319.143 123.606,309.653 141.594 C 295.732 167.982,256.114 161.556,251.041 132.087 C 248.098 114.996,260.399 98.274,277.583 96.003 C 278.408 95.893,279.196 95.777,279.333 95.744 C 279.938 95.597,286.022 95.846,287.083 96.061 M193.083 129.852 C 163.971 133.414,151.732 169.092,172.703 189.262 C 190.880 206.745,220.644 200.015,229.508 176.416 C 238.541 152.366,218.497 126.742,193.083 129.852 M113.333 174.266 C 100.161 175.121,87.833 180.081,78.914 188.114 C 67.666 198.243,61.061 209.609,58.011 224.085 C 56.940 229.166,56.194 237.759,56.734 238.802 C 56.984 239.285,62.808 242.234,119.713 270.686 C 154.200 287.930,185.877 303.792,190.107 305.936 C 194.336 308.079,197.988 309.833,198.221 309.833 C 198.455 309.833,207.612 305.371,218.571 299.917 C 229.530 294.464,241.141 288.697,244.374 287.103 C 247.606 285.508,256.925 280.887,265.083 276.833 C 273.242 272.779,283.367 267.754,287.583 265.667 C 291.800 263.580,304.850 257.096,316.583 251.258 C 328.317 245.420,338.532 240.339,339.284 239.965 C 341.353 238.938,341.489 238.186,340.820 231.500 C 336.070 184.024,286.457 158.373,250.765 184.939 C 247.805 187.143,243.110 191.894,242.194 193.614 C 241.654 194.627,242.513 195.833,243.773 195.833 C 244.618 195.833,244.759 195.725,246.231 193.936 C 254.426 183.971,268.274 177.780,282.417 177.757 C 299.959 177.729,316.400 186.804,326.938 202.333 C 333.327 211.749,337.003 222.912,337.596 234.701 L 337.711 236.985 331.814 239.890 C 328.570 241.487,319.804 245.832,312.333 249.544 C 251.335 279.851,256.315 277.405,256.148 277.143 C 256.070 277.018,256.004 276.520,256.003 276.035 C 256.001 275.550,255.924 274.425,255.831 273.535 C 251.509 232.129,217.378 203.900,183.250 213.505 C 158.899 220.359,140.391 244.693,138.077 272.896 C 137.950 274.443,137.814 275.741,137.775 275.781 C 137.695 275.861,64.803 239.403,61.875 237.818 L 60.000 236.804 60.000 236.095 C 60.000 233.708,60.773 227.693,61.520 224.277 C 66.623 200.914,83.850 183.089,105.588 178.681 C 110.239 177.738,117.592 177.408,121.417 177.971 C 134.321 179.870,144.543 185.387,149.989 193.392 C 151.706 195.916,154.522 194.127,152.862 191.568 C 145.961 180.929,128.489 173.282,113.333 174.266 "
      stroke="none" fill="#040404" fill-rule="evenodd"></path>
    <path id="path2"
      d="M115.125 95.789 C 115.515 95.824,116.152 95.824,116.542 95.789 C 116.931 95.754,116.612 95.725,115.833 95.725 C 115.054 95.725,114.735 95.754,115.125 95.789 M281.380 95.789 C 281.818 95.824,282.493 95.823,282.880 95.788 C 283.267 95.754,282.908 95.725,282.083 95.726 C 281.258 95.726,280.942 95.755,281.380 95.789 M257.245 102.375 L 256.250 103.417 257.292 102.422 C 257.865 101.875,258.333 101.406,258.333 101.380 C 258.333 101.257,258.169 101.407,257.245 102.375 M93.244 105.208 L 92.417 106.083 93.292 105.256 C 93.773 104.801,94.167 104.408,94.167 104.381 C 94.167 104.257,94.012 104.395,93.244 105.208 M250.705 125.833 C 250.705 126.154,250.740 126.285,250.782 126.125 C 250.823 125.965,250.823 125.702,250.782 125.542 C 250.740 125.381,250.705 125.513,250.705 125.833 M80.895 127.167 C 80.895 128.129,80.923 128.523,80.956 128.042 C 80.990 127.560,80.990 126.773,80.956 126.292 C 80.923 125.810,80.895 126.204,80.895 127.167 M150.539 126.167 C 150.539 126.487,150.573 126.619,150.615 126.458 C 150.657 126.298,150.657 126.035,150.615 125.875 C 150.573 125.715,150.539 125.846,150.539 126.167 M313.209 126.250 C 313.211 126.617,313.245 126.747,313.285 126.540 C 313.324 126.332,313.323 126.032,313.281 125.873 C 313.239 125.714,313.207 125.883,313.209 126.250 M313.212 127.667 C 313.212 128.079,313.245 128.248,313.284 128.042 C 313.324 127.835,313.324 127.498,313.284 127.292 C 313.245 127.085,313.212 127.254,313.212 127.667 M250.705 128.167 C 250.705 128.487,250.740 128.619,250.782 128.458 C 250.823 128.298,250.823 128.035,250.782 127.875 C 250.740 127.715,250.705 127.846,250.705 128.167 M221.000 139.219 C 221.000 139.248,221.244 139.491,221.542 139.760 L 222.083 140.250 221.594 139.708 C 221.138 139.203,221.000 139.090,221.000 139.219 M303.829 149.292 L 302.750 150.417 303.875 149.338 C 304.920 148.336,305.076 148.167,304.954 148.167 C 304.928 148.167,304.422 148.673,303.829 149.292 M257.167 151.583 C 257.478 151.904,257.770 152.167,257.815 152.167 C 257.861 152.167,257.644 151.904,257.333 151.583 C 257.022 151.262,256.730 151.000,256.685 151.000 C 256.639 151.000,256.856 151.262,257.167 151.583 M306.333 151.750 C 305.928 152.162,305.635 152.500,305.681 152.500 C 305.726 152.500,306.095 152.162,306.500 151.750 C 306.905 151.337,307.199 151.000,307.153 151.000 C 307.107 151.000,306.738 151.337,306.333 151.750 M113.877 177.786 C 114.131 177.825,114.506 177.824,114.711 177.784 C 114.916 177.744,114.708 177.713,114.250 177.714 C 113.792 177.716,113.624 177.748,113.877 177.786 M116.711 177.786 C 116.964 177.825,117.339 177.824,117.544 177.784 C 117.749 177.744,117.542 177.713,117.083 177.714 C 116.625 177.716,116.457 177.748,116.711 177.786 M280.460 177.785 C 280.668 177.824,280.968 177.823,281.127 177.781 C 281.286 177.739,281.117 177.707,280.750 177.709 C 280.383 177.711,280.253 177.745,280.460 177.785 M283.794 177.785 C 284.001 177.824,284.301 177.823,284.460 177.781 C 284.620 177.739,284.450 177.707,284.083 177.709 C 283.717 177.711,283.586 177.745,283.794 177.785 M246.906 188.042 L 246.417 188.583 246.958 188.094 C 247.463 187.638,247.577 187.500,247.448 187.500 C 247.419 187.500,247.175 187.744,246.906 188.042 M222.240 188.208 L 221.750 188.750 222.292 188.260 C 222.797 187.804,222.910 187.667,222.781 187.667 C 222.752 187.667,222.509 187.910,222.240 188.208 M146.500 189.417 C 146.998 189.921,147.443 190.333,147.489 190.333 C 147.534 190.333,147.165 189.921,146.667 189.417 C 146.169 188.912,145.724 188.500,145.678 188.500 C 145.632 188.500,146.002 188.912,146.500 189.417 M172.667 189.385 C 172.667 189.414,172.910 189.658,173.208 189.927 L 173.750 190.417 173.260 189.875 C 172.804 189.370,172.667 189.257,172.667 189.385 M319.750 193.833 C 320.387 194.475,320.945 195.000,320.991 195.000 C 321.037 195.000,320.553 194.475,319.917 193.833 C 319.280 193.192,318.721 192.667,318.676 192.667 C 318.630 192.667,319.113 193.192,319.750 193.833 M243.542 195.948 C 243.702 195.990,243.965 195.990,244.125 195.948 C 244.285 195.906,244.154 195.872,243.833 195.872 C 243.512 195.872,243.381 195.906,243.542 195.948 M196.877 199.286 C 197.131 199.325,197.506 199.324,197.711 199.284 C 197.916 199.244,197.708 199.213,197.250 199.214 C 196.792 199.216,196.624 199.248,196.877 199.286 M194.792 211.618 C 194.998 211.657,195.335 211.657,195.542 211.618 C 195.748 211.578,195.579 211.545,195.167 211.545 C 194.754 211.545,194.585 211.578,194.792 211.618 M197.960 211.618 C 198.168 211.658,198.468 211.656,198.627 211.615 C 198.786 211.573,198.617 211.540,198.250 211.542 C 197.883 211.544,197.753 211.578,197.960 211.618 M159.077 227.542 L 158.250 228.417 159.125 227.590 C 159.938 226.821,160.076 226.667,159.952 226.667 C 159.926 226.667,159.532 227.060,159.077 227.542 M234.250 227.500 C 234.701 227.958,235.108 228.333,235.154 228.333 C 235.200 228.333,234.868 227.958,234.417 227.500 C 233.965 227.042,233.558 226.667,233.513 226.667 C 233.467 226.667,233.799 227.042,234.250 227.500 M157.244 229.375 L 156.417 230.250 157.292 229.423 C 158.105 228.654,158.243 228.500,158.119 228.500 C 158.092 228.500,157.699 228.894,157.244 229.375 M236.167 229.417 C 236.478 229.737,236.770 230.000,236.815 230.000 C 236.861 230.000,236.644 229.737,236.333 229.417 C 236.022 229.096,235.730 228.833,235.685 228.833 C 235.639 228.833,235.856 229.096,236.167 229.417 M337.539 235.833 C 337.539 236.154,337.573 236.285,337.615 236.125 C 337.657 235.965,337.657 235.702,337.615 235.542 C 337.573 235.381,337.539 235.512,337.539 235.833 "
      stroke="none" fill="#9f9f9f" fill-rule="evenodd"></path>
    <path id="path3"
      d="M117.708 95.782 C 117.869 95.823,118.131 95.823,118.292 95.782 C 118.452 95.740,118.321 95.705,118.000 95.705 C 117.679 95.705,117.548 95.740,117.708 95.782 M259.662 104.958 L 258.583 106.083 259.708 105.005 C 260.327 104.412,260.833 103.905,260.833 103.880 C 260.833 103.757,260.664 103.913,259.662 104.958 M303.917 104.833 C 304.368 105.292,304.775 105.667,304.821 105.667 C 304.867 105.667,304.535 105.292,304.083 104.833 C 303.632 104.375,303.225 104.000,303.179 104.000 C 303.133 104.000,303.465 104.375,303.917 104.833 M247.218 126.083 C 247.219 126.633,247.250 126.838,247.287 126.539 C 247.325 126.239,247.324 125.789,247.286 125.539 C 247.248 125.288,247.217 125.533,247.218 126.083 M247.218 128.250 C 247.219 128.800,247.250 129.005,247.287 128.705 C 247.325 128.406,247.324 127.956,247.286 127.705 C 247.248 127.455,247.217 127.700,247.218 128.250 M196.542 129.621 C 196.885 129.657,197.448 129.657,197.792 129.621 C 198.135 129.585,197.854 129.556,197.167 129.556 C 196.479 129.556,196.198 129.585,196.542 129.621 M259.493 148.875 C 260.184 149.611,260.333 149.743,260.333 149.618 C 260.333 149.591,259.977 149.235,259.542 148.826 L 258.750 148.083 259.493 148.875 M137.667 149.250 C 137.262 149.662,136.968 150.000,137.014 150.000 C 137.060 150.000,137.428 149.662,137.833 149.250 C 138.238 148.837,138.532 148.500,138.486 148.500 C 138.440 148.500,138.072 148.837,137.667 149.250 M90.833 151.417 C 91.331 151.921,91.776 152.333,91.822 152.333 C 91.868 152.333,91.498 151.921,91.000 151.417 C 90.502 150.912,90.057 150.500,90.011 150.500 C 89.966 150.500,90.335 150.912,90.833 151.417 M140.075 151.708 L 139.417 152.417 140.125 151.758 C 140.784 151.145,140.910 151.000,140.784 151.000 C 140.757 151.000,140.438 151.319,140.075 151.708 M115.042 158.289 C 115.477 158.324,116.190 158.324,116.625 158.289 C 117.060 158.255,116.704 158.227,115.833 158.227 C 114.962 158.227,114.606 158.255,115.042 158.289 M281.375 158.289 C 281.810 158.324,282.523 158.324,282.958 158.289 C 283.394 158.255,283.037 158.227,282.167 158.227 C 281.296 158.227,280.940 158.255,281.375 158.289 M114.127 161.785 C 114.334 161.824,114.634 161.823,114.794 161.781 C 114.953 161.739,114.783 161.707,114.417 161.709 C 114.050 161.711,113.920 161.745,114.127 161.785 M116.960 161.785 C 117.168 161.824,117.468 161.823,117.627 161.781 C 117.786 161.739,117.617 161.707,117.250 161.709 C 116.883 161.711,116.753 161.745,116.960 161.785 M280.460 161.785 C 280.668 161.824,280.968 161.823,281.127 161.781 C 281.286 161.739,281.117 161.707,280.750 161.709 C 280.383 161.711,280.253 161.745,280.460 161.785 M283.294 161.785 C 283.501 161.824,283.801 161.823,283.960 161.781 C 284.120 161.739,283.950 161.707,283.583 161.709 C 283.217 161.711,283.086 161.745,283.294 161.785 M162.217 163.333 C 162.217 163.837,162.248 164.044,162.286 163.792 C 162.324 163.540,162.324 163.127,162.286 162.875 C 162.248 162.623,162.217 162.829,162.217 163.333 M162.217 165.667 C 162.217 166.171,162.248 166.377,162.286 166.125 C 162.324 165.873,162.324 165.460,162.286 165.208 C 162.248 164.956,162.217 165.162,162.217 165.667 M113.125 174.284 C 113.331 174.324,113.669 174.324,113.875 174.284 C 114.081 174.245,113.912 174.212,113.500 174.212 C 113.087 174.212,112.919 174.245,113.125 174.284 M117.460 174.285 C 117.668 174.324,117.968 174.323,118.127 174.281 C 118.286 174.239,118.117 174.207,117.750 174.209 C 117.383 174.211,117.253 174.245,117.460 174.285 M281.292 174.290 C 281.773 174.323,282.560 174.323,283.042 174.290 C 283.523 174.256,283.129 174.228,282.167 174.228 C 281.204 174.228,280.810 174.256,281.292 174.290 M323.000 192.052 C 323.000 192.081,323.244 192.325,323.542 192.594 L 324.083 193.083 323.594 192.542 C 323.138 192.037,323.000 191.923,323.000 192.052 M77.912 193.708 L 76.750 194.917 77.958 193.754 C 79.081 192.675,79.243 192.500,79.121 192.500 C 79.095 192.500,78.551 193.044,77.912 193.708 M341.045 234.833 C 341.045 235.246,341.078 235.415,341.118 235.208 C 341.157 235.002,341.157 234.665,341.118 234.458 C 341.078 234.252,341.045 234.421,341.045 234.833 M60.048 235.417 C 60.049 235.875,60.081 236.043,60.120 235.789 C 60.158 235.536,60.157 235.161,60.117 234.956 C 60.078 234.751,60.046 234.958,60.048 235.417 "
      stroke="none" fill="#747474" fill-rule="evenodd"></path>
    <path id="path4"
      d="M171.667 188.385 C 171.667 188.414,171.910 188.658,172.208 188.927 L 172.750 189.417 172.260 188.875 C 171.804 188.370,171.667 188.257,171.667 188.385 M196.295 211.621 C 196.594 211.658,197.044 211.657,197.295 211.619 C 197.545 211.581,197.300 211.551,196.750 211.552 C 196.200 211.553,195.995 211.584,196.295 211.621 "
      stroke="none" fill="#7c7c7c" fill-rule="evenodd"></path>
  </g>
</svg>
