<svg version="1.1" xmlns="http://www.w3.org/2000/svg"
  xmlns:xlink="http://www.w3.org/1999/xlink" width="400" height="400" viewBox="0, 0, 400,400">
  <g>
    <rect x="10.75" y="10.75" width="380" height="380" rx="60.25" fill="white" stroke="#525252"
      stroke-width="10.5" />
    <path
      d="M193.917 71.266 C 152.355 73.768,116.285 94.731,94.549 129.017 C 92.963 131.519,92.118 132.946,90.165 136.417 C 65.949 179.461,71.365 236.310,103.386 275.210 C 105.301 277.537,105.238 276.756,103.927 281.885 C 103.337 284.194,102.142 288.896,101.270 292.333 C 100.399 295.771,99.076 300.983,98.331 303.917 C 93.732 322.019,93.889 321.301,94.172 322.866 C 94.874 326.762,99.422 329.553,102.833 328.182 C 103.783 327.801,116.423 322.094,119.141 320.819 C 119.907 320.460,120.558 320.167,120.590 320.167 C 120.621 320.167,121.308 319.859,122.115 319.484 C 122.923 319.108,127.971 316.815,133.333 314.386 C 138.696 311.958,143.717 309.674,144.492 309.311 L 145.901 308.650 146.659 308.978 C 147.076 309.158,148.317 309.713,149.417 310.211 C 197.901 332.163,257.921 319.237,292.917 279.308 C 293.558 278.576,294.199 277.851,294.339 277.697 C 308.116 262.642,319.931 237.442,323.071 216.417 C 326.825 191.272,323.747 166.826,314.173 145.750 C 313.882 145.108,313.407 144.058,313.118 143.417 C 303.076 121.099,284.372 100.637,262.333 87.859 C 253.951 83.000,245.776 79.491,235.104 76.172 C 228.464 74.107,219.081 72.356,210.417 71.566 C 207.913 71.338,196.252 71.126,193.917 71.266 M205.917 84.911 C 239.232 86.808,268.986 102.768,289.129 129.546 C 297.091 140.132,304.140 154.584,307.234 166.667 C 308.489 171.572,309.282 175.201,309.673 177.833 C 311.854 192.535,311.620 204.708,308.894 218.333 C 306.762 228.990,301.391 243.412,296.912 250.507 C 296.686 250.866,296.500 251.197,296.500 251.241 C 296.500 251.286,295.847 252.394,295.050 253.703 C 277.177 283.035,247.214 302.387,213.333 306.482 C 201.339 307.932,186.992 307.289,176.542 304.833 C 176.152 304.742,175.515 304.595,175.125 304.508 C 169.959 303.354,163.764 301.404,158.417 299.250 C 155.047 297.893,154.773 297.772,151.167 296.044 C 146.698 293.902,145.636 293.849,141.917 295.579 C 141.183 295.920,138.671 297.061,136.333 298.114 C 133.996 299.167,131.457 300.322,130.692 300.681 C 129.927 301.040,129.272 301.333,129.236 301.333 C 129.201 301.333,128.375 301.708,127.400 302.167 C 126.426 302.625,125.601 303.000,125.567 303.000 C 125.533 303.000,124.708 303.375,123.734 303.833 C 122.760 304.292,121.935 304.667,121.900 304.667 C 121.866 304.667,121.041 305.042,120.067 305.500 C 119.093 305.958,118.270 306.333,118.238 306.333 C 118.206 306.333,117.483 306.658,116.631 307.055 C 112.963 308.766,111.156 309.545,111.064 309.453 C 110.972 309.361,111.471 307.326,114.502 295.417 C 120.553 271.637,120.417 274.161,115.922 269.000 C 101.373 252.295,91.948 231.036,89.431 209.250 C 88.825 204.007,88.754 202.614,88.754 196.000 C 88.754 189.616,88.832 187.968,89.347 183.417 C 94.481 138.083,126.897 100.432,171.083 88.482 C 182.121 85.497,194.291 84.249,205.917 84.911 M252.000 137.399 C 251.404 137.615,249.679 138.336,248.167 139.002 C 246.654 139.668,244.779 140.492,244.000 140.834 C 243.221 141.175,241.346 142.000,239.833 142.667 C 236.717 144.040,235.401 144.618,231.500 146.324 C 229.987 146.986,228.276 147.746,227.697 148.014 C 227.117 148.281,226.613 148.500,226.576 148.500 C 226.539 148.500,226.038 148.714,225.463 148.976 C 224.887 149.238,223.592 149.810,222.583 150.247 C 221.575 150.684,220.201 151.295,219.529 151.604 C 218.858 151.914,218.282 152.167,218.248 152.167 C 218.215 152.167,217.189 152.608,215.969 153.148 C 214.748 153.688,212.794 154.551,211.625 155.065 C 210.456 155.579,208.581 156.405,207.458 156.899 C 206.335 157.393,204.104 158.373,202.500 159.075 C 200.896 159.778,199.354 160.457,199.074 160.585 C 198.794 160.714,197.969 161.074,197.241 161.387 C 196.512 161.700,194.960 162.379,193.792 162.895 C 192.623 163.411,190.729 164.246,189.583 164.750 C 188.438 165.254,186.563 166.079,185.417 166.583 C 184.271 167.087,182.377 167.917,181.208 168.427 C 180.040 168.937,178.858 169.455,178.583 169.580 C 178.308 169.704,177.146 170.214,176.000 170.713 C 174.854 171.212,173.579 171.773,173.167 171.961 C 172.440 172.291,168.186 174.159,159.917 177.778 C 157.717 178.741,155.443 179.747,154.863 180.014 C 154.284 180.281,153.780 180.500,153.743 180.500 C 153.707 180.500,153.281 180.681,152.797 180.902 C 152.313 181.123,150.679 181.846,149.167 182.508 C 145.033 184.318,143.839 184.842,140.833 186.167 C 139.321 186.833,137.446 187.658,136.667 188.000 C 133.735 189.286,129.883 190.984,128.964 191.397 C 126.174 192.649,125.035 195.472,126.269 198.079 C 127.351 200.364,127.043 200.274,142.956 202.909 C 150.451 204.150,157.183 205.272,157.917 205.403 C 158.650 205.533,159.775 205.724,160.417 205.827 C 161.715 206.035,164.099 206.432,165.500 206.673 C 166.995 206.929,170.513 207.511,171.500 207.665 C 172.004 207.743,173.129 207.930,174.000 208.079 C 174.871 208.228,176.033 208.419,176.583 208.503 C 177.133 208.588,177.987 208.734,178.481 208.828 C 179.900 209.100,180.050 209.063,180.370 208.371 C 180.781 207.482,211.185 177.145,212.083 176.727 C 215.449 175.161,219.456 177.989,219.120 181.694 C 218.956 183.500,219.268 183.157,203.089 199.333 C 188.959 213.462,187.354 214.992,186.205 215.434 C 186.180 215.444,186.232 215.819,186.320 216.267 C 186.407 216.716,186.593 217.833,186.732 218.750 C 186.870 219.667,187.176 221.692,187.412 223.250 C 187.837 226.069,187.915 226.569,188.419 229.750 C 188.823 232.298,188.959 233.182,189.419 236.250 C 189.653 237.808,189.959 239.796,190.097 240.667 C 190.236 241.537,190.419 242.700,190.503 243.250 C 190.721 244.670,191.466 249.547,191.661 250.833 C 191.831 251.950,192.223 254.490,192.497 256.250 C 192.823 258.341,193.183 260.678,193.589 263.333 C 193.821 264.846,194.079 266.533,194.164 267.083 C 194.971 272.346,195.452 273.277,197.825 274.179 C 200.816 275.316,202.974 273.907,204.737 269.667 C 205.176 268.612,205.670 267.450,205.835 267.083 C 206.116 266.458,207.200 263.896,210.910 255.083 C 211.759 253.067,212.606 251.079,212.793 250.667 C 212.979 250.254,213.920 248.042,214.883 245.750 C 217.935 238.486,220.002 233.600,220.240 233.083 C 220.368 232.808,221.083 231.121,221.831 229.333 C 222.579 227.546,223.296 225.858,223.424 225.583 C 223.553 225.308,224.604 222.833,225.760 220.083 C 229.590 210.973,230.950 207.758,231.294 207.000 C 231.481 206.588,232.311 204.637,233.137 202.667 C 234.680 198.989,237.026 193.443,240.329 185.667 C 241.361 183.237,243.013 179.338,244.001 177.000 C 244.988 174.662,246.561 170.950,247.495 168.750 C 250.389 161.937,252.800 156.241,254.434 152.356 C 255.297 150.306,256.112 148.394,256.246 148.106 C 258.096 144.134,258.638 142.289,258.338 140.980 C 257.650 137.978,254.818 136.379,252.000 137.399 "
      stroke="none" fill="#0f0d0f" fill-rule="evenodd"></path>
    <path
      d="M198.375 71.124 C 199.177 71.155,200.490 71.155,201.292 71.124 C 202.094 71.094,201.438 71.069,199.833 71.069 C 198.229 71.069,197.573 71.094,198.375 71.124 M192.708 71.282 C 192.869 71.323,193.131 71.323,193.292 71.282 C 193.452 71.240,193.321 71.205,193.000 71.205 C 192.679 71.205,192.548 71.240,192.708 71.282 M191.708 85.115 C 191.869 85.157,192.131 85.157,192.292 85.115 C 192.452 85.073,192.321 85.039,192.000 85.039 C 191.679 85.039,191.548 85.073,191.708 85.115 M207.542 85.115 C 207.702 85.157,207.965 85.157,208.125 85.115 C 208.285 85.073,208.154 85.039,207.833 85.039 C 207.512 85.039,207.381 85.073,207.542 85.115 M287.917 107.500 C 289.014 108.600,289.949 109.500,289.995 109.500 C 290.041 109.500,289.180 108.600,288.083 107.500 C 286.986 106.400,286.051 105.500,286.005 105.500 C 285.959 105.500,286.820 106.400,287.917 107.500 M274.833 113.885 C 274.833 113.914,275.077 114.158,275.375 114.427 L 275.917 114.917 275.427 114.375 C 274.971 113.870,274.833 113.757,274.833 113.885 M121.497 117.125 L 119.917 118.750 121.542 117.170 C 122.435 116.301,123.167 115.570,123.167 115.545 C 123.167 115.424,122.964 115.616,121.497 117.125 M199.583 188.875 L 189.917 198.583 199.625 188.917 C 208.649 179.932,209.408 179.167,209.291 179.167 C 209.268 179.167,204.899 183.535,199.583 188.875 M310.705 187.667 C 310.705 187.987,310.740 188.119,310.782 187.958 C 310.823 187.798,310.823 187.535,310.782 187.375 C 310.740 187.215,310.705 187.346,310.705 187.667 M75.209 187.917 C 75.211 188.283,75.245 188.414,75.285 188.206 C 75.324 187.999,75.323 187.699,75.281 187.540 C 75.239 187.380,75.207 187.550,75.209 187.917 M213.406 188.875 L 212.917 189.417 213.458 188.927 C 213.963 188.471,214.077 188.333,213.948 188.333 C 213.919 188.333,213.675 188.577,213.406 188.875 M88.872 189.167 C 88.872 189.487,88.906 189.619,88.948 189.458 C 88.990 189.298,88.990 189.035,88.948 188.875 C 88.906 188.715,88.872 188.846,88.872 189.167 M210.079 192.208 L 208.750 193.583 210.125 192.254 C 211.402 191.019,211.576 190.833,211.454 190.833 C 211.429 190.833,210.811 191.452,210.079 192.208 M324.730 193.750 C 324.731 194.850,324.758 195.278,324.790 194.702 C 324.823 194.125,324.823 193.225,324.790 192.702 C 324.757 192.178,324.730 192.650,324.730 193.750 M88.727 194.333 C 88.727 195.204,88.755 195.560,88.789 195.125 C 88.824 194.690,88.824 193.977,88.789 193.542 C 88.755 193.106,88.727 193.463,88.727 194.333 M207.246 195.042 L 205.917 196.417 207.292 195.087 C 208.569 193.853,208.743 193.667,208.621 193.667 C 208.596 193.667,207.977 194.285,207.246 195.042 M311.056 196.000 C 311.056 196.688,311.085 196.969,311.121 196.625 C 311.157 196.281,311.157 195.719,311.121 195.375 C 311.085 195.031,311.056 195.313,311.056 196.000 M88.726 197.750 C 88.725 198.575,88.754 198.934,88.788 198.547 C 88.823 198.160,88.824 197.485,88.789 197.047 C 88.755 196.609,88.726 196.925,88.726 197.750 M196.833 205.458 L 187.917 214.417 196.875 205.501 C 201.802 200.597,205.833 196.565,205.833 196.542 C 205.833 196.425,205.121 197.131,196.833 205.458 M324.730 198.333 C 324.730 199.387,324.757 199.819,324.790 199.292 C 324.823 198.765,324.823 197.902,324.790 197.375 C 324.757 196.848,324.730 197.279,324.730 198.333 M188.413 200.042 L 187.083 201.417 188.458 200.087 C 189.735 198.853,189.909 198.667,189.788 198.667 C 189.763 198.667,189.144 199.285,188.413 200.042 M88.875 202.750 C 88.877 203.117,88.911 203.247,88.951 203.040 C 88.991 202.832,88.990 202.532,88.948 202.373 C 88.906 202.214,88.874 202.383,88.875 202.750 M75.209 204.083 C 75.211 204.450,75.245 204.580,75.285 204.373 C 75.324 204.166,75.323 203.866,75.281 203.706 C 75.239 203.547,75.207 203.717,75.209 204.083 M310.705 204.333 C 310.705 204.654,310.740 204.785,310.782 204.625 C 310.823 204.465,310.823 204.202,310.782 204.042 C 310.740 203.881,310.705 204.012,310.705 204.333 M278.330 274.792 L 276.750 276.417 278.375 274.837 C 279.884 273.369,280.076 273.167,279.955 273.167 C 279.930 273.167,279.199 273.898,278.330 274.792 M199.208 274.615 C 199.369 274.657,199.631 274.657,199.792 274.615 C 199.952 274.573,199.821 274.539,199.500 274.539 C 199.179 274.539,199.048 274.573,199.208 274.615 M193.960 307.118 C 194.168 307.158,194.468 307.156,194.627 307.115 C 194.786 307.073,194.617 307.040,194.250 307.042 C 193.883 307.044,193.753 307.078,193.960 307.118 M204.792 307.118 C 204.998 307.157,205.335 307.157,205.542 307.118 C 205.748 307.078,205.579 307.045,205.167 307.045 C 204.754 307.045,204.585 307.078,204.792 307.118 M195.960 320.951 C 196.168 320.991,196.468 320.990,196.627 320.948 C 196.786 320.906,196.617 320.874,196.250 320.875 C 195.883 320.877,195.753 320.911,195.960 320.951 M202.792 320.951 C 202.998 320.991,203.335 320.991,203.542 320.951 C 203.748 320.911,203.579 320.879,203.167 320.879 C 202.754 320.879,202.585 320.911,202.792 320.951 "
      stroke="none" fill="#9c9c9c" fill-rule="evenodd"></path>
    <path
      d="M193.960 71.285 C 194.168 71.324,194.468 71.323,194.627 71.281 C 194.786 71.239,194.617 71.207,194.250 71.209 C 193.883 71.211,193.753 71.245,193.960 71.285 M205.208 71.282 C 205.369 71.323,205.631 71.323,205.792 71.282 C 205.952 71.240,205.821 71.205,205.500 71.205 C 205.179 71.205,205.048 71.240,205.208 71.282 M198.367 84.791 C 199.164 84.821,200.514 84.821,201.367 84.791 C 202.219 84.761,201.567 84.736,199.917 84.736 C 198.267 84.735,197.569 84.760,198.367 84.791 M111.913 107.375 L 110.583 108.750 111.958 107.421 C 112.715 106.689,113.333 106.071,113.333 106.046 C 113.333 105.924,113.147 106.098,111.913 107.375 M278.250 117.167 C 278.979 117.900,279.613 118.500,279.659 118.500 C 279.705 118.500,279.146 117.900,278.417 117.167 C 277.688 116.433,277.054 115.833,277.008 115.833 C 276.962 115.833,277.521 116.433,278.250 117.167 M88.714 191.750 C 88.716 192.208,88.748 192.376,88.786 192.123 C 88.825 191.869,88.824 191.494,88.784 191.289 C 88.744 191.084,88.713 191.292,88.714 191.750 M75.045 193.167 C 75.045 193.579,75.078 193.748,75.118 193.542 C 75.157 193.335,75.157 192.998,75.118 192.792 C 75.078 192.585,75.045 192.754,75.045 193.167 M311.045 193.167 C 311.045 193.579,311.078 193.748,311.118 193.542 C 311.157 193.335,311.157 192.998,311.118 192.792 C 311.078 192.585,311.045 192.754,311.045 193.167 M125.709 195.917 C 125.711 196.283,125.745 196.414,125.785 196.206 C 125.824 195.999,125.823 195.699,125.781 195.540 C 125.739 195.380,125.707 195.550,125.709 195.917 M311.048 198.917 C 311.049 199.375,311.081 199.543,311.120 199.289 C 311.158 199.036,311.157 198.661,311.117 198.456 C 311.078 198.251,311.046 198.458,311.048 198.917 M75.039 199.167 C 75.039 199.487,75.073 199.619,75.115 199.458 C 75.157 199.298,75.157 199.035,75.115 198.875 C 75.073 198.715,75.039 198.846,75.039 199.167 M88.714 200.250 C 88.716 200.708,88.748 200.876,88.786 200.623 C 88.825 200.369,88.824 199.994,88.784 199.789 C 88.744 199.584,88.713 199.792,88.714 200.250 M288.246 284.208 L 287.083 285.417 288.292 284.254 C 289.414 283.175,289.576 283.000,289.454 283.000 C 289.428 283.000,288.885 283.544,288.246 284.208 M197.129 307.289 C 197.521 307.324,198.121 307.324,198.463 307.288 C 198.804 307.252,198.483 307.223,197.750 307.224 C 197.017 307.224,196.737 307.254,197.129 307.289 M201.121 307.287 C 201.417 307.324,201.942 307.324,202.288 307.288 C 202.634 307.252,202.392 307.222,201.750 307.221 C 201.108 307.221,200.825 307.250,201.121 307.287 M197.955 320.954 C 198.250 320.990,198.775 320.991,199.121 320.955 C 199.467 320.919,199.225 320.889,198.583 320.888 C 197.942 320.887,197.659 320.917,197.955 320.954 M200.542 320.953 C 200.794 320.991,201.206 320.991,201.458 320.953 C 201.710 320.915,201.504 320.883,201.000 320.883 C 200.496 320.883,200.290 320.915,200.542 320.953 "
      stroke="none" fill="#747474" fill-rule="evenodd"></path>
    <path
      d="M210.161 178.292 L 209.250 179.250 210.208 178.339 C 210.735 177.838,211.167 177.407,211.167 177.381 C 211.167 177.257,211.007 177.401,210.161 178.292 M311.039 194.333 C 311.039 194.654,311.073 194.785,311.115 194.625 C 311.157 194.465,311.157 194.202,311.115 194.042 C 311.073 193.881,311.039 194.012,311.039 194.333 M311.039 197.667 C 311.039 197.987,311.073 198.119,311.115 197.958 C 311.157 197.798,311.157 197.535,311.115 197.375 C 311.073 197.215,311.039 197.346,311.039 197.667 M199.375 307.286 C 199.627 307.324,200.040 307.324,200.292 307.286 C 200.544 307.248,200.338 307.217,199.833 307.217 C 199.329 307.217,199.123 307.248,199.375 307.286 "
      stroke="none" fill="#7c7c7c" fill-rule="evenodd"></path>
  </g>
</svg>

