<svg width="47" height="48" viewBox="0 0 47 48" fill="none" xmlns="http://www.w3.org/2000/svg">
<rect x="0.75" y="0.75" width="45.5" height="45.5" rx="6.25" fill="white" stroke="#525252" stroke-width="1.5"/>
<rect x="5.75" y="5.75" width="35.5" height="31.5" rx="4.25" fill="white" stroke="#525252" stroke-width="1.5"/>
<rect x="25" y="9" width="3" height="3" fill="#FF567F"/>
<path d="M34 20H14C13.3096 20 12.75 20.5596 12.75 21.25V23.75C12.75 24.4404 13.3096 25 14 25H34C34.6904 25 35.25 24.4404 35.25 23.75V21.25C35.25 20.5596 34.6904 20 34 20Z" stroke="#525252" stroke-width="1.875" stroke-linecap="round" stroke-linejoin="round"/>
<path d="M24 20V36.25" stroke="#525252" stroke-width="1.875" stroke-linecap="round" stroke-linejoin="round"/>
<path d="M32.75 25V33.75C32.75 34.413 32.4866 35.0489 32.0178 35.5178C31.5489 35.9866 30.913 36.25 30.25 36.25H17.75C17.087 36.25 16.4511 35.9866 15.9822 35.5178C15.5134 35.0489 15.25 34.413 15.25 33.75V25" stroke="#525252" stroke-width="1.875" stroke-linecap="round" stroke-linejoin="round"/>
<path d="M18.375 19.9996C17.5462 19.9996 16.7513 19.6703 16.1653 19.0843C15.5792 18.4982 15.25 17.7034 15.25 16.8746C15.25 16.0458 15.5792 15.2509 16.1653 14.6649C16.7513 14.0788 17.5462 13.7496 18.375 13.7496C19.5809 13.7286 20.7625 14.3136 21.7659 15.4285C22.7693 16.5434 23.5478 18.1363 24 19.9996C24.4522 18.1363 25.2307 16.5434 26.2341 15.4285C27.2375 14.3136 28.4191 13.7286 29.625 13.7496C30.4538 13.7496 31.2487 14.0788 31.8347 14.6649C32.4208 15.2509 32.75 16.0458 32.75 16.8746C32.75 17.7034 32.4208 18.4982 31.8347 19.0843C31.2487 19.6703 30.4538 19.9996 29.625 19.9996" stroke="#525252" stroke-width="1.875" stroke-linecap="round" stroke-linejoin="round"/>
<rect x="8" y="18" width="3" height="3" fill="#D2E030"/>
<rect x="0.75" y="33.75" width="45.5" height="12.5" rx="6.25" fill="#525252" stroke="#525252" stroke-width="1.5"/>
<circle cx="30" cy="3" r="1" fill="#525252"/>
<circle cx="34" cy="3" r="1" fill="#525252"/>
<circle cx="38" cy="3" r="1" fill="#525252"/>
<rect x="37" y="31" width="3" height="3" fill="#5038E3"/>
<path d="M15.003 37.8969L10.0056 43L5.00814 37.8969M5.00814 37.8969C4.67852 37.5662 4.41888 37.1687 4.24557 36.7294C4.07226 36.2901 3.98904 35.8186 4.00116 35.3446C4.01327 34.8706 4.12044 34.4042 4.31594 33.975C4.51143 33.5457 4.79101 33.1629 5.13707 32.8505C5.48312 32.5381 5.88816 32.303 6.32667 32.16C6.76518 32.017 7.22766 31.9691 7.685 32.0194C8.14234 32.0697 8.58462 32.2171 8.984 32.4523C9.38338 32.6875 9.73119 33.0054 10.0056 33.386C10.2811 33.0081 10.6293 32.693 11.0284 32.4603C11.4275 32.2276 11.8689 32.0823 12.325 32.0336C12.781 31.9849 13.2419 32.0337 13.6788 32.1771C14.1157 32.3205 14.5192 32.5553 14.8641 32.8668C15.2089 33.1784 15.4877 33.56 15.6829 33.9877C15.8781 34.4155 15.9856 34.8801 15.9987 35.3527C16.0117 35.8252 15.93 36.2955 15.7587 36.734C15.5873 37.1724 15.3301 37.5697 15.003 37.901" fill="white"/>
<path d="M15.003 37.8969L10.0056 43L5.00814 37.8969M5.00814 37.8969C4.67852 37.5662 4.41888 37.1687 4.24557 36.7294C4.07226 36.2901 3.98904 35.8186 4.00116 35.3446C4.01327 34.8706 4.12044 34.4042 4.31594 33.975C4.51143 33.5457 4.79101 33.1629 5.13707 32.8505C5.48312 32.5381 5.88816 32.303 6.32667 32.16C6.76518 32.017 7.22766 31.9691 7.685 32.0194C8.14234 32.0697 8.58462 32.2171 8.984 32.4523C9.38338 32.6875 9.73119 33.0054 10.0056 33.386C10.2811 33.0081 10.6293 32.693 11.0284 32.4603C11.4275 32.2276 11.8689 32.0823 12.325 32.0336C12.781 31.9849 13.2419 32.0337 13.6788 32.1771C14.1157 32.3205 14.5192 32.5553 14.8641 32.8668C15.2089 33.1784 15.4877 33.56 15.6829 33.9877C15.8781 34.4155 15.9856 34.8801 15.9987 35.3527C16.0117 35.8252 15.93 36.2955 15.7587 36.734C15.5873 37.1724 15.3301 37.5697 15.003 37.901" stroke="#525252" stroke-width="1.5" stroke-linecap="round" stroke-linejoin="round"/>
<path d="M25.2959 35.0469V45H23.2451L19.2461 38.3281V45H17.1953V35.0469H19.2461L23.252 41.7256V35.0469H25.2959ZM29.1309 35.0469V45H27.0801V35.0469H29.1309ZM33.0957 39.2988V40.8984H28.5703V39.2988H33.0957ZM33.5742 35.0469V36.6533H28.5703V35.0469H33.5742ZM39.3506 35.0469V45H37.3066V35.0469H39.3506ZM42.4131 35.0469V36.6533H34.292V35.0469H42.4131Z" fill="white"/>
</svg>
