<svg width="47" height="49" viewBox="0 0 47 49" fill="none" xmlns="http://www.w3.org/2000/svg">
<rect x="0.75" y="0.75" width="45.5" height="45.5" rx="6.25" fill="white" stroke="#525252" stroke-width="1.5"/>
<rect x="24" y="5" width="3" height="3" fill="#FF567F"/>
<path d="M33 14H13C12.3096 14 11.75 14.5596 11.75 15.25V17.75C11.75 18.4404 12.3096 19 13 19H33C33.6904 19 34.25 18.4404 34.25 17.75V15.25C34.25 14.5596 33.6904 14 33 14Z" stroke="#525252" stroke-width="1.875" stroke-linecap="round" stroke-linejoin="round"/>
<path d="M23 14V30.25" stroke="#525252" stroke-width="1.875" stroke-linecap="round" stroke-linejoin="round"/>
<path d="M31.75 19V27.75C31.75 28.413 31.4866 29.0489 31.0178 29.5178C30.5489 29.9866 29.913 30.25 29.25 30.25H16.75C16.087 30.25 15.4511 29.9866 14.9822 29.5178C14.5134 29.0489 14.25 28.413 14.25 27.75V19" stroke="#525252" stroke-width="1.875" stroke-linecap="round" stroke-linejoin="round"/>
<path d="M17.375 13.9996C16.5462 13.9996 15.7513 13.6703 15.1653 13.0843C14.5792 12.4982 14.25 11.7034 14.25 10.8746C14.25 10.0458 14.5792 9.25091 15.1653 8.66486C15.7513 8.07881 16.5462 7.74957 17.375 7.74957C18.5809 7.72856 19.7625 8.31364 20.7659 9.42852C21.7693 10.5434 22.5478 12.1363 23 13.9996C23.4522 12.1363 24.2307 10.5434 25.2341 9.42852C26.2375 8.31364 27.4191 7.72856 28.625 7.74957C29.4538 7.74957 30.2487 8.07881 30.8347 8.66486C31.4208 9.25091 31.75 10.0458 31.75 10.8746C31.75 11.7034 31.4208 12.4982 30.8347 13.0843C30.2487 13.6703 29.4538 13.9996 28.625 13.9996" stroke="#525252" stroke-width="1.875" stroke-linecap="round" stroke-linejoin="round"/>
<rect x="8" y="18" width="3" height="3" fill="#D2E030"/>
<rect x="0.75" y="27.75" width="45.5" height="18.5" rx="6.25" fill="#525252" stroke="#525252" stroke-width="1.5"/>
<circle cx="30" cy="3" r="1" fill="#525252"/>
<circle cx="34" cy="3" r="1" fill="#525252"/>
<circle cx="38" cy="3" r="1" fill="#525252"/>
<rect x="29" y="32" width="3" height="3" fill="#5038E3"/>
<path d="M43.003 29.8969L38.0056 35L33.0081 29.8969M33.0081 29.8969C32.6785 29.5662 32.4189 29.1687 32.2456 28.7294C32.0723 28.2901 31.989 27.8186 32.0012 27.3446C32.0133 26.8706 32.1204 26.4042 32.3159 25.975C32.5114 25.5457 32.791 25.1629 33.1371 24.8505C33.4831 24.5381 33.8882 24.303 34.3267 24.16C34.7652 24.017 35.2277 23.9691 35.685 24.0194C36.1423 24.0697 36.5846 24.2171 36.984 24.4523C37.3834 24.6875 37.7312 25.0054 38.0056 25.386C38.2811 25.0081 38.6293 24.693 39.0284 24.4603C39.4275 24.2276 39.8689 24.0823 40.325 24.0336C40.781 23.9849 41.2419 24.0337 41.6788 24.1771C42.1157 24.3205 42.5192 24.5553 42.8641 24.8668C43.2089 25.1784 43.4877 25.56 43.6829 25.9877C43.8781 26.4155 43.9856 26.8801 43.9987 27.3527C44.0117 27.8252 43.93 28.2955 43.7587 28.734C43.5873 29.1724 43.3301 29.5697 43.003 29.901" fill="white"/>
<path d="M43.003 29.8969L38.0056 35L33.0081 29.8969M33.0081 29.8969C32.6785 29.5662 32.4189 29.1687 32.2456 28.7294C32.0723 28.2901 31.989 27.8186 32.0012 27.3446C32.0133 26.8706 32.1204 26.4042 32.3159 25.975C32.5114 25.5457 32.791 25.1629 33.1371 24.8505C33.4831 24.5381 33.8882 24.303 34.3267 24.16C34.7652 24.017 35.2277 23.9691 35.685 24.0194C36.1423 24.0697 36.5846 24.2171 36.984 24.4523C37.3834 24.6875 37.7312 25.0054 38.0056 25.386C38.2811 25.0081 38.6293 24.693 39.0284 24.4603C39.4275 24.2276 39.8689 24.0823 40.325 24.0336C40.781 23.9849 41.2419 24.0337 41.6788 24.1771C42.1157 24.3205 42.5192 24.5553 42.8641 24.8668C43.2089 25.1784 43.4877 25.56 43.6829 25.9877C43.8781 26.4155 43.9856 26.8801 43.9987 27.3527C44.0117 27.8252 43.93 28.2955 43.7587 28.734C43.5873 29.1724 43.3301 29.5697 43.003 29.901" stroke="#525252" stroke-width="1.5" stroke-linecap="round" stroke-linejoin="round"/>
<path d="M10.9829 28.4688V37H9.2251L5.79736 31.2812V37H4.03955V28.4688H5.79736L9.23096 34.1934V28.4688H10.9829ZM14.27 28.4688V37H12.5122V28.4688H14.27ZM17.6685 32.1133V33.4844H13.7896V32.1133H17.6685ZM18.0786 28.4688V29.8457H13.7896V28.4688H18.0786ZM23.0298 28.4688V37H21.2778V28.4688H23.0298ZM25.6548 28.4688V29.8457H18.6938V28.4688H25.6548ZM28.8052 33.1963L30.1724 32.3125C30.3742 32.179 30.5093 32.0505 30.5776 31.9268C30.646 31.8031 30.6802 31.6647 30.6802 31.5117C30.6802 31.3587 30.6232 31.2171 30.5093 31.0869C30.3953 30.9535 30.2358 30.8867 30.0308 30.8867C29.8843 30.8867 29.7606 30.9209 29.6597 30.9893C29.5588 31.0544 29.4823 31.1423 29.4302 31.2529C29.3813 31.3636 29.3569 31.4873 29.3569 31.624C29.3569 31.7705 29.396 31.9202 29.4741 32.0732C29.5522 32.223 29.658 32.3825 29.7915 32.5518C29.925 32.7178 30.0731 32.8984 30.2358 33.0938L33.5903 37H31.9937L29.2593 33.8359C29.0282 33.5495 28.8263 33.2874 28.6538 33.0498C28.4813 32.8089 28.3462 32.5745 28.2485 32.3467C28.1509 32.1188 28.1021 31.8844 28.1021 31.6436C28.1021 31.2725 28.1818 30.9486 28.3413 30.6719C28.5008 30.3919 28.7254 30.1755 29.0151 30.0225C29.3049 29.8662 29.645 29.7881 30.0356 29.7881C30.4035 29.7881 30.7225 29.8646 30.9927 30.0176C31.2629 30.1673 31.4712 30.3659 31.6177 30.6133C31.7674 30.8607 31.8423 31.1325 31.8423 31.4287C31.8423 31.6501 31.8016 31.8551 31.7202 32.0439C31.6388 32.2295 31.5265 32.402 31.3833 32.5615C31.2401 32.7178 31.0757 32.8626 30.8901 32.9961L29.3325 34.1045C29.2121 34.2152 29.1209 34.3242 29.0591 34.4316C28.9972 34.5391 28.9549 34.6416 28.9321 34.7393C28.9093 34.8337 28.8979 34.9248 28.8979 35.0127C28.8979 35.2015 28.9386 35.3708 29.02 35.5205C29.1014 35.6702 29.2153 35.7874 29.3618 35.8721C29.5083 35.9567 29.6792 35.999 29.8745 35.999C30.1414 35.999 30.4002 35.9404 30.6509 35.8232C30.9015 35.7061 31.1261 35.5384 31.3247 35.3203C31.5233 35.099 31.6812 34.8369 31.7983 34.5342C31.9155 34.2314 31.9741 33.8978 31.9741 33.5332H33.1655C33.1655 33.8978 33.1297 34.2445 33.0581 34.5732C32.9865 34.8988 32.8709 35.2015 32.7114 35.4814C32.5519 35.7581 32.3403 36.0039 32.0767 36.2188C32.0571 36.235 32.0295 36.2594 31.9937 36.292C31.9611 36.3213 31.9334 36.3441 31.9106 36.3604C31.5981 36.611 31.2726 36.7982 30.9341 36.9219C30.5955 37.0423 30.2179 37.1025 29.8013 37.1025C29.326 37.1025 28.9142 37.0163 28.5659 36.8438C28.2209 36.6712 27.9539 36.4336 27.7651 36.1309C27.5796 35.8281 27.4868 35.4814 27.4868 35.0908C27.4868 34.8044 27.5422 34.5553 27.6528 34.3438C27.7668 34.1289 27.923 33.9303 28.1216 33.748C28.3201 33.5658 28.548 33.3818 28.8052 33.1963Z" fill="white"/>
<path d="M12.2461 42.959H10.0723L10.0723 41.5879H12.2461C12.582 41.5879 12.8555 41.5332 13.0664 41.4238C13.2773 41.3105 13.4316 41.1543 13.5293 40.9551C13.627 40.7559 13.6758 40.5312 13.6758 40.2812C13.6758 40.0273 13.627 39.791 13.5293 39.5723C13.4316 39.3535 13.2773 39.1777 13.0664 39.0449C12.8555 38.9121 12.582 38.8457 12.2461 38.8457H10.6816L10.6816 46H8.92383L8.92383 37.4688H12.2461C12.9141 37.4688 13.4863 37.5898 13.9629 37.832C14.4434 38.0703 14.8105 38.4004 15.0645 38.8223C15.3184 39.2441 15.4453 39.7266 15.4453 40.2695C15.4453 40.8203 15.3184 41.2969 15.0645 41.6992C14.8105 42.1016 14.4434 42.4121 13.9629 42.6309C13.4863 42.8496 12.9141 42.959 12.2461 42.959ZM23.666 41.5352V41.9395C23.666 42.5879 23.5781 43.1699 23.4023 43.6855C23.2266 44.2012 22.9785 44.6406 22.6582 45.0039C22.3379 45.3633 21.9551 45.6387 21.5098 45.8301C21.0684 46.0215 20.5781 46.1172 20.0391 46.1172C19.5039 46.1172 19.0137 46.0215 18.5684 45.8301C18.127 45.6387 17.7441 45.3633 17.4199 45.0039C17.0957 44.6406 16.8438 44.2012 16.6641 43.6855C16.4883 43.1699 16.4004 42.5879 16.4004 41.9395V41.5352C16.4004 40.8828 16.4883 40.3008 16.6641 39.7891C16.8398 39.2734 17.0879 38.834 17.4082 38.4707C17.7324 38.1074 18.1152 37.8301 18.5566 37.6387C19.002 37.4473 19.4922 37.3516 20.0273 37.3516C20.5664 37.3516 21.0566 37.4473 21.498 37.6387C21.9434 37.8301 22.3262 38.1074 22.6465 38.4707C22.9707 38.834 23.2207 39.2734 23.3965 39.7891C23.5762 40.3008 23.666 40.8828 23.666 41.5352ZM21.8906 41.9395V41.5234C21.8906 41.0703 21.8496 40.6719 21.7676 40.3281C21.6855 39.9844 21.5645 39.6953 21.4043 39.4609C21.2441 39.2266 21.0488 39.0508 20.8184 38.9336C20.5879 38.8125 20.3242 38.752 20.0273 38.752C19.7305 38.752 19.4668 38.8125 19.2363 38.9336C19.0098 39.0508 18.8164 39.2266 18.6562 39.4609C18.5 39.6953 18.3809 39.9844 18.2988 40.3281C18.2168 40.6719 18.1758 41.0703 18.1758 41.5234V41.9395C18.1758 42.3887 18.2168 42.7871 18.2988 43.1348C18.3809 43.4785 18.502 43.7695 18.6621 44.0078C18.8223 44.2422 19.0176 44.4199 19.248 44.541C19.4785 44.6621 19.7422 44.7227 20.0391 44.7227C20.3359 44.7227 20.5996 44.6621 20.8301 44.541C21.0605 44.4199 21.2539 44.2422 21.4102 44.0078C21.5664 43.7695 21.6855 43.4785 21.7676 43.1348C21.8496 42.7871 21.8906 42.3887 21.8906 41.9395ZM28.2715 38.9277L25.9512 46H24.082L27.252 37.4688H28.4414L28.2715 38.9277ZM30.1992 46L27.873 38.9277L27.6855 37.4688H28.8867L32.0742 46H30.1992ZM30.0938 42.8242V44.2012H25.5879V42.8242H30.0938ZM36.1875 42.959H34.0137V41.5879H36.1875C36.5234 41.5879 36.7969 41.5332 37.0078 41.4238C37.2188 41.3105 37.373 41.1543 37.4707 40.9551C37.5684 40.7559 37.6172 40.5313 37.6172 40.2813C37.6172 40.0273 37.5684 39.791 37.4707 39.5723C37.373 39.3535 37.2188 39.1777 37.0078 39.0449C36.7969 38.9121 36.5234 38.8457 36.1875 38.8457H34.623V46H32.8652V37.4688H36.1875C36.8555 37.4688 37.4277 37.5898 37.9043 37.832C38.3848 38.0703 38.752 38.4004 39.0059 38.8223C39.2598 39.2441 39.3867 39.7266 39.3867 40.2695C39.3867 40.8203 39.2598 41.2969 39.0059 41.6992C38.752 42.1016 38.3848 42.4121 37.9043 42.6309C37.4277 42.8496 36.8555 42.959 36.1875 42.959Z" fill="white"/>
</svg>
