<svg width="26" height="24" viewBox="0 0 26 24" fill="none" xmlns="http://www.w3.org/2000/svg">
<path d="M1 22.5146L2.74576 17.2773C1.23695 15.0458 0.691126 12.4031 1.20978 9.84076C1.72844 7.27837 3.27628 4.97059 5.56552 3.3465C7.85475 1.72241 10.7296 0.892532 13.6555 1.01117C16.5815 1.1298 19.3594 2.18887 21.4728 3.99147C23.5861 5.79407 24.8912 8.21752 25.1453 10.8112C25.3993 13.405 24.5851 15.9924 22.854 18.0926C21.1229 20.1927 18.5928 21.6626 15.7339 22.229C12.8751 22.7953 9.88215 22.4196 7.31159 21.1717L1 22.5146" stroke="#898989" stroke-width="1.37572" stroke-linecap="round" stroke-linejoin="round"/>
<path d="M13.086 11.7715V11.7847" stroke="#898989" stroke-width="1.77508" stroke-linecap="round" stroke-linejoin="round"/>
<path d="M7.7139 11.7715V11.7847" stroke="#898989" stroke-width="1.77508" stroke-linecap="round" stroke-linejoin="round"/>
<path d="M18.4575 11.7715V11.7847" stroke="#898989" stroke-width="1.77508" stroke-linecap="round" stroke-linejoin="round"/>
</svg>
