<svg width="47" height="48" viewBox="0 0 47 48" fill="none" xmlns="http://www.w3.org/2000/svg">
<rect x="0.75" y="0.75" width="45.5" height="45.5" rx="6.25" fill="white" stroke="#525252" stroke-width="1.5"/>
<rect x="6" y="4" width="3" height="3" fill="#FF567F"/>
<path d="M30 13H10C9.30964 13 8.75 13.5596 8.75 14.25V16.75C8.75 17.4404 9.30964 18 10 18H30C30.6904 18 31.25 17.4404 31.25 16.75V14.25C31.25 13.5596 30.6904 13 30 13Z" stroke="#525252" stroke-width="1.875" stroke-linecap="round" stroke-linejoin="round"/>
<path d="M20 13V29.25" stroke="#525252" stroke-width="1.875" stroke-linecap="round" stroke-linejoin="round"/>
<path d="M28.75 18V26.75C28.75 27.413 28.4866 28.0489 28.0178 28.5178C27.5489 28.9866 26.913 29.25 26.25 29.25H13.75C13.087 29.25 12.4511 28.9866 11.9822 28.5178C11.5134 28.0489 11.25 27.413 11.25 26.75V18" stroke="#525252" stroke-width="1.875" stroke-linecap="round" stroke-linejoin="round"/>
<path d="M14.375 12.9996C13.5462 12.9996 12.7513 12.6703 12.1653 12.0843C11.5792 11.4982 11.25 10.7034 11.25 9.87457C11.25 9.04577 11.5792 8.25091 12.1653 7.66486C12.7513 7.07881 13.5462 6.74957 14.375 6.74957C15.5809 6.72856 16.7625 7.31364 17.7659 8.42852C18.7693 9.5434 19.5478 11.1363 20 12.9996C20.4522 11.1363 21.2307 9.5434 22.2341 8.42852C23.2375 7.31364 24.4191 6.72856 25.625 6.74957C26.4538 6.74957 27.2487 7.07881 27.8347 7.66486C28.4208 8.25091 28.75 9.04577 28.75 9.87457C28.75 10.7034 28.4208 11.4982 27.8347 12.0843C27.2487 12.6703 26.4538 12.9996 25.625 12.9996" stroke="#525252" stroke-width="1.875" stroke-linecap="round" stroke-linejoin="round"/>
<rect x="5" y="19" width="3" height="3" fill="#D2E030"/>
<rect x="0.75" y="24.75" width="45.5" height="21.5" rx="6.25" fill="#525252" stroke="#525252" stroke-width="1.5"/>
<circle cx="30" cy="3" r="1" fill="#525252"/>
<circle cx="34" cy="3" r="1" fill="#525252"/>
<circle cx="38" cy="3" r="1" fill="#525252"/>
<rect x="40" y="19" width="3" height="3" fill="#5038E3"/>
<rect x="31" y="5" width="3" height="3" fill="#E3389F"/>
<path d="M42.003 14.8969L37.0056 20L32.0081 14.8969M32.0081 14.8969C31.6785 14.5662 31.4189 14.1687 31.2456 13.7294C31.0723 13.2901 30.989 12.8186 31.0012 12.3446C31.0133 11.8706 31.1204 11.4042 31.3159 10.975C31.5114 10.5457 31.791 10.1629 32.1371 9.85051C32.4831 9.53814 32.8882 9.30304 33.3267 9.16C33.7652 9.01696 34.2277 8.96908 34.685 9.01938C35.1423 9.06968 35.5846 9.21707 35.984 9.45227C36.3834 9.68747 36.7312 10.0054 37.0056 10.386C37.2811 10.0081 37.6293 9.69301 38.0284 9.46031C38.4275 9.2276 38.8689 9.08234 39.325 9.03361C39.781 8.98488 40.2419 9.03374 40.6788 9.17711C41.1157 9.32049 41.5192 9.5553 41.8641 9.86685C42.2089 10.1784 42.4877 10.56 42.6829 10.9877C42.8781 11.4155 42.9856 11.8801 42.9987 12.3527C43.0117 12.8252 42.93 13.2955 42.7587 13.734C42.5873 14.1724 42.3301 14.5697 42.003 14.901" fill="white"/>
<path d="M42.003 14.8969L37.0056 20L32.0081 14.8969M32.0081 14.8969C31.6785 14.5662 31.4189 14.1687 31.2456 13.7294C31.0723 13.2901 30.989 12.8186 31.0012 12.3446C31.0133 11.8706 31.1204 11.4042 31.3159 10.975C31.5114 10.5457 31.791 10.1629 32.1371 9.85051C32.4831 9.53814 32.8882 9.30304 33.3267 9.16C33.7652 9.01696 34.2277 8.96908 34.685 9.01938C35.1423 9.06968 35.5846 9.21707 35.984 9.45227C36.3834 9.68747 36.7312 10.0054 37.0056 10.386C37.2811 10.0081 37.6293 9.69301 38.0284 9.46031C38.4275 9.2276 38.8689 9.08234 39.325 9.03361C39.781 8.98488 40.2419 9.03374 40.6788 9.17711C41.1157 9.32049 41.5192 9.5553 41.8641 9.86685C42.2089 10.1784 42.4877 10.56 42.6829 10.9877C42.8781 11.4155 42.9856 11.8801 42.9987 12.3527C43.0117 12.8252 42.93 13.2955 42.7587 13.734C42.5873 14.1724 42.3301 14.5697 42.003 14.901" stroke="#525252" stroke-width="1.5" stroke-linecap="round" stroke-linejoin="round"/>
<path d="M10.9829 26.4688V35H9.2251L5.79736 29.2812V35H4.03955V26.4688H5.79736L9.23096 32.1934V26.4688H10.9829ZM14.27 26.4688V35H12.5122V26.4688H14.27ZM17.6685 30.1133V31.4844H13.7896V30.1133H17.6685ZM18.0786 26.4688V27.8457H13.7896V26.4688H18.0786ZM23.0298 26.4688V35H21.2778V26.4688H23.0298ZM25.6548 26.4688V27.8457H18.6938V26.4688H25.6548ZM28.8052 31.1963L30.1724 30.3125C30.3742 30.179 30.5093 30.0505 30.5776 29.9268C30.646 29.8031 30.6802 29.6647 30.6802 29.5117C30.6802 29.3587 30.6232 29.2171 30.5093 29.0869C30.3953 28.9535 30.2358 28.8867 30.0308 28.8867C29.8843 28.8867 29.7606 28.9209 29.6597 28.9893C29.5588 29.0544 29.4823 29.1423 29.4302 29.2529C29.3813 29.3636 29.3569 29.4873 29.3569 29.624C29.3569 29.7705 29.396 29.9202 29.4741 30.0732C29.5522 30.223 29.658 30.3825 29.7915 30.5518C29.925 30.7178 30.0731 30.8984 30.2358 31.0938L33.5903 35H31.9937L29.2593 31.8359C29.0282 31.5495 28.8263 31.2874 28.6538 31.0498C28.4813 30.8089 28.3462 30.5745 28.2485 30.3467C28.1509 30.1188 28.1021 29.8844 28.1021 29.6436C28.1021 29.2725 28.1818 28.9486 28.3413 28.6719C28.5008 28.3919 28.7254 28.1755 29.0151 28.0225C29.3049 27.8662 29.645 27.7881 30.0356 27.7881C30.4035 27.7881 30.7225 27.8646 30.9927 28.0176C31.2629 28.1673 31.4712 28.3659 31.6177 28.6133C31.7674 28.8607 31.8423 29.1325 31.8423 29.4287C31.8423 29.6501 31.8016 29.8551 31.7202 30.0439C31.6388 30.2295 31.5265 30.402 31.3833 30.5615C31.2401 30.7178 31.0757 30.8626 30.8901 30.9961L29.3325 32.1045C29.2121 32.2152 29.1209 32.3242 29.0591 32.4316C28.9972 32.5391 28.9549 32.6416 28.9321 32.7393C28.9093 32.8337 28.8979 32.9248 28.8979 33.0127C28.8979 33.2015 28.9386 33.3708 29.02 33.5205C29.1014 33.6702 29.2153 33.7874 29.3618 33.8721C29.5083 33.9567 29.6792 33.999 29.8745 33.999C30.1414 33.999 30.4002 33.9404 30.6509 33.8232C30.9015 33.7061 31.1261 33.5384 31.3247 33.3203C31.5233 33.099 31.6812 32.8369 31.7983 32.5342C31.9155 32.2314 31.9741 31.8978 31.9741 31.5332H33.1655C33.1655 31.8978 33.1297 32.2445 33.0581 32.5732C32.9865 32.8988 32.8709 33.2015 32.7114 33.4814C32.5519 33.7581 32.3403 34.0039 32.0767 34.2188C32.0571 34.235 32.0295 34.2594 31.9937 34.292C31.9611 34.3213 31.9334 34.3441 31.9106 34.3604C31.5981 34.611 31.2726 34.7982 30.9341 34.9219C30.5955 35.0423 30.2179 35.1025 29.8013 35.1025C29.326 35.1025 28.9142 35.0163 28.5659 34.8438C28.2209 34.6712 27.9539 34.4336 27.7651 34.1309C27.5796 33.8281 27.4868 33.4814 27.4868 33.0908C27.4868 32.8044 27.5422 32.5553 27.6528 32.3438C27.7668 32.1289 27.923 31.9303 28.1216 31.748C28.3201 31.5658 28.548 31.3818 28.8052 31.1963Z" fill="white"/>
<path d="M14.2461 41.959H12.0723L12.0723 40.5879H14.2461C14.582 40.5879 14.8555 40.5332 15.0664 40.4238C15.2773 40.3105 15.4316 40.1543 15.5293 39.9551C15.627 39.7559 15.6758 39.5312 15.6758 39.2812C15.6758 39.0273 15.627 38.791 15.5293 38.5723C15.4316 38.3535 15.2773 38.1777 15.0664 38.0449C14.8555 37.9121 14.582 37.8457 14.2461 37.8457H12.6816L12.6816 45H10.9238L10.9238 36.4688H14.2461C14.9141 36.4688 15.4863 36.5898 15.9629 36.832C16.4434 37.0703 16.8105 37.4004 17.0645 37.8223C17.3184 38.2441 17.4453 38.7266 17.4453 39.2695C17.4453 39.8203 17.3184 40.2969 17.0645 40.6992C16.8105 41.1016 16.4434 41.4121 15.9629 41.6309C15.4863 41.8496 14.9141 41.959 14.2461 41.959ZM25.666 40.5352V40.9395C25.666 41.5879 25.5781 42.1699 25.4023 42.6855C25.2266 43.2012 24.9785 43.6406 24.6582 44.0039C24.3379 44.3633 23.9551 44.6387 23.5098 44.8301C23.0684 45.0215 22.5781 45.1172 22.0391 45.1172C21.5039 45.1172 21.0137 45.0215 20.5684 44.8301C20.127 44.6387 19.7441 44.3633 19.4199 44.0039C19.0957 43.6406 18.8438 43.2012 18.6641 42.6855C18.4883 42.1699 18.4004 41.5879 18.4004 40.9395V40.5352C18.4004 39.8828 18.4883 39.3008 18.6641 38.7891C18.8398 38.2734 19.0879 37.834 19.4082 37.4707C19.7324 37.1074 20.1152 36.8301 20.5566 36.6387C21.002 36.4473 21.4922 36.3516 22.0273 36.3516C22.5664 36.3516 23.0566 36.4473 23.498 36.6387C23.9434 36.8301 24.3262 37.1074 24.6465 37.4707C24.9707 37.834 25.2207 38.2734 25.3965 38.7891C25.5762 39.3008 25.666 39.8828 25.666 40.5352ZM23.8906 40.9395V40.5234C23.8906 40.0703 23.8496 39.6719 23.7676 39.3281C23.6855 38.9844 23.5645 38.6953 23.4043 38.4609C23.2441 38.2266 23.0488 38.0508 22.8184 37.9336C22.5879 37.8125 22.3242 37.752 22.0273 37.752C21.7305 37.752 21.4668 37.8125 21.2363 37.9336C21.0098 38.0508 20.8164 38.2266 20.6562 38.4609C20.5 38.6953 20.3809 38.9844 20.2988 39.3281C20.2168 39.6719 20.1758 40.0703 20.1758 40.5234V40.9395C20.1758 41.3887 20.2168 41.7871 20.2988 42.1348C20.3809 42.4785 20.502 42.7695 20.6621 43.0078C20.8223 43.2422 21.0176 43.4199 21.248 43.541C21.4785 43.6621 21.7422 43.7227 22.0391 43.7227C22.3359 43.7227 22.5996 43.6621 22.8301 43.541C23.0605 43.4199 23.2539 43.2422 23.4102 43.0078C23.5664 42.7695 23.6855 42.4785 23.7676 42.1348C23.8496 41.7871 23.8906 41.3887 23.8906 40.9395ZM30.2715 37.9277L27.9512 45H26.082L29.252 36.4688H30.4414L30.2715 37.9277ZM32.1992 45L29.873 37.9277L29.6855 36.4688H30.8867L34.0742 45H32.1992ZM32.0938 41.8242V43.2012H27.5879V41.8242H32.0938ZM38.1875 41.959H36.0137V40.5879H38.1875C38.5234 40.5879 38.7969 40.5332 39.0078 40.4238C39.2188 40.3105 39.373 40.1543 39.4707 39.9551C39.5684 39.7559 39.6172 39.5313 39.6172 39.2813C39.6172 39.0273 39.5684 38.791 39.4707 38.5723C39.373 38.3535 39.2188 38.1777 39.0078 38.0449C38.7969 37.9121 38.5234 37.8457 38.1875 37.8457H36.623V45H34.8652V36.4688H38.1875C38.8555 36.4688 39.4277 36.5898 39.9043 36.832C40.3848 37.0703 40.752 37.4004 41.0059 37.8223C41.2598 38.2441 41.3867 38.7266 41.3867 39.2695C41.3867 39.8203 41.2598 40.2969 41.0059 40.6992C40.752 41.1016 40.3848 41.4121 39.9043 41.6309C39.4277 41.8496 38.8555 41.959 38.1875 41.959Z" fill="white"/>
</svg>
