<svg width="47" height="48" viewBox="0 0 47 48" fill="none" xmlns="http://www.w3.org/2000/svg">
<rect x="0.75" y="0.75" width="45.5" height="45.5" rx="6.25" fill="white" stroke="#525252" stroke-width="1.5"/>
<rect x="0.75" y="33.75" width="45.5" height="12.5" rx="6.25" fill="#525252" stroke="#525252" stroke-width="1.5"/>
<circle cx="43" cy="7" r="1" transform="rotate(90 43 7)" fill="#525252"/>
<circle cx="43" cy="11" r="1" transform="rotate(90 43 11)" fill="#525252"/>
<circle cx="43" cy="15" r="1" transform="rotate(90 43 15)" fill="#525252"/>
<path d="M20.2598 45H18.0928L18.1064 43.4004H20.2598C20.7975 43.4004 21.251 43.2796 21.6201 43.0381C21.9893 42.792 22.2673 42.4342 22.4541 41.9648C22.6455 41.4954 22.7412 40.9281 22.7412 40.2627V39.7773C22.7412 39.2669 22.6865 38.818 22.5771 38.4307C22.4723 38.0433 22.3151 37.7174 22.1055 37.4531C21.8958 37.1888 21.6383 36.9906 21.333 36.8584C21.0277 36.7217 20.6768 36.6533 20.2803 36.6533H18.0518V35.0469H20.2803C20.9456 35.0469 21.554 35.1608 22.1055 35.3887C22.6615 35.612 23.1423 35.9333 23.5479 36.3525C23.9535 36.7718 24.2656 37.2731 24.4844 37.8564C24.7077 38.4352 24.8193 39.0801 24.8193 39.791V40.2627C24.8193 40.9691 24.7077 41.6139 24.4844 42.1973C24.2656 42.7806 23.9535 43.2819 23.5479 43.7012C23.1468 44.1159 22.666 44.4372 22.1055 44.665C21.5495 44.8883 20.9342 45 20.2598 45ZM19.2549 35.0469V45H17.2041V35.0469H19.2549ZM27.2461 35.0469H28.9824L31.5391 42.3545L34.0957 35.0469H35.832L32.2363 45H30.8418L27.2461 35.0469ZM26.3096 35.0469H28.0391L28.3535 42.1699V45H26.3096V35.0469ZM35.0391 35.0469H36.7754V45H34.7246V42.1699L35.0391 35.0469Z" fill="white"/>
<path d="M7 40.3333V16.5C7 15.0413 7.57946 13.6424 8.61091 12.6109C9.64236 11.5795 11.0413 11 12.5 11H30.8333C32.292 11 33.691 11.5795 34.7224 12.6109C35.7539 13.6424 36.3333 15.0413 36.3333 16.5V27.5C36.3333 28.9587 35.7539 30.3576 34.7224 31.3891C33.691 32.4205 32.292 33 30.8333 33H14.3333L7 40.3333Z" fill="white" stroke="#525252" stroke-width="1.88" stroke-linecap="round" stroke-linejoin="round"/>
<path d="M21.6667 22V22.0183" stroke="#525252" stroke-width="3" stroke-linecap="round" stroke-linejoin="round"/>
<path d="M14.3333 22V22.0183" stroke="#525252" stroke-width="3" stroke-linecap="round" stroke-linejoin="round"/>
<path d="M29 22V22.0183" stroke="#525252" stroke-width="3" stroke-linecap="round" stroke-linejoin="round"/>
</svg>
