<svg width="47" height="48" viewBox="0 0 47 48" fill="none" xmlns="http://www.w3.org/2000/svg">
<rect x="0.75" y="0.75" width="45.5" height="45.5" rx="6.25" fill="white" stroke="#525252" stroke-width="1.5"/>
<rect x="0.75" y="33.75" width="45.5" height="12.5" rx="6.25" fill="#525252" stroke="#525252" stroke-width="1.5"/>
<circle cx="6" cy="10" r="1" fill="#525252"/>
<circle cx="6" cy="6" r="1" fill="#525252"/>
<circle cx="10" cy="6" r="1" fill="#525252"/>
<path d="M9.69141 41.6982H11.7354C11.6943 42.3682 11.5098 42.9629 11.1816 43.4824C10.8581 44.002 10.4046 44.4076 9.82129 44.6992C9.24251 44.9909 8.54525 45.1367 7.72949 45.1367C7.09147 45.1367 6.51953 45.0273 6.01367 44.8086C5.50781 44.5853 5.07487 44.2663 4.71484 43.8516C4.35938 43.4368 4.08822 42.9355 3.90137 42.3477C3.71452 41.7598 3.62109 41.1012 3.62109 40.3721V39.6816C3.62109 38.9525 3.7168 38.2939 3.9082 37.7061C4.10417 37.1136 4.38216 36.61 4.74219 36.1953C5.10677 35.7806 5.54199 35.4616 6.04785 35.2383C6.55371 35.015 7.11882 34.9033 7.74316 34.9033C8.57259 34.9033 9.27214 35.0537 9.8418 35.3545C10.416 35.6553 10.8604 36.07 11.1748 36.5986C11.4938 37.1273 11.6852 37.7288 11.749 38.4033H9.69824C9.67546 38.0023 9.5957 37.6628 9.45898 37.3848C9.32227 37.1022 9.11491 36.8903 8.83691 36.749C8.56348 36.6032 8.19889 36.5303 7.74316 36.5303C7.40137 36.5303 7.10286 36.5941 6.84766 36.7217C6.59245 36.8493 6.37826 37.043 6.20508 37.3027C6.0319 37.5625 5.90202 37.8906 5.81543 38.2871C5.7334 38.679 5.69238 39.1393 5.69238 39.668V40.3721C5.69238 40.887 5.73112 41.3405 5.80859 41.7324C5.88607 42.1198 6.00456 42.4479 6.16406 42.7168C6.32812 42.9811 6.53776 43.1816 6.79297 43.3184C7.05273 43.4505 7.36491 43.5166 7.72949 43.5166C8.15788 43.5166 8.51107 43.4482 8.78906 43.3115C9.06706 43.1748 9.27897 42.972 9.4248 42.7031C9.5752 42.4342 9.66406 42.0993 9.69141 41.6982ZM14.9277 39.1348V45H12.9521V37.6035H14.8047L14.9277 39.1348ZM14.6543 41.042H14.1074C14.1074 40.527 14.1689 40.0531 14.292 39.6201C14.4196 39.1826 14.6042 38.8044 14.8457 38.4854C15.0918 38.1618 15.3949 37.9111 15.7549 37.7334C16.1149 37.5557 16.5319 37.4668 17.0059 37.4668C17.334 37.4668 17.6348 37.5169 17.9082 37.6172C18.1816 37.7129 18.4163 37.8656 18.6123 38.0752C18.8128 38.2803 18.9678 38.5492 19.0771 38.8818C19.1865 39.21 19.2412 39.6042 19.2412 40.0645V45H17.2725V40.2832C17.2725 39.946 17.2269 39.6862 17.1357 39.5039C17.0446 39.3216 16.9147 39.194 16.7461 39.1211C16.582 39.0482 16.3838 39.0117 16.1514 39.0117C15.8962 39.0117 15.6729 39.0641 15.4814 39.1689C15.2946 39.2738 15.1396 39.4196 15.0166 39.6064C14.8936 39.7887 14.8024 40.0029 14.7432 40.249C14.6839 40.4951 14.6543 40.7594 14.6543 41.042ZM19.0566 40.8164L18.3525 40.9053C18.3525 40.4222 18.4118 39.9733 18.5303 39.5586C18.6533 39.1439 18.8333 38.7793 19.0703 38.4648C19.3118 38.1504 19.6104 37.9066 19.9658 37.7334C20.3213 37.5557 20.7314 37.4668 21.1963 37.4668C21.5518 37.4668 21.8753 37.5192 22.167 37.624C22.4587 37.7243 22.707 37.8861 22.9121 38.1094C23.1217 38.3281 23.2812 38.6152 23.3906 38.9707C23.5046 39.3262 23.5615 39.7614 23.5615 40.2764V45H21.5859V40.2764C21.5859 39.9346 21.5404 39.6748 21.4492 39.4971C21.3626 39.3148 21.235 39.1895 21.0664 39.1211C20.9023 39.0482 20.7064 39.0117 20.4785 39.0117C20.2415 39.0117 20.0342 39.0596 19.8564 39.1553C19.6787 39.2464 19.5306 39.374 19.4121 39.5381C19.2936 39.7021 19.2048 39.8936 19.1455 40.1123C19.0863 40.3265 19.0566 40.5612 19.0566 40.8164ZM27.0137 39.1826V45H25.0449V37.6035H26.8906L27.0137 39.1826ZM26.7266 41.042H26.1934C26.1934 40.4951 26.264 40.0029 26.4053 39.5654C26.5465 39.1234 26.7448 38.7474 27 38.4375C27.2552 38.123 27.5583 37.8838 27.9092 37.7197C28.2646 37.5511 28.6611 37.4668 29.0986 37.4668C29.445 37.4668 29.7617 37.5169 30.0488 37.6172C30.3359 37.7174 30.582 37.877 30.7871 38.0957C30.9967 38.3145 31.1562 38.6038 31.2656 38.9639C31.3796 39.3239 31.4365 39.7637 31.4365 40.2832V45H29.4541V40.2764C29.4541 39.9482 29.4085 39.693 29.3174 39.5107C29.2262 39.3285 29.0918 39.2008 28.9141 39.1279C28.7409 39.0505 28.5267 39.0117 28.2715 39.0117C28.0072 39.0117 27.777 39.0641 27.5811 39.1689C27.3896 39.2738 27.2301 39.4196 27.1025 39.6064C26.9795 39.7887 26.8861 40.0029 26.8223 40.249C26.7585 40.4951 26.7266 40.7594 26.7266 41.042ZM36.5566 37.6035V38.998H32.25V37.6035H36.5566ZM33.3164 35.7783H35.2852V42.7715C35.2852 42.9857 35.3125 43.1497 35.3672 43.2637C35.4264 43.3776 35.513 43.4574 35.627 43.5029C35.7409 43.5439 35.8844 43.5645 36.0576 43.5645C36.1807 43.5645 36.29 43.5599 36.3857 43.5508C36.486 43.5371 36.5703 43.5234 36.6387 43.5098L36.6455 44.959C36.4769 45.0137 36.2946 45.057 36.0986 45.0889C35.9027 45.1208 35.6862 45.1367 35.4492 45.1367C35.0163 45.1367 34.638 45.0661 34.3145 44.9248C33.9954 44.779 33.7493 44.5465 33.5762 44.2275C33.403 43.9085 33.3164 43.4893 33.3164 42.9697V35.7783ZM39.8721 44.166L41.834 37.6035H43.9463L40.9727 46.1143C40.9089 46.3011 40.8223 46.5016 40.7129 46.7158C40.6081 46.93 40.4645 47.1328 40.2822 47.3242C40.1045 47.5202 39.8789 47.6797 39.6055 47.8027C39.3366 47.9258 39.0062 47.9873 38.6143 47.9873C38.4274 47.9873 38.2747 47.9759 38.1562 47.9531C38.0378 47.9303 37.8965 47.8984 37.7324 47.8574V46.415C37.7826 46.415 37.835 46.415 37.8896 46.415C37.9443 46.4196 37.9967 46.4219 38.0469 46.4219C38.3066 46.4219 38.5186 46.3923 38.6826 46.333C38.8467 46.2738 38.9788 46.1826 39.0791 46.0596C39.1794 45.9411 39.2591 45.7861 39.3184 45.5947L39.8721 44.166ZM39.0518 37.6035L40.6582 42.9629L40.9385 45.0479L39.5986 45.1914L36.9395 37.6035H39.0518Z" fill="white"/>
<path d="M17.75 35.5C23.6871 35.5 28.5 30.6871 28.5 24.75C28.5 18.8129 23.6871 14 17.75 14C11.8129 14 7 18.8129 7 24.75C7 30.6871 11.8129 35.5 17.75 35.5Z" fill="white" stroke="#525252" stroke-width="1.88" stroke-linecap="round" stroke-linejoin="round"/>
<path d="M14.1667 21.1665H14.1792" stroke="#525252" stroke-width="1.88" stroke-linecap="round" stroke-linejoin="round"/>
<path d="M21.3333 21.1665H21.3458" stroke="#525252" stroke-width="1.88" stroke-linecap="round" stroke-linejoin="round"/>
<path d="M12.9722 25.9443C12.9722 27.2115 13.4756 28.4267 14.3716 29.3227C15.2676 30.2187 16.4829 30.7221 17.75 30.7221C19.0172 30.7221 20.2324 30.2187 21.1284 29.3227C22.0244 28.4267 22.5278 27.2115 22.5278 25.9443M22.5278 25.9443H12.9722" stroke="#525252" stroke-width="1.88" stroke-linecap="round" stroke-linejoin="round"/>
<path d="M32.5625 35.625C37.0153 35.625 40.625 32.0153 40.625 27.5625C40.625 23.1097 37.0153 19.5 32.5625 19.5C28.1097 19.5 24.5 23.1097 24.5 27.5625C24.5 32.0153 28.1097 35.625 32.5625 35.625Z" fill="white" stroke="#525252" stroke-width="1.88" stroke-linecap="round" stroke-linejoin="round"/>
<path d="M29.875 25.771H29.884" stroke="#525252" stroke-width="1.88" stroke-linecap="round" stroke-linejoin="round"/>
<path d="M35.25 25.771H35.259" stroke="#525252" stroke-width="1.88" stroke-linecap="round" stroke-linejoin="round"/>
<path d="M30.3229 30.25C30.6149 30.548 30.9633 30.7847 31.3479 30.9463C31.7324 31.1078 32.1454 31.1911 32.5625 31.1911C32.9797 31.1911 33.3926 31.1078 33.7772 30.9463C34.1617 30.7847 34.5102 30.548 34.8021 30.25" fill="white"/>
<path d="M30.3229 30.25C30.6149 30.548 30.9633 30.7847 31.3479 30.9463C31.7324 31.1078 32.1454 31.1911 32.5625 31.1911C32.9797 31.1911 33.3926 31.1078 33.7772 30.9463C34.1617 30.7847 34.5102 30.548 34.8021 30.25" stroke="#525252" stroke-width="1.88" stroke-linecap="round" stroke-linejoin="round"/>
<path d="M28 11.3335C28 10.0074 27.4732 8.73564 26.5355 7.79796C25.5979 6.86028 24.3261 6.3335 23 6.3335H20.5V8.00016C20.5 9.32625 21.0268 10.598 21.9645 11.5357C22.9021 12.4734 24.1739 13.0002 25.5 13.0002H28" stroke="#525252" stroke-width="1.88" stroke-linecap="round" stroke-linejoin="round"/>
<path d="M28 14.6665C28 13.3404 28.5268 12.0687 29.4645 11.131C30.4021 10.1933 31.6739 9.6665 33 9.6665H35.5V10.4998C35.5 11.8259 34.9732 13.0977 34.0355 14.0354C33.0979 14.9731 31.8261 15.4998 30.5 15.4998H28" stroke="#525252" stroke-width="1.88" stroke-linecap="round" stroke-linejoin="round"/>
<path d="M28 19.6668V11.3335" stroke="#525252" stroke-width="1.88" stroke-linecap="round" stroke-linejoin="round"/>
</svg>
