<svg width="47" height="48" viewBox="0 0 47 48" fill="none" xmlns="http://www.w3.org/2000/svg">
<rect x="0.75" y="0.75" width="45.5" height="45.5" rx="6.25" fill="white" stroke="#525252" stroke-width="1.5"/>
<rect x="0.75" y="33.75" width="45.5" height="12.5" rx="6.25" fill="#525252" stroke="#525252" stroke-width="1.5"/>
<circle cx="43" cy="7" r="1" transform="rotate(90 43 7)" fill="#525252"/>
<circle cx="43" cy="11" r="1" transform="rotate(90 43 11)" fill="#525252"/>
<circle cx="43" cy="15" r="1" transform="rotate(90 43 15)" fill="#525252"/>
<path d="M19.0361 41.6982H21.0801C21.0391 42.3682 20.8545 42.9629 20.5264 43.4824C20.2028 44.002 19.7493 44.4076 19.166 44.6992C18.5872 44.9909 17.89 45.1367 17.0742 45.1367C16.4362 45.1367 15.8643 45.0273 15.3584 44.8086C14.8525 44.5853 14.4196 44.2663 14.0596 43.8516C13.7041 43.4368 13.4329 42.9355 13.2461 42.3477C13.0592 41.7598 12.9658 41.1012 12.9658 40.3721V39.6816C12.9658 38.9525 13.0615 38.2939 13.2529 37.7061C13.4489 37.1136 13.7269 36.61 14.0869 36.1953C14.4515 35.7806 14.8867 35.4616 15.3926 35.2383C15.8984 35.015 16.4635 34.9033 17.0879 34.9033C17.9173 34.9033 18.6169 35.0537 19.1865 35.3545C19.7607 35.6553 20.2051 36.07 20.5195 36.5986C20.8385 37.1273 21.0299 37.7288 21.0938 38.4033H19.043C19.0202 38.0023 18.9404 37.6628 18.8037 37.3848C18.667 37.1022 18.4596 36.8903 18.1816 36.749C17.9082 36.6032 17.5436 36.5303 17.0879 36.5303C16.7461 36.5303 16.4476 36.5941 16.1924 36.7217C15.9372 36.8493 15.723 37.043 15.5498 37.3027C15.3766 37.5625 15.2467 37.8906 15.1602 38.2871C15.0781 38.679 15.0371 39.1393 15.0371 39.668V40.3721C15.0371 40.887 15.0758 41.3405 15.1533 41.7324C15.2308 42.1198 15.3493 42.4479 15.5088 42.7168C15.6729 42.9811 15.8825 43.1816 16.1377 43.3184C16.3975 43.4505 16.7096 43.5166 17.0742 43.5166C17.5026 43.5166 17.8558 43.4482 18.1338 43.3115C18.4118 43.1748 18.6237 42.972 18.7695 42.7031C18.9199 42.4342 19.0088 42.0993 19.0361 41.6982ZM24.2246 34.5V45H22.2559V34.5H24.2246ZM23.9443 41.042H23.4043C23.4089 40.527 23.4772 40.0531 23.6094 39.6201C23.7415 39.1826 23.9307 38.8044 24.1768 38.4854C24.4229 38.1618 24.7168 37.9111 25.0586 37.7334C25.4049 37.5557 25.7878 37.4668 26.207 37.4668C26.5716 37.4668 26.902 37.5192 27.1982 37.624C27.499 37.7243 27.7565 37.8883 27.9707 38.1162C28.1895 38.3395 28.3581 38.6335 28.4766 38.998C28.5951 39.3626 28.6543 39.8047 28.6543 40.3242V45H26.6719V40.3105C26.6719 39.9824 26.624 39.7249 26.5283 39.5381C26.4372 39.3467 26.3027 39.2122 26.125 39.1348C25.9518 39.0527 25.7376 39.0117 25.4824 39.0117C25.1999 39.0117 24.9583 39.0641 24.7578 39.1689C24.5618 39.2738 24.4046 39.4196 24.2861 39.6064C24.1676 39.7887 24.0811 40.0029 24.0264 40.249C23.9717 40.4951 23.9443 40.7594 23.9443 41.042ZM34.1436 43.332V40.0371C34.1436 39.8001 34.1048 39.5973 34.0273 39.4287C33.9499 39.2555 33.8291 39.1211 33.665 39.0254C33.5055 38.9297 33.2982 38.8818 33.043 38.8818C32.8242 38.8818 32.6351 38.9206 32.4756 38.998C32.3161 39.071 32.193 39.1781 32.1064 39.3193C32.0199 39.4561 31.9766 39.6178 31.9766 39.8047H30.0078C30.0078 39.4902 30.0807 39.1917 30.2266 38.9092C30.3724 38.6266 30.5843 38.3783 30.8623 38.1641C31.1403 37.9453 31.4707 37.7744 31.8535 37.6514C32.2409 37.5283 32.6738 37.4668 33.1523 37.4668C33.7266 37.4668 34.237 37.5625 34.6836 37.7539C35.1302 37.9453 35.4811 38.2324 35.7363 38.6152C35.9961 38.998 36.126 39.4766 36.126 40.0508V43.2158C36.126 43.6214 36.151 43.9541 36.2012 44.2139C36.2513 44.4691 36.3242 44.6924 36.4199 44.8838V45H34.4307C34.335 44.7995 34.262 44.5488 34.2119 44.248C34.1663 43.9427 34.1436 43.6374 34.1436 43.332ZM34.4033 40.4951L34.417 41.6094H33.3164C33.0566 41.6094 32.8311 41.639 32.6396 41.6982C32.4482 41.7575 32.291 41.8418 32.168 41.9512C32.0449 42.056 31.9538 42.179 31.8945 42.3203C31.8398 42.4616 31.8125 42.6165 31.8125 42.7852C31.8125 42.9538 31.8512 43.1064 31.9287 43.2432C32.0062 43.3753 32.1178 43.4801 32.2637 43.5576C32.4095 43.6305 32.5804 43.667 32.7764 43.667C33.0726 43.667 33.3301 43.6077 33.5488 43.4893C33.7676 43.3708 33.9362 43.2249 34.0547 43.0518C34.1777 42.8786 34.2415 42.7145 34.2461 42.5596L34.7656 43.3936C34.6927 43.5804 34.5924 43.7741 34.4648 43.9746C34.3418 44.1751 34.1846 44.3643 33.9932 44.542C33.8018 44.7152 33.5716 44.8587 33.3027 44.9727C33.0339 45.082 32.7148 45.1367 32.3457 45.1367C31.8763 45.1367 31.4502 45.0433 31.0674 44.8564C30.6891 44.665 30.3883 44.403 30.165 44.0703C29.9463 43.7331 29.8369 43.3503 29.8369 42.9219C29.8369 42.5345 29.9098 42.1904 30.0557 41.8896C30.2015 41.5889 30.4157 41.3359 30.6982 41.1309C30.9854 40.9212 31.3431 40.764 31.7715 40.6592C32.1999 40.5498 32.6966 40.4951 33.2617 40.4951H34.4033ZM41.2666 37.6035V38.998H36.96V37.6035H41.2666ZM38.0264 35.7783H39.9951V42.7715C39.9951 42.9857 40.0225 43.1497 40.0771 43.2637C40.1364 43.3776 40.223 43.4574 40.3369 43.5029C40.4508 43.5439 40.5944 43.5645 40.7676 43.5645C40.8906 43.5645 41 43.5599 41.0957 43.5508C41.196 43.5371 41.2803 43.5234 41.3486 43.5098L41.3555 44.959C41.1868 45.0137 41.0046 45.057 40.8086 45.0889C40.6126 45.1208 40.3962 45.1367 40.1592 45.1367C39.7262 45.1367 39.348 45.0661 39.0244 44.9248C38.7054 44.779 38.4593 44.5465 38.2861 44.2275C38.113 43.9085 38.0264 43.4893 38.0264 42.9697V35.7783Z" fill="white"/>
<path d="M7 40.3333V16.5C7 15.0413 7.57946 13.6424 8.61091 12.6109C9.64236 11.5795 11.0413 11 12.5 11H30.8333C32.292 11 33.691 11.5795 34.7224 12.6109C35.7539 13.6424 36.3333 15.0413 36.3333 16.5V27.5C36.3333 28.9587 35.7539 30.3576 34.7224 31.3891C33.691 32.4205 32.292 33 30.8333 33H14.3333L7 40.3333Z" fill="white" stroke="#525252" stroke-width="1.88" stroke-linecap="round" stroke-linejoin="round"/>
<path d="M21.6667 22V22.0183" stroke="#525252" stroke-width="3" stroke-linecap="round" stroke-linejoin="round"/>
<path d="M14.3333 22V22.0183" stroke="#525252" stroke-width="3" stroke-linecap="round" stroke-linejoin="round"/>
<path d="M29 22V22.0183" stroke="#525252" stroke-width="3" stroke-linecap="round" stroke-linejoin="round"/>
</svg>
