<svg width="61" height="61" viewBox="0 0 61 61" fill="none" xmlns="http://www.w3.org/2000/svg">
<path d="M42.9775 35.1632V41.4649C42.9775 42.3005 42.6455 43.102 42.0546 43.6929C41.4637 44.2838 40.6623 44.6157 39.8266 44.6157H17.7708L8.31836 54.0682V22.5599C8.31836 21.7243 8.65032 20.9229 9.24121 20.332C9.83211 19.7411 10.6335 19.4091 11.4692 19.4091H17.7708" stroke="black" stroke-width="3" stroke-linecap="round" stroke-linejoin="round"/>
<path d="M26.3411 33.2727H33.2148L51.2584 14.2795C52.1699 13.32 52.682 12.0187 52.682 10.6618C52.682 9.30483 52.1699 8.00349 51.2584 7.044C50.3469 6.08451 49.1106 5.54547 47.8215 5.54547C46.5324 5.54547 45.2962 6.08451 44.3846 7.044L26.3411 26.0372V33.2727Z" stroke="black" stroke-width="3" stroke-linecap="round" stroke-linejoin="round"/>
<path d="M41.5911 9.70456L48.5229 16.6364" stroke="black" stroke-width="3" stroke-linecap="round" stroke-linejoin="round"/>
</svg>
