<svg width="28" height="30" viewBox="0 0 28 30" fill="none" xmlns="http://www.w3.org/2000/svg">
<path d="M4.12034 7.71333H7.55703H20.1183C21.7169 7.71333 23.0129 9.0093 23.0129 10.608C23.0129 11.7044 23.6323 12.7067 24.613 13.197L24.8863 13.3336C26.0345 13.9077 26.7598 15.0812 26.7598 16.3649V21.2958V26.6439C26.7598 26.8242 26.7307 27.0033 26.6737 27.1743C26.4454 27.8592 25.8045 28.3211 25.0825 28.3211H5.03049C3.68288 28.3211 2.42444 27.6476 1.67692 26.5264C1.23553 25.8643 1 25.0864 1 24.2907V9.42859C1 8.12392 2.27817 7.20267 3.51589 7.61524C3.71079 7.68021 3.91489 7.71333 4.12034 7.71333Z" fill="#2A2A2A"/>
<path d="M1 4.43464C1 3.52371 1.36186 2.6501 2.00598 2.00598C2.6501 1.36186 3.52371 1 4.43464 1H21.6078C22.0633 1 22.5001 1.18093 22.8221 1.50299C23.1442 1.82505 23.3251 2.26186 23.3251 2.71732V11.4892C23.3251 12.057 23.6058 12.5882 24.075 12.9081V12.9081C25.215 13.6853 26.7598 12.8689 26.7598 11.4892V9.58659C26.7598 9.13113 26.5788 8.69432 26.2568 8.37226C25.9347 8.0502 25.4979 7.86927 25.0424 7.86927H4.43464C3.52371 7.86927 2.6501 7.50741 2.00598 6.86329C1.36186 6.21917 1 5.34556 1 4.43464ZM1 4.43464V25.0424C1 25.9534 1.36186 26.827 2.00598 27.4711C2.6501 28.1152 3.52371 28.4771 4.43464 28.4771H25.0424C25.4979 28.4771 25.9347 28.2962 26.2568 27.9741C26.5788 27.652 26.7598 27.2152 26.7598 26.7598V21.6078" stroke="#2A2A2A" stroke-width="1.48516" stroke-linecap="round" stroke-linejoin="round"/>
<path d="M21.0339 24.574C20.3622 22.5588 20.9374 20.3441 21.0183 18.2214C21.0358 17.7613 20.9989 17.2978 20.9059 16.8386C20.5893 15.2746 19.6446 13.8661 18.2474 12.8748C16.8502 11.8835 15.0955 11.377 13.3097 11.4494C11.5238 11.5219 9.82836 12.1683 8.53846 13.2685C7.24856 14.3687 6.45202 15.8478 6.29696 17.4309C6.14188 19.014 6.63883 20.5932 7.6954 21.875C8.75197 23.1568 10.2963 24.054 12.0411 24.3997C12.645 24.5193 13.2587 24.5701 13.8682 24.5537C16.0931 24.494 18.3638 24.0058 20.5407 24.469L21.0339 24.574Z" fill="white"/>
</svg>
