<svg width="68" height="68" viewBox="0 0 68 68" fill="none" xmlns="http://www.w3.org/2000/svg">
<g clip-path="url(#clip0_62_2673)">
<path d="M15.4546 22.409H21.6364H47.1364V30.1363L53.3182 33.2272V44.8181V54.0908L52.5455 56.409H13.9091L10.8182 51.7726V20.8635L15.4546 22.409Z" fill="black"/>
<path d="M10.8182 16.9999C10.8182 15.497 11.4153 14.0557 12.478 12.993C13.5407 11.9303 14.982 11.3333 16.4849 11.3333H44.8182C45.5697 11.3333 46.2904 11.6318 46.8217 12.1631C47.3531 12.6945 47.6516 13.4151 47.6516 14.1666V30.1363L53.3182 33.9999V25.4999C53.3182 24.7485 53.0197 24.0278 52.4884 23.4965C51.957 22.9651 51.2364 22.6666 50.4849 22.6666H16.4849C14.982 22.6666 13.5407 22.0696 12.478 21.0069C11.4153 19.9442 10.8182 18.5028 10.8182 16.9999ZM10.8182 16.9999V50.9999C10.8182 52.5028 11.4153 53.9442 12.478 55.0069C13.5407 56.0696 14.982 56.6666 16.4849 56.6666H50.4849C51.2364 56.6666 51.957 56.3681 52.4884 55.8367C53.0197 55.3054 53.3182 54.5847 53.3182 53.8333V45.3333" stroke="black" stroke-width="3.09091" stroke-linecap="round" stroke-linejoin="round"/>
<path d="M43.8712 50.2271L42.1133 44.9533C43.6326 42.7062 44.1822 40.0451 43.66 37.4648C43.1377 34.8845 41.579 32.5606 39.2738 30.9251C36.9686 29.2897 34.0736 28.454 31.1273 28.5735C28.1809 28.693 25.3836 29.7594 23.2554 31.5746C21.1273 33.3898 19.8131 35.8302 19.5573 38.442C19.3014 41.0539 20.1213 43.6594 21.8645 45.7743C23.6077 47.8891 26.1556 49.3692 29.0344 49.9396C31.9132 50.5099 34.927 50.1315 37.5155 48.8748L43.8712 50.2271Z" fill="#E5E5E5"/>
</g>
<defs>
<clipPath id="clip0_62_2673">
<rect width="68" height="68" fill="white"/>
</clipPath>
</defs>
</svg>
