<svg width="90" height="26" viewBox="0 0 90 26" fill="none" xmlns="http://www.w3.org/2000/svg">
<path d="M33.7612 16.3652L35.4604 9.46875H36.3804L36.439 10.9219L34.6226 18H33.6499L33.7612 16.3652ZM32.689 9.46875L34.0835 16.3418V18H33.0229L31.0894 9.46875H32.689ZM38.2026 16.3125L39.5737 9.46875H41.1792L39.2456 18H38.1851L38.2026 16.3125ZM36.8198 9.46875L38.519 16.3887L38.6187 18H37.646L35.8354 10.916L35.9058 9.46875H36.8198ZM45.3745 16.6523V13.7285C45.3745 13.5137 45.3374 13.3281 45.2632 13.1719C45.189 13.0156 45.0757 12.8945 44.9233 12.8086C44.771 12.7227 44.5776 12.6797 44.3433 12.6797C44.1362 12.6797 43.9546 12.7148 43.7983 12.7852C43.646 12.8555 43.5288 12.9551 43.4468 13.084C43.3647 13.209 43.3237 13.3535 43.3237 13.5176H41.771C41.771 13.2559 41.8335 13.0078 41.9585 12.7734C42.0835 12.5352 42.2612 12.3242 42.4917 12.1406C42.7261 11.9531 43.0054 11.8066 43.3296 11.7012C43.6577 11.5957 44.0249 11.543 44.4312 11.543C44.9116 11.543 45.3394 11.625 45.7144 11.7891C46.0933 11.9492 46.3901 12.1914 46.605 12.5156C46.8237 12.8398 46.9331 13.248 46.9331 13.7402V16.5059C46.9331 16.8223 46.9526 17.0938 46.9917 17.3203C47.0347 17.543 47.0972 17.7363 47.1792 17.9004V18H45.603C45.5288 17.8398 45.4722 17.6367 45.4331 17.3906C45.394 17.1406 45.3745 16.8945 45.3745 16.6523ZM45.5913 14.1387L45.603 15.0586H44.6245C44.3823 15.0586 44.1694 15.084 43.9858 15.1348C43.8022 15.1816 43.6519 15.252 43.5347 15.3457C43.4175 15.4355 43.3296 15.5449 43.271 15.6738C43.2124 15.7988 43.1831 15.9414 43.1831 16.1016C43.1831 16.2578 43.2183 16.3984 43.2886 16.5234C43.3628 16.6484 43.4683 16.748 43.605 16.8223C43.7456 16.8926 43.9097 16.9277 44.0972 16.9277C44.3706 16.9277 44.6089 16.873 44.812 16.7637C45.0151 16.6504 45.1733 16.5137 45.2866 16.3535C45.3999 16.1934 45.4604 16.041 45.4683 15.8965L45.9136 16.5645C45.8589 16.7246 45.7769 16.8945 45.6675 17.0742C45.5581 17.2539 45.4175 17.4219 45.2456 17.5781C45.0737 17.7344 44.8667 17.8633 44.6245 17.9648C44.3823 18.0664 44.1011 18.1172 43.7808 18.1172C43.3706 18.1172 43.0034 18.0352 42.6792 17.8711C42.355 17.707 42.0991 17.4824 41.9116 17.1973C41.7241 16.9121 41.6304 16.5879 41.6304 16.2246C41.6304 15.8887 41.6929 15.5918 41.8179 15.334C41.9429 15.0762 42.1284 14.8594 42.3745 14.6836C42.6206 14.5039 42.9253 14.3691 43.2886 14.2793C43.6558 14.1855 44.0757 14.1387 44.5483 14.1387H45.5913ZM49.9683 9V18H48.4155V9H49.9683ZM53.0854 9V18H51.5327V9H53.0854ZM57.4097 18.1172C56.9292 18.1172 56.4976 18.0391 56.1147 17.8828C55.7319 17.7266 55.4058 17.5098 55.1362 17.2324C54.8706 16.9512 54.6655 16.625 54.521 16.2539C54.3804 15.8789 54.3101 15.4766 54.3101 15.0469V14.8125C54.3101 14.3242 54.3804 13.8809 54.521 13.4824C54.6616 13.0801 54.8608 12.7344 55.1187 12.4453C55.3765 12.1562 55.6851 11.9336 56.0444 11.7773C56.4038 11.6211 56.8003 11.543 57.2339 11.543C57.6831 11.543 58.0796 11.6191 58.4233 11.7715C58.7671 11.9199 59.0542 12.1309 59.2847 12.4043C59.5151 12.6777 59.689 13.0059 59.8062 13.3887C59.9233 13.7676 59.9819 14.1875 59.9819 14.6484V15.2988H55.0132V14.2324H58.4585V14.1152C58.4507 13.8691 58.4038 13.6445 58.3179 13.4414C58.2319 13.2344 58.0991 13.0703 57.9194 12.9492C57.7397 12.8242 57.5073 12.7617 57.2222 12.7617C56.9917 12.7617 56.7905 12.8125 56.6187 12.9141C56.4507 13.0117 56.3101 13.1523 56.1968 13.3359C56.0874 13.5156 56.0054 13.7305 55.9507 13.9805C55.896 14.2305 55.8687 14.5078 55.8687 14.8125V15.0469C55.8687 15.3125 55.9038 15.5586 55.9741 15.7852C56.0483 16.0117 56.1558 16.209 56.2964 16.377C56.4409 16.541 56.6128 16.6699 56.812 16.7637C57.0151 16.8535 57.2456 16.8984 57.5034 16.8984C57.8276 16.8984 58.1206 16.8359 58.3823 16.7109C58.6479 16.582 58.8784 16.3926 59.0737 16.1426L59.853 16.9512C59.7202 17.1465 59.5405 17.334 59.314 17.5137C59.0913 17.6934 58.8218 17.8398 58.5054 17.9531C58.189 18.0625 57.8237 18.1172 57.4097 18.1172ZM64.019 11.6602V12.7734H60.3862V11.6602H64.019ZM61.3589 10.1016H62.9116V16.1719C62.9116 16.3594 62.937 16.5039 62.9878 16.6055C63.0386 16.707 63.1147 16.7754 63.2163 16.8105C63.3179 16.8457 63.439 16.8633 63.5796 16.8633C63.6812 16.8633 63.7749 16.8574 63.8608 16.8457C63.9468 16.834 64.019 16.8223 64.0776 16.8105L64.0835 17.9707C63.9546 18.0137 63.8081 18.0488 63.644 18.0762C63.4839 18.1035 63.3022 18.1172 63.0991 18.1172C62.7515 18.1172 62.4468 18.0586 62.1851 17.9414C61.9233 17.8203 61.7202 17.627 61.5757 17.3613C61.4312 17.0918 61.3589 16.7363 61.3589 16.2949V10.1016ZM70.1597 15.1934H71.771C71.728 15.7637 71.5698 16.2695 71.2964 16.7109C71.0229 17.1484 70.6421 17.4922 70.1538 17.7422C69.6655 17.9922 69.0737 18.1172 68.3784 18.1172C67.8433 18.1172 67.3608 18.0234 66.9312 17.8359C66.5054 17.6445 66.1401 17.373 65.8354 17.0215C65.5347 16.666 65.3042 16.2402 65.144 15.7441C64.9839 15.2441 64.9038 14.6836 64.9038 14.0625V13.4121C64.9038 12.791 64.9858 12.2305 65.1499 11.7305C65.314 11.2305 65.5483 10.8047 65.853 10.4531C66.1616 10.0977 66.5308 9.82422 66.9604 9.63281C67.394 9.44141 67.8784 9.3457 68.4136 9.3457C69.1089 9.3457 69.6968 9.47461 70.1772 9.73242C70.6577 9.98633 71.0308 10.3359 71.2964 10.7812C71.562 11.2266 71.7222 11.7383 71.7769 12.3164H70.1655C70.1343 11.957 70.0562 11.6523 69.9312 11.4023C69.8101 11.1523 69.6265 10.9629 69.3804 10.834C69.1382 10.7012 68.8159 10.6348 68.4136 10.6348C68.1011 10.6348 67.8257 10.6934 67.5874 10.8105C67.353 10.9277 67.1577 11.1035 67.0015 11.3379C66.8452 11.5684 66.728 11.8574 66.6499 12.2051C66.5718 12.5488 66.5327 12.9473 66.5327 13.4004V14.0625C66.5327 14.4961 66.5679 14.8848 66.6382 15.2285C66.7085 15.5723 66.8179 15.8633 66.9663 16.1016C67.1147 16.3398 67.3062 16.5215 67.5405 16.6465C67.7749 16.7715 68.0542 16.834 68.3784 16.834C68.7729 16.834 69.0933 16.7715 69.3394 16.6465C69.5894 16.5215 69.7788 16.3379 69.9077 16.0957C70.0405 15.8535 70.1245 15.5527 70.1597 15.1934ZM74.4194 9V18H72.8667V9H74.4194ZM74.1733 14.6016H73.7163C73.7163 14.1602 73.7749 13.7539 73.8921 13.3828C74.0093 13.0117 74.1753 12.6895 74.3901 12.416C74.605 12.1387 74.8608 11.9238 75.1577 11.7715C75.4585 11.6191 75.7905 11.543 76.1538 11.543C76.4663 11.543 76.7495 11.5879 77.0034 11.6777C77.2612 11.7637 77.4819 11.9023 77.6655 12.0938C77.8491 12.2852 77.9897 12.5352 78.0874 12.8438C78.189 13.1484 78.2397 13.5195 78.2397 13.957V18H76.6812V13.9453C76.6812 13.6523 76.6382 13.4219 76.5522 13.2539C76.4663 13.082 76.3433 12.959 76.1831 12.8848C76.0269 12.8105 75.8335 12.7734 75.603 12.7734C75.353 12.7734 75.1382 12.8223 74.9585 12.9199C74.7788 13.0137 74.6304 13.1445 74.5132 13.3125C74.3999 13.4805 74.314 13.6738 74.2554 13.8926C74.2007 14.1113 74.1733 14.3477 74.1733 14.6016ZM83.0972 16.6523V13.7285C83.0972 13.5137 83.0601 13.3281 82.9858 13.1719C82.9116 13.0156 82.7983 12.8945 82.646 12.8086C82.4937 12.7227 82.3003 12.6797 82.0659 12.6797C81.8589 12.6797 81.6772 12.7148 81.521 12.7852C81.3687 12.8555 81.2515 12.9551 81.1694 13.084C81.0874 13.209 81.0464 13.3535 81.0464 13.5176H79.4937C79.4937 13.2559 79.5562 13.0078 79.6812 12.7734C79.8062 12.5352 79.9839 12.3242 80.2144 12.1406C80.4487 11.9531 80.728 11.8066 81.0522 11.7012C81.3804 11.5957 81.7476 11.543 82.1538 11.543C82.6343 11.543 83.062 11.625 83.437 11.7891C83.8159 11.9492 84.1128 12.1914 84.3276 12.5156C84.5464 12.8398 84.6558 13.248 84.6558 13.7402V16.5059C84.6558 16.8223 84.6753 17.0938 84.7144 17.3203C84.7573 17.543 84.8198 17.7363 84.9019 17.9004V18H83.3257C83.2515 17.8398 83.1948 17.6367 83.1558 17.3906C83.1167 17.1406 83.0972 16.8945 83.0972 16.6523ZM83.314 14.1387L83.3257 15.0586H82.3472C82.105 15.0586 81.8921 15.084 81.7085 15.1348C81.5249 15.1816 81.3745 15.252 81.2573 15.3457C81.1401 15.4355 81.0522 15.5449 80.9937 15.6738C80.9351 15.7988 80.9058 15.9414 80.9058 16.1016C80.9058 16.2578 80.9409 16.3984 81.0112 16.5234C81.0854 16.6484 81.1909 16.748 81.3276 16.8223C81.4683 16.8926 81.6323 16.9277 81.8198 16.9277C82.0933 16.9277 82.3315 16.873 82.5347 16.7637C82.7378 16.6504 82.896 16.5137 83.0093 16.3535C83.1226 16.1934 83.1831 16.041 83.1909 15.8965L83.6362 16.5645C83.5815 16.7246 83.4995 16.8945 83.3901 17.0742C83.2808 17.2539 83.1401 17.4219 82.9683 17.5781C82.7964 17.7344 82.5894 17.8633 82.3472 17.9648C82.105 18.0664 81.8237 18.1172 81.5034 18.1172C81.0933 18.1172 80.7261 18.0352 80.4019 17.8711C80.0776 17.707 79.8218 17.4824 79.6343 17.1973C79.4468 16.9121 79.353 16.5879 79.353 16.2246C79.353 15.8887 79.4155 15.5918 79.5405 15.334C79.6655 15.0762 79.8511 14.8594 80.0972 14.6836C80.3433 14.5039 80.6479 14.3691 81.0112 14.2793C81.3784 14.1855 81.7983 14.1387 82.271 14.1387H83.314ZM89.0503 11.6602V12.7734H85.4175V11.6602H89.0503ZM86.3901 10.1016H87.9429V16.1719C87.9429 16.3594 87.9683 16.5039 88.019 16.6055C88.0698 16.707 88.146 16.7754 88.2476 16.8105C88.3491 16.8457 88.4702 16.8633 88.6108 16.8633C88.7124 16.8633 88.8062 16.8574 88.8921 16.8457C88.978 16.834 89.0503 16.8223 89.1089 16.8105L89.1147 17.9707C88.9858 18.0137 88.8394 18.0488 88.6753 18.0762C88.5151 18.1035 88.3335 18.1172 88.1304 18.1172C87.7827 18.1172 87.478 18.0586 87.2163 17.9414C86.9546 17.8203 86.7515 17.627 86.6069 17.3613C86.4624 17.0918 86.3901 16.7363 86.3901 16.2949V10.1016Z" fill="#898989"/>
<g clip-path="url(#clip0_107_3279)">
<path d="M5.89073 8.54146H8.247H17.9666V11.4868L20.3228 12.6649V17.0829V20.6173L20.0283 21.5009H5.30167L4.12354 19.7337V7.95239L5.89073 8.54146Z" fill="#898989"/>
<path d="M4.12354 6.47961C4.12354 5.90677 4.3511 5.35739 4.75616 4.95232C5.16122 4.54726 5.7106 4.3197 6.28344 4.3197H17.083C17.3694 4.3197 17.6441 4.43348 17.8466 4.63601C18.0492 4.83854 18.1629 5.11323 18.1629 5.39966V11.4867L20.3228 12.9593V9.71947C20.3228 9.43305 20.2091 9.15836 20.0065 8.95583C19.804 8.7533 19.5293 8.63952 19.2429 8.63952H6.28344C5.7106 8.63952 5.16122 8.41196 4.75616 8.0069C4.3511 7.60183 4.12354 7.05245 4.12354 6.47961ZM4.12354 6.47961V19.4391C4.12354 20.0119 4.3511 20.5613 4.75616 20.9663C5.16122 21.3714 5.7106 21.599 6.28344 21.599H19.2429C19.5293 21.599 19.804 21.4852 20.0065 21.2827C20.2091 21.0801 20.3228 20.8054 20.3228 20.519V17.2791" stroke="#898989" stroke-width="1.17813" stroke-linecap="round" stroke-linejoin="round"/>
<path d="M16.7222 19.1446L16.0521 17.1344C16.6312 16.2779 16.8407 15.2636 16.6416 14.2801C16.4426 13.2966 15.8485 12.4108 14.9698 11.7875C14.0912 11.1641 12.9877 10.8456 11.8647 10.8911C10.7416 10.9367 9.67542 11.3432 8.86425 12.035C8.05308 12.7269 7.55217 13.6571 7.45466 14.6526C7.35714 15.6482 7.66965 16.6413 8.33409 17.4474C8.99852 18.2535 9.96966 18.8176 11.0669 19.035C12.1642 19.2524 13.313 19.1082 14.2996 18.6292L16.7222 19.1446" fill="#E5E5E5"/>
</g>
<defs>
<clipPath id="clip0_107_3279">
<rect width="25.9189" height="25.9189" rx="12.9594" fill="white"/>
</clipPath>
</defs>
</svg>
