<?xml version="1.0" encoding="utf-8"?>
<!-- Generator: Adobe Illustrator 26.1.0, SVG Export Plug-In . SVG Version: 6.00 Build 0)  -->
<svg version="1.1" xmlns="http://www.w3.org/2000/svg" xmlns:xlink="http://www.w3.org/1999/xlink" x="0px" y="0px"
	 viewBox="0 0 2100 2100" style="enable-background:new 0 0 2100 2100;" xml:space="preserve">
<style type="text/css">
	.st0{fill:#FFFFFF;}
	.st1{fill:#FF594E;}
</style>
<g id="Vector_layer_00000017502557190622998580000004007194461112418478_">
</g>
<g id="Vector_layer_00000131362608085628764530000005639189464837860244_">
</g>
<g id="Vector_layer_00000163788420611326139040000009235795791231853442_">
	<g>
		<path d="M900.5,465.4c0.9-17.7,1-34.1,2.7-50.2c7.2-69.4,36-127.9,87.6-175.4c52.4-48.4,113.3-79.9,182.4-96.3
			c48.5-11.5,96.9-23.9,145.7-34.2c24-5.1,48.7-8,73.2-8.8c36.6-1.2,73.3-0.7,109.8,1.1c52.6,2.6,104.5,11.5,155.4,25.3
			c21.5,5.8,42.9,12,64,19.1c36.6,12.4,69.7,31.4,99.9,55.5c40.3,32,77.8,66.9,108.2,108.7c8,11,15.3,22.7,21.7,34.6
			c20.8,38.8,38.6,78.8,50.3,121.5c10.1,36.9,22.4,73.2,31.5,110.3c15.9,64.7,21.8,130.5,20.3,197.1c-1.4,61.1-7.7,121.5-22.9,180.9
			c-17.5,68.5-45.6,132-88.9,188.3c-6.1,7.9-11.4,16.4-17,24.7c-27.3,40.7-60,76.4-99.3,105.9c-21.7,16.3-44.9,29.8-70.4,39.3
			c-1.8,0.7-3.5,1.7-5.8,2.8c0,3.7,0,7.3,0,10.9c0,102.6-0.1,205.2,0.1,307.8c0.1,37.3,1.1,74.6,1.1,111.9
			c0,48.6-0.5,97.2-1.2,145.8c-0.4,29.2-9.6,55-32.6,74.4c-5,4.2-10.6,8.2-16.5,11c-20.3,9.6-41.9,14.4-64.1,17.6
			c-25.5,3.7-51.1,2.6-76.6,2.6c-163.9,0.2-327.7-0.2-491.6-0.2c-262.4-0.1-524.9,0-787.3,0c-38.6,0-77.3-0.2-115.9,0.1
			c-8,0.1-14.8-2.1-21.7-5.9c-31.1-16.8-47.8-44.4-58.1-76.8c-1.5-4.6-1.1-9.9-1.1-14.8c0-238.5-0.1-477,0-715.5
			c0-78.9,0.3-157.9,0.3-236.8c0-68.9-0.3-137.9-0.5-206.8c-0.1-28.3-0.2-56.6-0.6-84.9c-0.4-29.3,8.1-56.5,19.5-82.9
			c3-6.9,7.9-13.1,12.6-19.2c18.4-24.2,38.4-47,63.3-64.7c20.5-14.6,43.5-23.2,68.9-23.3c57.6-0.4,115.2-0.4,172.8-0.5
			c57.6-0.1,115.2,0,172.8,0c98.6,0,197.2,0,295.7,0C892.2,465.4,896.1,465.4,900.5,465.4z M1380,189.4
			c-467.9,14.2-426.4,301-263.3,639.7c212,449.3,15.6,674.7,414.4,480.5c266.2-117.2,512.8-379.4,416.6-689.6
			C1874.7,324.7,1685.2,195.7,1380,189.4z M885.4,1252.3c2.7-7.8,5.8-15.2,7.8-22.8c15-55.3,13.8-110.7-1.1-165.7
			C870.9,986,827.7,921,772.9,863.3c-29.7-31.2-65.7-54.1-103.9-73.5c-21.3-10.8-43.4-20.3-65-30.7c-25.8-12.4-43.5-5.5-53.6,21.3
			c-1.5,4-2.7,8.2-3.7,12.4c-2.4,9.7-5,19.3-6.9,29.1c-1.2,6.5-2.4,13.3-1.8,19.8c2.7,28.3,10.8,55.1,28.8,77.5
			c9.9,12.3,22,22.7,33.1,34.1c2.3,2.4,4.9,4.6,6.5,7.4c26.9,45.2,55.2,89.6,77.1,137.6c1.4,3,2.7,6,4.5,10
			c-7.1,5.7-13.7,11.7-21.1,16.7c-14.9,10-30.4,10.5-46,1c-5.7-3.5-11.4-7-17.3-9.9c-6.3-3.1-13-5.4-20.2-3.4
			c-13.2,3.6-24,11.2-33.7,20.6c-2.6,2.5-4,5.8-1,10.4c6.9-9.8,16.6-14,26.4-18.1c7.6-3.2,15.1-2.4,22.1,1.6c4,2.3,7.8,5.1,11.5,7.9
			c5.3,4,10.3,8.4,15.7,12.3c13.6,9.9,28.5,11.1,43.4,3.9c8.3-4,15.5-10.1,23.1-15.4c2.6-1.8,4.9-4,7.7-6.4
			c20,40.4,40.3,79.4,67.5,116.1c-40.7,4.6-78.4,14-115.3,26.6c-37.2,12.6-72.9,28.6-108.1,47c-0.3-1.8-0.7-2.7-0.6-3.6
			c2.2-14.7,0.4-29.3-1.9-43.7c-5.5-35.4-19.4-67.7-37.6-98.2c-36.8-61.6-83.4-114.5-140.8-157.8c-12-9-24.4-17.4-36-26.9
			c-30.2-24.8-62.6-46.4-96.2-66.1c-33.8-19.7-70.2-25.5-108.8-19.7c-14.2,2.1-23,10.2-29.2,22.8c-7.2,14.6-7.2,29.7-4.7,44.9
			c4,23.6,7.2,47.3,14.9,70.1c9.6,28.5,20.3,56.3,39.7,80c14.8,18.1,31.2,34.6,49.3,49.4c16.2,13.3,33.4,25.4,49.5,38.9
			c36.4,30.7,72.1,62.2,105.3,96.5c9.7,10,20,19.6,30.5,28.8c21.9,19.3,46.1,35,74.3,43.8c1.1,0.3,2,1,3.5,1.8
			c-45,50-68.9,109.2-83.9,173.7c8.6,1.9,16.5,3.3,24.1,5.4c7.3,2,14.5,4.6,21.6,7.4c3.6,1.4,6,4.2,5.6,8.5
			c-0.4,4.1-2.9,6.8-6.6,7.9c-3.5,1-7.1,1.9-10.7,1.9c-6.6,0-13.3-0.9-19.9-1.1c-6.2-0.2-12.5,0-19.4,0c-2.8,17.4-4.9,34.7-4.9,52.8
			c4,0.2,7.3,0.4,10.5,0.5c10.3,0.3,20.6,0.5,30.9,1c3.3,0.1,6.9,0.6,7.2,5.2c0.3,4.4-2.2,6.8-6.2,7.8c-3.5,0.9-7.2,1.5-10.8,2
			c-10.4,1.4-20.9,2.8-31.9,4.2c0,20.8,2.2,40.3,6.8,60.2c21.7-7,39.3-21.1,61-24c5.9,9.1,5.6,14.9-2.3,20.9
			c-13.8,10.4-28.1,20.2-42.2,30.2c-2.1,1.5-4.2,3-6.7,4.7c12,30.9,27.4,58.9,52.7,80.4c18.9,16,39.5,29.4,61.4,40.9
			c58.5,30.5,121.1,46,186.6,49.7c69.2,3.9,137.7-1.1,205.2-17.7c40.2-9.9,79.1-23.6,114.5-45.7c7.6-4.7,15.2-9.8,21.6-15.9
			c68-65.5,112.6-144.3,134-236.3c0.6-2.8,0.7-5.7,1.1-8.8c-12.3-1.6-23.8-3-35.3-4.7c-6.2-0.9-8.6-3.8-8.8-10
			c-0.2-5.9,1.7-11.5,10.2-11.8c12.9-0.4,25.8-1.4,39.1-2.2c1-8.4,1.9-15.9,2.8-22.8c-6.6-5.2-12.6-9.8-18.8-14.6
			c-2.7,4.1-4.6,7-7,10.5c-4.8-4.7-6.3-10.1-5.3-15.1c3.9-18.9,8.4-37.6,13-56.3c1.8-7.2,5.2-13.7,13.1-17.9
			c-3.3-11.8-6.5-23.5-10.1-36.7c-16.5,12.6-32.4,23-43.3,39.7c-7.1-6.3-7.8-13.2-4.1-19.7c3.6-6.3,8.2-12.1,13.3-17.3
			c7.9-8.1,16.4-15.5,24.4-22.9c-0.2-1.3-0.1-2-0.3-2.6c-0.5-1.2-1-2.5-1.6-3.6c-12.8-25.9-29.7-48.9-51.3-68.3
			c-44.1-39.5-97-58.3-155-64.3C914.4,1253.6,900.1,1253.2,885.4,1252.3z M511.5,835.6c0-12.7-0.5-24,0.1-35.2
			c1.1-19.4,7-37.3,18.5-53c22.4-30.3,56-44.7,93.1-32.4c22.3,7.4,43.6,17.9,64.9,28c9.8,4.7,19.2,10.9,27.4,18.1
			c17.1,14.9,34.8,28.7,53.9,41c15.4,9.8,30.1,20.8,44.9,31.5c4,2.9,8.1,4,13,4c65.9-0.1,131.8-0.1,197.8-0.1c2.5,0,4.9-0.5,7.6-0.7
			c-0.4-1.8-0.5-2.8-0.9-3.7c-11-27.1-22.7-53.7-38.5-78.7c-38.6-61.2-67-127-81.3-198.4c-1.7-8.7-3.3-17.5-5-26.3
			c-2.8-0.2-4.7-0.4-6.7-0.5c-45.6-0.7-91.2-2-136.8-1.8c-48.9,0.2-97.8,2.6-146.8,2.8c-61.9,0.4-123.8-0.5-185.7-0.7
			c-39.9-0.1-79.9-0.3-119.8,0c-20,0.2-39.7,2.3-58.3,11c-7.8,3.6-16.3,5.8-24.2,9.1c-4.9,2-9.8,4.4-13.9,7.7
			c-26,20.3-46.5,44.8-54.9,77.6c-2.5,9.6-3.7,19.6-4.9,29.5c-4.1,34.8-3,69.1,10.6,102.1c3.9,9.4,8.4,18.1,16.2,24.8
			c16.9,14.7,35.4,26.8,57,33.9c24.8,8.2,50.3,12.7,76.3,14c62.6,3,125.1,0.5,187.7-2.6C505.9,836.5,508.8,835.9,511.5,835.6z
			 M1232,1820.4c-0.5,0.9-0.3,0.2,0.2-0.2c0.9-1,1.8-2,2.8-2.9c24.9-24,53.9-39.5,88.3-45.3c22-3.7,40.9,1.8,57.1,16.8
			c6.3,5.9,12.1,12.4,18,18.7c8.4,9,16.5,18.3,25.2,27c17.8,17.5,39.1,28.6,63.6,33.4c6.9,1.3,13.8,2,20.7,3.2
			c17.3,3,34.5,2.7,51.5-1.9c55.4-15,93.4-50.7,117.9-101.3c6.9-14.1,9.2-29.9,5.6-45.8c-1.2-5.4-3.5-10.1-8.3-13.1
			c-5.3-3.3-9.2-3.2-13.2,1.6c-3.5,4.3-6.5,9.2-8.9,14.3c-10.8,22.7-26.5,41.4-46,57c-57.5,45.9-143.7,39.7-189.2-10.2
			c-6.5-7.1-13.9-13.4-20.8-20.2c-17.7-17.1-39.2-23.2-62.6-18.3c-52.6,10.9-92.5,40.9-121.5,85.5c-3.3,5.1-3.9,12.7-3.7,19.1
			c0.2,8,6.8,12.8,14.1,12.4c7.7-0.5,14.4-6.4,14-14.1C1236.4,1831.1,1233.9,1826.4,1232,1820.4z M1319.7,1649
			c16.9-22,38.2-31.9,63.5-34.2c26-2.4,48.4,7.1,68.6,22.3c10.9,8.2,20.5,18,31.1,26.6c10.1,8.1,20.4,16,31.1,23.2
			c8.3,5.6,18.1,7.2,27.8,4.5c9.5-2.6,19.3-5.5,27.8-10.3c10.9-6.3,21.2-13.9,30.6-22.2c22.1-19.6,40.2-42.5,53.8-68.8
			c6-11.8,7.2-24.1,4.3-36.9c-1.6-7-6.6-12-11.7-12.2c-6.7-0.2-8.4,5.3-10.9,10c-4.4,8.2-7.7,17.3-13.6,24.3
			c-14.7,17.6-29.9,34.8-46.1,51c-7.3,7.3-17.1,12.7-26.5,17.4c-14.3,7.1-29,6.6-42.8-2.1c-7.9-4.9-15.6-10.2-23.2-15.5
			c-14.5-10.2-29.3-19.6-45.9-25.9c-13.5-5.2-27.6-9.1-41.9-6.8c-26.2,4.1-49.6,14.9-69,33.2c-4.4,4.2-7.5,10-10.4,15.6
			c-2.4,4.6-1.7,10,1.3,14.2c1,1.4,3.9,1.5,6,2.1c0.5-2.1,1.7-4.3,1.2-6.1C1324.2,1650.9,1321.6,1650.2,1319.7,1649z M1318.2,1538.6
			c1.2-1.6,2.5-2.5,2.6-3.5c0.6-7.3,5.4-12,10.1-16.7c13.3-13.2,29.5-21.2,47.1-27.1c10.5-3.5,20.4-2.6,29.8,2.7
			c7.8,4.4,15.5,9.2,22.7,14.5c15.2,11.3,31.6,19.2,50.1,23.5c30.8,7.2,61.3,8.1,91.4-3c50.3-18.7,80.7-56.9,100-105.1
			c3.4-8.5,2.6-17.9-1.7-26.2c-3.4-6.7-10.3-6.7-13.9-0.2c-2,3.8-3.3,8-4.7,12.1c-8.4,25.6-22.7,47.2-43.4,64.5
			c-47.6,39.8-121.4,44.2-170.6,15.7c-9.5-5.5-19.3-10.4-29.1-15.3c-6.5-3.3-13.2-3.9-20.4-2.2c-24.2,5.7-45.4,16.9-63,34.6
			c-3.9,3.9-7.1,8.9-9.4,13.9C1313.5,1526.5,1312.8,1532.7,1318.2,1538.6z M1122.7,1003.1c-2.8,5.5-5.5,10.8-8.3,16
			c-6.1,11.5-12.7,22.7-22.3,31.7c-13,12.1-27.8,15.5-44.1,8c-10.2-4.7-20-10.5-29.9-15.9c-7.6-4.1-14.9-8.8-22.7-12.6
			c-8-3.9-16.8-5.1-25.3-2.4c-13.3,4.2-24.8,11.7-32.3,23.8c-2.8,4.6-3.7,10.5-4.6,15.9c-0.5,3.2,0.4,6.7,5.6,7.8
			c0.9-1.7,1.8-3.7,2.9-5.5c2-3.4,3.5-7.2,6.2-9.9c13.3-13.3,27.7-16,44.5-7.4c10.3,5.3,19.6,12.5,29.4,18.7
			c9.5,6.1,18.8,12.6,28.8,17.8c18.5,9.6,35.4,6,50.2-8.3c15-14.5,24.9-32,30-52.1c1.2-4.8,1.8-9.9,1.6-14.8
			C1132.2,1008.9,1130.4,1004.1,1122.7,1003.1z M989.7,1215.3c5.4-6.6,6-8.6,5.2-15.9c-0.2-2.2-0.8-4.7-0.2-6.7
			c5-14.1,19.7-21.3,34-16.3c5.6,2,11,4.8,16,7.9c7.1,4.4,13.7,9.5,20.6,14c6.7,4.4,13.2,9.3,20.4,12.4
			c28.1,12.3,45.1,7.2,61.7-10.6c10.8-11.7,20.2-24.7,29.6-37.6c5.2-7.1,3.5-15.7-3.6-21.2c-2.4,2.5-4.9,5-7.3,7.7
			c-7.3,8.2-14,17-21.9,24.6c-19.1,18.5-37.1,21.4-60.9,9.5c-9.5-4.7-18.1-11.1-27.3-16.4c-7.4-4.3-14.9-8.8-22.7-12.3
			c-6.5-2.9-13.5-3.2-20.5-0.8c-17.1,6-31.8,26.9-31.1,45C982,1204.8,982.2,1211.5,989.7,1215.3z M384.6,1794.6
			c-2.7,1.5-5.5,3.1-8.3,4.7c-7.6,4-15.1,8.3-23,12c-14.1,6.6-28.9,7.7-43.8,3.4c-12.4-3.6-24.8-7.6-36.9-12.1
			c-13.2-4.9-26.7-5.5-40.3-3.7c-11,1.4-21.4,4.8-30.4,11.7c-8.8,6.8-13.1,15.8-12,27c0.2,1.6,1.4,3.2,2.5,5.7
			c0.8-2.1,1.6-3,1.5-3.8c-1.3-11.3,5.3-17.2,14.6-21.1c13.2-5.6,27-8.1,40.9-3.9c11.1,3.4,21.7,8.2,32.4,12.8
			c10.7,4.6,21,9.9,31.8,14.3c12.3,5,24.8,4.4,36.9-0.9c9.7-4.3,19.2-9.2,28.7-14c2.6-1.3,5.1-3.3,7.2-5.3
			C394.1,1813.4,393.5,1803.4,384.6,1794.6z M428.5,981.8c9.1-6.4,18.6-8.4,28.3-7.2c10.2,1.3,20.2,3.7,30.2,6
			c12.3,2.8,24.3,6.9,36.7,8.9c22.9,3.8,40.2-5.7,51-26.2c2.5-4.8,2.7-9.5,1.5-14.5c-1.5-6.2-4.6-7.9-10-4.9
			c-4.3,2.4-8.5,5.3-12.1,8.7c-10.8,10.1-23.5,13.1-37.8,10.9c-3.9-0.6-7.9-1.1-11.8-1.8c-13.4-2.5-26.6-5.8-40.1-7.5
			c-18-2.3-33.6,3.1-45.2,17.5c-3.6,4.5-6.5,9.5-4.6,15.6c1.1,3.5,2.6,7.4,7.1,7.2c4.3-0.2,6.2-3.4,6.5-7.5
			C428.3,985.4,428.4,983.7,428.5,981.8z M173.6,1435.8c1.8-0.9,2.8-1.1,2.9-1.5c1.2-3.4,2.3-6.9,3.2-10.3c6.3-24,20.3-35,45-32.7
			c12.7,1.2,25.3,5.1,37.8,8.6c14,4,27.9,8.8,41.7,13.4c7.1,2.4,13.8,1.3,20.3-1.8c11.5-5.5,20.4-14,25.4-25.7
			c1.8-4.3,1.8-9.7,1.4-14.5c-0.5-4.8-4-6.1-7.9-3.3c-4,2.9-7.6,6.5-11.1,10c-10.2,10.2-22.5,13.8-36.5,11.8
			c-6.9-1-13.7-2.6-20.4-4.5c-10.6-2.9-21-6.4-31.5-9.3c-10-2.7-20.2-4.4-30.6-2.3c-21.1,4.2-42.3,31-41.6,52.6
			C171.8,1429.4,172.9,1432.4,173.6,1435.8z M327.8,1565.4c-3.4,2-6.9,3.8-10.1,6c-10.2,7.1-21.6,10.1-34,9.6
			c-9-0.4-18-0.5-26.9-1.6c-28.3-3.3-52.3,6.9-74.3,23.2c-3.9,2.9-7.5,6.9-9.9,11.1c-2.3,4.2-3.3,9.3-4.1,14.1
			c-0.3,1.5,1.8,3.4,3.6,6.5c6-17.8,19.2-25.5,33.5-31.4c18.1-7.4,36.9-8.1,55.8-3.3c7.7,2,15.5,3.7,23.3,5.6
			c17.8,4.3,31-3.9,42.6-15.9c2.6-2.7,4.2-6.8,5.3-10.5C334.1,1573.8,333.1,1569,327.8,1565.4z"/>
		<path class="st0" d="M1380,189.4c91.1-0.8,158.7,14,224.7,37.3c30.7,10.8,61.1,22.7,91.3,35c32,13,60.7,31.4,86.5,54.6
			c16.4,14.7,32,30,45.9,47.1c20.8,25.5,35.3,54.8,50.2,83.8c10.1,19.8,19.4,40.1,29.1,60.2c17.4,36.1,29.8,73.9,39.9,112.7
			c12.8,49.4,18.1,99.5,18.5,150.2c0.4,61.7-13.1,120.9-35.9,178c-10.7,26.8-27.5,50.1-42.5,74.5c-40.5,65.6-94.1,119.1-155.5,164.6
			c-63.2,46.8-130.9,86.8-201.1,122.3c-46.1,23.3-93.7,43-143.2,58c-17.2,5.2-34.8,9.2-52.8,10.4c-19.7,1.4-39.2,1.1-57.9-6.8
			c-4.4-1.9-6.7-4.5-8.6-8.8c-7.1-16.5-8.9-34.1-11.8-51.4c-14.1-84.7-29.8-169.2-57.9-250.6c-26.7-77.4-53.6-154.7-82.4-231.3
			c-19.8-52.6-43.1-103.9-64.3-156c-17.8-43.8-33.5-88.4-42-135.1c-3.6-19.9-5-40.2-7.3-60.4c-0.3-2.6,0.3-5.5-0.5-7.9
			c-9.3-28.9-2.6-56.8,5.4-84.4c16-55.4,50.1-96.9,99.8-125.9c12.6-7.4,25.3-14.8,37.8-22.4c34.1-20.8,71.4-32.3,110.9-36.9
			C1304.2,194.6,1352.2,189.5,1380,189.4z M1576,713.4c-1.1-8.5-2.1-24.8-5.6-40.6c-5.1-22.4-15.3-42.6-33-58
			c-14.4-12.6-30.6-15.5-48-6.5c-3.7,1.9-7.1,2.6-11.3,2.1c-13.1-1.7-24.6,2.6-33,12.6c-5,6-9.3,13.1-12.3,20.3
			c-8.3,20.6-9.7,41.9-5,63.6c3.1,14.5,10.7,27,16.6,40.3c8,18.2,18.6,33.6,34.6,45.3c7,5.1,13.2,11.3,20.6,15.6
			c21.6,12.6,46.9,6.2,60.1-14.9c3.8-6.1,6.7-13,9-19.9C1574.4,756.6,1575.4,738.9,1576,713.4z M1836.8,711.1
			c0.3-18.7-1.9-37.2-6.4-55.4c-5.2-21.2-13-41.3-28.1-57.7c-20.3-22-42.9-22.4-64.2-1.5c-1.4,1.4-2.8,2.8-4.1,4.3
			c-11.1,13-20.8,27.3-26.5,43.2c-16.8,47.2-11.5,92.2,16.7,134.1c7.2,10.7,17.1,17.8,29.8,20.1c8.5,1.5,17.1,2.8,25.7,2.9
			c17.6,0.2,31.7-7.2,41.1-22.1c4.1-6.4,7.2-13.5,9.6-20.7C1835.7,743.1,1837.1,727.1,1836.8,711.1z M1194.1,671.5
			c0.3,0.1,0.6,0.2,1,0.2c0.7,8.3,1.1,16.6,2.1,24.8c3,24.7,9.4,48.3,22.1,69.8c7.2,12.2,16.3,22.6,28.9,29.7
			c9.2,5.2,18.5,5.7,27.5,0.2c22.9-13.9,40.8-31.7,47.5-58.9c5.7-22.6,6.5-45.4,3-68.3c-3.1-20.2-9-39.5-19.6-57.2
			c-7.5-12.4-16.8-23.1-29.5-30.6c-15.4-9.1-30.4-8.4-44.7,2.2c-15.7,11.6-27.8,25.9-31.6,45.6
			C1198,643.3,1196.2,657.5,1194.1,671.5z"/>
		<path class="st0" d="M885.4,1252.3c14.8,0.9,29,1.3,43.1,2.8c58,6,110.8,24.8,155,64.3c21.6,19.3,38.4,42.3,51.3,68.3
			c0.6,1.2,1.2,2.4,1.6,3.6c0.2,0.6,0.2,1.3,0.3,2.6c-8,7.4-16.6,14.8-24.4,22.9c-5,5.2-9.7,11-13.3,17.3
			c-3.7,6.5-3.1,13.4,4.1,19.7c10.9-16.7,26.8-27.2,43.3-39.7c3.6,13.2,6.8,24.8,10.1,36.7c-7.9,4.2-11.3,10.6-13.1,17.9
			c-4.6,18.7-9.1,37.5-13,56.3c-1,5,0.4,10.4,5.3,15.1c2.3-3.5,4.2-6.4,7-10.5c6.2,4.8,12.2,9.5,18.8,14.6
			c-0.8,6.9-1.8,14.4-2.8,22.8c-13.4,0.8-26.3,1.8-39.1,2.2c-8.5,0.2-10.4,5.9-10.2,11.8c0.2,6.2,2.5,9.1,8.8,10
			c11.5,1.7,23,3.1,35.3,4.7c-0.4,3.1-0.5,6-1.1,8.8c-21.4,92-66,170.8-134,236.3c-6.4,6.2-14.1,11.2-21.6,15.9
			c-35.4,22.1-74.2,35.8-114.5,45.7c-67.4,16.6-136,21.6-205.2,17.7c-65.6-3.7-128.2-19.2-186.6-49.7
			c-21.9-11.4-42.5-24.8-61.4-40.9c-25.3-21.5-40.8-49.5-52.7-80.4c2.5-1.8,4.6-3.2,6.7-4.7c14.1-10,28.4-19.7,42.2-30.2
			c8-6,8.2-11.8,2.3-20.9c-21.7,2.9-39.3,17-61,24c-4.6-20-6.7-39.5-6.8-60.2c11-1.4,21.5-2.8,31.9-4.2c3.6-0.5,7.2-1.1,10.8-2
			c4-1,6.5-3.4,6.2-7.8c-0.3-4.6-3.9-5-7.2-5.2c-10.3-0.5-20.6-0.7-30.9-1c-3.2-0.1-6.5-0.3-10.5-0.5c-0.1-18.2,2-35.5,4.9-52.8
			c6.9,0,13.1-0.2,19.4,0c6.7,0.2,13.3,1.1,19.9,1.1c3.6,0,7.2-0.9,10.7-1.9c3.8-1.1,6.2-3.8,6.6-7.9c0.4-4.3-2-7.1-5.6-8.5
			c-7.1-2.7-14.3-5.3-21.6-7.4c-7.6-2.1-15.4-3.5-24.1-5.4c15-64.5,38.9-123.6,83.9-173.7c-1.4-0.7-2.4-1.4-3.5-1.8
			c-28.2-8.8-52.3-24.5-74.3-43.8c-10.5-9.2-20.8-18.8-30.5-28.8c-33.2-34.3-68.9-65.8-105.3-96.5c-16-13.5-33.2-25.6-49.5-38.9
			c-18.1-14.8-34.5-31.3-49.3-49.4c-19.4-23.7-30-51.6-39.7-80c-7.7-22.8-11-46.6-14.9-70.1c-2.6-15.1-2.5-30.3,4.7-44.9
			c6.2-12.6,15-20.7,29.2-22.8c38.5-5.8,75,0,108.8,19.7c33.7,19.7,66,41.3,96.2,66.1c11.6,9.5,24,17.9,36,26.9
			c57.3,43.3,104,96.2,140.8,157.8c18.2,30.5,32.1,62.8,37.6,98.2c2.2,14.5,4,29,1.9,43.7c-0.1,0.9,0.3,1.9,0.6,3.6
			c35.1-18.4,70.9-34.3,108.1-47c36.9-12.5,74.6-22,115.3-26.6c-27.2-36.7-47.5-75.7-67.5-116.1c-2.9,2.4-5.2,4.6-7.7,6.4
			c-7.6,5.3-14.9,11.4-23.1,15.4c-14.9,7.2-29.8,6-43.4-3.9c-5.4-3.9-10.4-8.3-15.7-12.3c-3.7-2.8-7.5-5.6-11.5-7.9
			c-7-4-14.4-4.8-22.1-1.6c-9.8,4.1-19.5,8.3-26.4,18.1c-3-4.6-1.6-7.8,1-10.4c9.6-9.4,20.5-17,33.7-20.6c7.2-2,13.9,0.3,20.2,3.4
			c6,2.9,11.6,6.5,17.3,9.9c15.6,9.5,31,9,46-1c7.4-4.9,14-11,21.1-16.7c-1.8-4-3.2-7-4.5-10c-21.8-48-50.1-92.4-77.1-137.6
			c-1.7-2.8-4.2-5.1-6.5-7.4c-11.1-11.3-23.2-21.8-33.1-34.1c-18-22.4-26.1-49.2-28.8-77.5c-0.6-6.5,0.6-13.3,1.8-19.8
			c1.9-9.8,4.5-19.4,6.9-29.1c1.1-4.2,2.2-8.4,3.7-12.4c10.2-26.8,27.9-33.7,53.6-21.3c21.6,10.4,43.6,19.8,65,30.7
			c38.2,19.4,74.2,42.3,103.9,73.5c54.8,57.7,98,122.8,119.2,200.5c15,55,16.2,110.4,1.1,165.7
			C891.1,1237.1,888.1,1244.5,885.4,1252.3z M856.3,1578c0.4,1.8,0.8,3.1,1,4.3c5.4,28.3,6.7,56.8,5.9,85.5
			c-0.3,13.3-1.2,26.6,4,40.4c-16.3,1.7-31.6,4.6-46.2-4c-1.6-0.9-4.2-1.5-5.7-0.9c-5.6,2.6-10.5,0-15.4-1.6
			c-41.8-13.5-78.5-35.9-111.3-64.8c-16.3-14.4-30.9-30.3-42.3-48.9c-3.3-5.4-6.1-10.7-5.2-17.7c0.5-3.7-1-8-2.7-11.4
			c-1.1-2.3-4.1-4.6-6.5-5c-1.5-0.2-4.4,3-5.1,5.2c-1.6,5.4-2.9,11-3.3,16.5c-1.8,22.8,5.2,43.6,16.8,62.7
			c20.3,33.3,44.2,63.1,79.5,82.1c9,4.8,16.7,12,24.8,18.2c4.2,3.2,7.6,7.4,12.1,9.9c5.7,3.2,12.1,5.4,18.3,7.6
			c12.1,4.3,24.4,8.2,36.3,12.2c0,4.6,0.1,7.9,0,11.2c-0.8,23.7,1.7,47.2,5.6,70.6c2.3,14.2,10.6,24.5,25.1,28
			c5.4,1.3,11.3,1.1,16.9,0.8c14-0.7,27.9-2,41.8-2.7c12-0.6,23.9-0.8,35.9-1.3c14.9-0.7,25.5-7.8,32.6-21.1
			c11.3-21.3,16.7-44.3,17.7-68c1-22.6,0.5-45.2,0.2-67.8c-0.1-5,0.7-8.8,4-12.7c9.9-11.7,19.5-23.6,29.1-35.5
			c1.8-2.3,3.3-4.8,4.6-7.5c1.5-3.2,2.2-6.8,4-9.8c12-20,24.4-39.7,36.2-59.8c5.4-9.2,10-18.8,14.4-28.5c5.8-12.9,8.5-26.6,7.8-40.8
			c-0.3-7.6-2.6-14.4-7.2-20.4c-7-8.9-15-8.4-20.8,1.1c-0.7,1.1-1.3,2.3-1.8,3.6c-20.7,48.4-49.6,91.9-80.6,134.1
			c-19.6,26.6-46.1,43.8-76.4,55.7c-0.9,0.3-1.9,0.2-3,0.4c-0.1-1.1-0.4-2.1-0.4-3.1c1.8-42.7,1.8-85.2-5.7-127.4
			c-2.1-11.8-2.7-23.6-1.2-35.7c0.9-7.9-1.4-16.4-3.2-24.5c-0.8-3.7-3.2-7.4-5.8-10.2c-5.1-5.7-10.8-5.5-16.6-0.6
			c-2.2,1.8-4.6,4.3-7.1,4.5c-13.5,1.5-19.2,10.3-22.5,22c-3.7,12.9,0.5,25.1,3.2,37.3C840.3,1569.8,844.7,1577.8,856.3,1578z
			 M1003.9,1425.1c-0.3-4.7-0.3-9.3-0.9-14c-1.5-11.9-3.5-23.7-9.6-34.4c-3.5-6.1-8.2-11.1-15.6-10.9c-10.3,0.3-20,3.2-25.7,12.8
			c-3.5,6-6.7,12.4-8.6,19c-6.2,22.3-5.8,44.8,0.4,67.1c1.9,6.6,4.9,13.2,8.9,18.8c8,11.4,22.3,12.3,31.9,2.1
			c4.2-4.5,7.6-10.1,10.2-15.8C1001.4,1455.6,1004.2,1440.6,1003.9,1425.1z M698.9,1475.4c0.2,4.3,0.1,8.7,0.6,13
			c1.6,13.4,4.8,26.3,13.7,36.9c7.7,9.1,17,10.8,26.3,3.4c5.3-4.2,10.3-9.8,13.2-15.8c11.8-24.7,13.8-50.5,5.8-76.7
			c-1.7-5.6-4.9-11-8.6-15.5c-7.7-9.3-17.2-10.4-27.6-4c-7.1,4.3-11.7,10.8-15.1,18.1C701.2,1447.5,698.8,1461.2,698.9,1475.4z"/>
		<path class="st0" d="M511.5,835.6c-2.7,0.3-5.6,0.8-8.6,1c-62.5,3.1-125.1,5.6-187.7,2.6c-26-1.3-51.5-5.8-76.3-14
			c-21.6-7.1-40-19.2-57-33.9c-7.7-6.7-12.3-15.4-16.2-24.8c-13.6-33-14.8-67.3-10.6-102.1c1.2-9.9,2.4-19.9,4.9-29.5
			c8.4-32.8,28.9-57.2,54.9-77.6c4.1-3.2,9.1-5.6,13.9-7.7c8-3.3,16.4-5.5,24.2-9.1c18.5-8.7,38.3-10.8,58.3-11
			c39.9-0.4,79.9-0.2,119.8,0c61.9,0.2,123.8,1.1,185.7,0.7c48.9-0.3,97.8-2.6,146.8-2.8c45.6-0.2,91.2,1.1,136.8,1.8
			c2,0,3.9,0.3,6.7,0.5c1.7,8.8,3.3,17.6,5,26.3c14.2,71.4,42.6,137.2,81.3,198.4c15.8,25,27.5,51.6,38.5,78.7
			c0.4,0.9,0.5,1.9,0.9,3.7c-2.7,0.3-5.2,0.7-7.6,0.7c-65.9,0-131.8,0-197.8,0.1c-4.9,0-9-1.1-13-4c-14.8-10.7-29.5-21.6-44.9-31.5
			c-19.1-12.2-36.8-26.1-53.9-41c-8.2-7.1-17.6-13.4-27.4-18.1c-21.3-10.1-42.6-20.7-64.9-28c-37.1-12.3-70.7,2.1-93.1,32.4
			c-11.6,15.6-17.5,33.6-18.5,53C511,811.7,511.5,823,511.5,835.6z"/>
		<path class="st0" d="M1232,1820.4c1.8,5.9,4.4,10.7,4.6,15.5c0.3,7.7-6.3,13.6-14,14.1c-7.3,0.4-13.9-4.4-14.1-12.4
			c-0.2-6.4,0.4-14,3.7-19.1c29-44.6,68.9-74.6,121.5-85.5c23.4-4.9,45,1.2,62.6,18.3c6.9,6.7,14.3,13,20.8,20.2
			c45.5,49.9,131.7,56.1,189.2,10.2c19.6-15.6,35.2-34.3,46-57c2.4-5,5.4-10,8.9-14.3c4-4.8,7.9-4.9,13.2-1.6
			c4.8,3,7.1,7.7,8.3,13.1c3.6,15.9,1.3,31.7-5.6,45.8c-24.6,50.6-62.5,86.4-117.9,101.3c-16.9,4.6-34.2,4.9-51.5,1.9
			c-6.9-1.2-13.9-1.9-20.7-3.2c-24.5-4.8-45.8-15.9-63.6-33.4c-8.8-8.6-16.8-18-25.2-27c-5.9-6.3-11.7-12.8-18-18.7
			c-16.2-15-35-20.5-57.1-16.8c-34.3,5.8-63.4,21.3-88.3,45.3c-1,0.9-1.9,1.9-2.8,2.9C1231.8,1820.7,1231.5,1821.3,1232,1820.4z"/>
		<path class="st0" d="M1319.7,1649c2,1.2,4.6,1.9,5,3.3c0.5,1.8-0.7,4-1.2,6.1c-2-0.7-4.9-0.7-6-2.1c-3.1-4.3-3.7-9.6-1.3-14.2
			c2.8-5.5,5.9-11.4,10.4-15.6c19.4-18.3,42.9-29.1,69-33.2c14.4-2.3,28.4,1.6,41.9,6.8c16.6,6.3,31.5,15.8,45.9,25.9
			c7.6,5.4,15.3,10.6,23.2,15.5c13.8,8.7,28.5,9.2,42.8,2.1c9.4-4.7,19.2-10.1,26.5-17.4c16.2-16.2,31.4-33.4,46.1-51
			c5.8-7,9.2-16.1,13.6-24.3c2.5-4.6,4.3-10.2,10.9-10c5.1,0.1,10.1,5.1,11.7,12.2c2.9,12.7,1.7,25.1-4.3,36.9
			c-13.5,26.4-31.6,49.3-53.8,68.8c-9.4,8.3-19.7,16-30.6,22.2c-8.5,4.9-18.3,7.7-27.8,10.3c-9.6,2.6-19.5,1.1-27.8-4.5
			c-10.7-7.3-21.1-15.1-31.1-23.2c-10.6-8.6-20.2-18.4-31.1-26.6c-20.2-15.2-42.6-24.7-68.6-22.3
			C1357.9,1617.1,1336.6,1627,1319.7,1649z"/>
		<path class="st0" d="M1318.2,1538.6c-5.5-5.9-4.7-12.1-2.2-17.8c2.3-5.1,5.5-10,9.4-13.9c17.5-17.7,38.7-28.9,63-34.6
			c7.2-1.7,13.9-1.1,20.4,2.2c9.8,5,19.6,9.8,29.1,15.3c49.2,28.5,123,24.1,170.6-15.7c20.7-17.3,35-38.9,43.4-64.5
			c1.3-4.1,2.6-8.3,4.7-12.1c3.6-6.6,10.4-6.5,13.9,0.2c4.3,8.4,5.1,17.8,1.7,26.2c-19.3,48.2-49.7,86.4-100,105.1
			c-30,11.2-60.5,10.2-91.4,3c-18.5-4.3-35-12.3-50.1-23.5c-7.2-5.3-14.8-10.1-22.7-14.5c-9.4-5.3-19.3-6.2-29.8-2.7
			c-17.6,5.9-33.8,13.9-47.1,27.1c-4.7,4.7-9.5,9.4-10.1,16.7C1320.8,1536.1,1319.4,1537,1318.2,1538.6z"/>
		<path class="st0" d="M1122.7,1003.1c7.7,1,9.5,5.8,9.8,10.9c0.2,4.9-0.3,10-1.6,14.8c-5.2,20.1-15,37.6-30,52.1
			c-14.8,14.3-31.7,17.9-50.2,8.3c-10-5.2-19.3-11.7-28.8-17.8c-9.8-6.2-19.1-13.4-29.4-18.7c-16.8-8.7-31.2-5.9-44.5,7.4
			c-2.7,2.7-4.2,6.5-6.2,9.9c-1.1,1.9-2,3.8-2.9,5.5c-5.2-1-6.1-4.6-5.6-7.8c0.9-5.4,1.8-11.4,4.6-15.9
			c7.4-12.1,18.9-19.6,32.3-23.8c8.5-2.6,17.3-1.5,25.3,2.4c7.7,3.8,15.1,8.4,22.7,12.6c9.9,5.4,19.7,11.2,29.9,15.9
			c16.3,7.5,31.2,4.1,44.1-8c9.6-9,16.2-20.2,22.3-31.7C1117.2,1013.9,1119.8,1008.6,1122.7,1003.1z"/>
		<path class="st0" d="M989.7,1215.3c-7.5-3.8-7.7-10.5-7.9-16.6c-0.7-18.1,14-39,31.1-45c6.9-2.4,14-2.1,20.5,0.8
			c7.8,3.5,15.3,8,22.7,12.3c9.2,5.4,17.8,11.7,27.3,16.4c23.8,11.8,41.8,9,60.9-9.5c7.9-7.6,14.6-16.4,21.9-24.6
			c2.4-2.7,4.9-5.2,7.3-7.7c7.1,5.5,8.9,14.1,3.6,21.2c-9.4,12.9-18.8,25.9-29.6,37.6c-16.5,17.8-33.6,22.8-61.7,10.6
			c-7.2-3.2-13.7-8.1-20.4-12.4c-7-4.6-13.5-9.7-20.6-14c-5.1-3.1-10.4-6-16-7.9c-14.3-5-29,2.1-34,16.3c-0.7,2-0.1,4.4,0.2,6.7
			C995.7,1206.7,995.1,1208.7,989.7,1215.3z"/>
		<path class="st0" d="M384.6,1794.6c8.9,8.7,9.5,18.7,1.7,26.5c-2.1,2.1-4.5,4-7.2,5.3c-9.5,4.8-18.9,9.7-28.7,14
			c-12.1,5.3-24.6,5.9-36.9,0.9c-10.8-4.4-21.1-9.7-31.8-14.3c-10.7-4.6-21.3-9.4-32.4-12.8c-13.9-4.2-27.7-1.7-40.9,3.9
			c-9.3,3.9-15.9,9.8-14.6,21.1c0.1,0.8-0.7,1.8-1.5,3.8c-1.1-2.5-2.4-4-2.5-5.7c-1.1-11.2,3.2-20.1,12-27
			c8.9-7,19.4-10.3,30.4-11.7c13.7-1.8,27.1-1.1,40.3,3.7c12.1,4.5,24.5,8.5,36.9,12.1c14.9,4.4,29.7,3.2,43.8-3.4
			c7.8-3.6,15.3-7.9,23-12C379.1,1797.8,381.9,1796.1,384.6,1794.6z"/>
		<path class="st0" d="M428.5,981.8c-0.1,1.9-0.2,3.6-0.4,5.2c-0.3,4.1-2.3,7.3-6.5,7.5c-4.5,0.2-6-3.7-7.1-7.2
			c-1.9-6.1,1-11.1,4.6-15.6c11.7-14.4,27.3-19.9,45.2-17.5c13.5,1.8,26.7,5,40.1,7.5c3.9,0.7,7.9,1.2,11.8,1.8
			c14.3,2.3,27-0.8,37.8-10.9c3.6-3.4,7.8-6.3,12.1-8.7c5.5-3,8.6-1.3,10,4.9c1.2,5,1,9.7-1.5,14.5c-10.8,20.6-28.1,30-51,26.2
			c-12.4-2-24.4-6.1-36.7-8.9c-10-2.3-20-4.7-30.2-6C447.1,973.4,437.6,975.5,428.5,981.8z"/>
		<path class="st0" d="M173.6,1435.8c-0.7-3.4-1.8-6.4-1.9-9.4c-0.7-21.6,20.4-48.4,41.6-52.6c10.4-2.1,20.6-0.5,30.6,2.3
			c10.6,2.9,21,6.4,31.5,9.3c6.7,1.8,13.5,3.5,20.4,4.5c14,2,26.3-1.6,36.5-11.8c3.5-3.5,7.1-7.1,11.1-10c3.9-2.8,7.5-1.5,7.9,3.3
			c0.5,4.8,0.4,10.2-1.4,14.5c-5,11.7-13.9,20.1-25.4,25.7c-6.5,3.1-13.2,4.2-20.3,1.8c-13.9-4.6-27.7-9.4-41.7-13.4
			c-12.4-3.5-25-7.4-37.8-8.6c-24.7-2.3-38.7,8.6-45,32.7c-0.9,3.5-2,6.9-3.2,10.3C176.3,1434.7,175.4,1434.9,173.6,1435.8z"/>
		<path class="st0" d="M327.8,1565.4c5.3,3.7,6.3,8.5,4.8,13.5c-1.1,3.7-2.7,7.8-5.3,10.5c-11.6,12-24.8,20.2-42.6,15.9
			c-7.8-1.9-15.5-3.6-23.3-5.6c-19-4.8-37.7-4.1-55.8,3.3c-14.3,5.9-27.5,13.5-33.5,31.4c-1.8-3.2-3.9-5.1-3.6-6.5
			c0.9-4.8,1.8-9.9,4.1-14.1c2.4-4.2,5.9-8.2,9.9-11.1c22-16.3,46-26.5,74.3-23.2c8.9,1,17.9,1.2,26.9,1.6c12.4,0.6,23.7-2.4,34-9.6
			C320.9,1569.1,324.4,1567.3,327.8,1565.4z"/>
		<path d="M1576,713.4c3,206.2-189.8,47.4-143.3-70.1c11.5-30.3,28.4-32.3,56.6-35C1548.5,581.9,1576,671.8,1576,713.4z"/>
		<path d="M1836.8,711.1c3.6,50.5-24.4,105.9-82.8,87.1c-75.1-31.9-69.1-150.6-15.9-201.7C1804,540.2,1841.1,660.3,1836.8,711.1z"/>
		<path d="M1194.1,671.5c0.4-43.2,28.5-117.2,83-90c65.4,46.1,74,174.4-1.5,214.9C1215,814.7,1197.9,712.5,1194.1,671.5z"/>
		<path d="M856.3,1578c-22.4-1.2-23.9-38.2-21.3-55.2c3.4-11.8,9.1-20.5,22.5-22c13.4-9.8,23-12.6,29.6,6.3
			c5.2,62.3,14,124.7,10.1,187.7c24.2,3.6,62.2-30.8,79.7-52.9c31-42.2,59.8-85.7,80.6-134.1c4.3-10.9,14.8-15.6,22.6-4.7
			c28.3,57.2-39.8,115.9-59.9,166.7c-9.9,16.3-30.9,28.7-33.2,48.2c0.1,45.9,5,94.1-17.9,135.9c-12.5,27.3-44,20.4-68.5,22.5
			c-93.6,13.7-86.5-15.9-89.4-96.7c4.4-18.7-23.7-16-36.3-23.4c-67.6-35.4-169.1-109.4-148.3-197.1c5.8-13.3,15.9,3.5,14.3,11.1
			c18.4,72.4,153.8,150.5,226.2,137.9C857.2,1665.1,868.6,1621.1,856.3,1578z M891.3,1771.1c-11.4,1.8-22.8,4.1-34.3,5.2
			c-11.4,1.1-23,1.1-35.4-3c0,5-0.3,9,0.1,12.9c1.3,12.9,2.5,25.8,4.4,38.6c2.7,18.9,7.9,22.9,27.1,21.9c1.7-0.1,3.3-0.1,5-0.4
			c25.5-4.6,51-9.2,76.5-13.9c10.3-1.9,17.7-7.3,20.4-18c0.5-1.9,1.3-3.8,1.8-5.7c5.9-23.9,5.9-48.1,4.1-72.4c0-0.5-0.8-0.9-1.6-2
			c-1.8,0.9-3.9,1.7-5.7,2.9c-12,8.4-23.8,16.9-35.8,25.2c-2.4,1.6-5.8,4.3-7.7,3.6c-5.7-1.9-9.3,1.3-12.7,2.7
			c0.7,7.1,1.3,13.3,1.8,19.5c0.7,8.9,1.4,17.9,1.8,26.9c0.2,3.8,0.5,8.1-4.2,10C891,1818.2,891,1818.2,891.3,1771.1z"/>
		<path d="M1003.9,1425.1c0.3,15.6-2.5,30.6-8.9,44.7c-2.6,5.7-6,11.3-10.2,15.8c-9.5,10.2-23.8,9.3-31.9-2.1
			c-3.9-5.6-7-12.2-8.9-18.8c-6.3-22.2-6.6-44.8-0.4-67.1c1.8-6.6,5-13,8.6-19c5.6-9.6,15.3-12.5,25.7-12.8
			c7.4-0.2,12.1,4.9,15.6,10.9c6.1,10.6,8.2,22.4,9.6,34.4C1003.6,1415.7,1003.6,1420.4,1003.9,1425.1z"/>
		<path d="M698.9,1475.4c-0.1-14.2,2.2-27.9,8.3-40.8c3.5-7.3,8-13.8,15.1-18.1c10.4-6.3,19.9-5.3,27.6,4c3.7,4.5,6.9,10,8.6,15.5
			c8,26.2,6.1,52.1-5.8,76.7c-2.9,6-7.9,11.7-13.2,15.8c-9.3,7.3-18.6,5.7-26.3-3.4c-8.9-10.6-12.1-23.5-13.7-36.9
			C699,1484.1,699.1,1479.7,698.9,1475.4z"/>
		<path class="st0" d="M891.3,1771.1c-0.3,47.1-0.3,47.1,5.5,54.1c4.7-2,4.3-6.2,4.2-10c-0.4-9-1.1-17.9-1.8-26.9
			c-0.5-6.2-1.1-12.4-1.8-19.5c3.4-1.4,7-4.6,12.7-2.7c2,0.7,5.3-2,7.7-3.6c12-8.3,23.8-16.8,35.8-25.2c1.8-1.2,3.9-2,5.7-2.9
			c0.9,1,1.6,1.5,1.6,2c1.8,24.3,1.8,48.5-4.1,72.4c-0.5,1.9-1.3,3.8-1.8,5.7c-2.8,10.6-10.2,16.1-20.4,18
			c-25.5,4.7-51,9.3-76.5,13.9c-1.6,0.3-3.3,0.3-5,0.4c-19.1,1.1-24.3-2.9-27.1-21.9c-1.8-12.8-3.1-25.7-4.4-38.6
			c-0.4-3.9-0.1-7.8-0.1-12.9c12.4,4,24,4,35.4,3C868.5,1775.2,879.9,1772.8,891.3,1771.1z"/>
		<path class="st1" d="M495,1741.9c-4.9-3.3-7.3-8.8-10.3-13.8c-2.9,8-12.4,11.6-16.8,2.6c-12.5,6.3-13.9-17.7-10.4-25.3
			c-6.2,13.4-19,28.1-18.5,2.5c3.8-10.2,14.1-51.1,26.8-48.6c3.6-5.2,8.8-21.3,16.7-12.5c2.1-3.6,6-9.1,10.7-5.9
			c3.1-5.6,7.3-13.5,14.7-12.7c4.3,0.4,7.2,3.6,9.2,7.1c3.7-2.4,8.6-2.9,12.3-0.2c18.9-12.6,27.5,17.4,26.6,31.7
			c-0.4,20-12.8,63.2-33.7,69.2c-4,4.3-9.9,8-16,6.5C502.6,1744.3,498.9,1744.3,495,1741.9z"/>
	</g>
	<path class="st1" d="M1164.7,1547c-1.2-1.3-2.3-2.7-3.2-4.2c-6.4,1.3-10.8-5-13.2-10.1c-0.1,0-0.1,0-0.2,0c-1.7,0-3.2-0.7-4.4-1.8
		c-0.3,0.9-0.5,1.9-0.6,2.8c0,0,0,0,0,0c-5.9,21.2-15.2-1.2-12-11.9c3.2-10.7,11.9-76,25.9-69.8c2.5-0.9,5.2-0.4,7.5,0.9
		c3.3-6.8,10-16.7,18.6-11.7c16.5-21,29,9.2,32.5,23.7c1.1,0.6,2.2,1.4,3.2,2.2c2.7-0.2,5.5,0.1,7.9,1.2
		c29.9-4.4,29.6,89.1-16.1,66.9c-2.9,3.5-7.5,5.6-12,4.3c-3.5,5.7-10.5,10.2-16.8,5.6C1177.8,1551.2,1169.8,1552.6,1164.7,1547z"/>
</g>
</svg>
