<?xml version="1.0" encoding="utf-8"?>
<!-- Generator: Adobe Illustrator 26.1.0, SVG Export Plug-In . SVG Version: 6.00 Build 0)  -->
<svg version="1.1" id="Layer_1" xmlns="http://www.w3.org/2000/svg" xmlns:xlink="http://www.w3.org/1999/xlink" x="0px" y="0px"
	 viewBox="0 0 18 18" style="enable-background:new 0 0 18 18;" xml:space="preserve">
<style type="text/css">
	.st0{fill:#959CAB;}
</style>
<path class="st0" d="M13.9,4.5C13,4,12,3.7,11,3.6c-0.1,0.2-0.3,0.5-0.4,0.8c-1.1-0.2-2.1-0.2-3.2,0C7.3,4.1,7.2,3.8,7,3.6
	C6,3.7,5,4,4.1,4.5C2.3,7.3,1.8,10,2,12.6c1.2,0.9,2.4,1.5,3.5,1.8C5.8,14,6,13.6,6.3,13.2c-0.4-0.2-0.8-0.4-1.2-0.6
	c0.1-0.1,0.2-0.2,0.3-0.2c2.3,1.1,4.8,1.1,7.1,0c0.1,0.1,0.2,0.2,0.3,0.2c-0.4,0.2-0.8,0.4-1.2,0.6c0.2,0.4,0.5,0.9,0.8,1.2
	c1.2-0.4,2.3-0.9,3.5-1.8C16.2,9.5,15.4,6.8,13.9,4.5z M6.7,10.9c-0.7,0-1.3-0.6-1.3-1.4c0-0.8,0.6-1.4,1.3-1.4S8,8.7,8,9.5
	C7.9,10.3,7.4,10.9,6.7,10.9z M11.3,10.9c-0.7,0-1.3-0.6-1.3-1.4c0-0.8,0.6-1.4,1.3-1.4s1.3,0.6,1.3,1.4
	C12.6,10.3,12,10.9,11.3,10.9z"/>
</svg>
